<svg width="14" height="11" viewBox="0 0 14 11" fill="none" xmlns="http://www.w3.org/2000/svg">
<path d="M12.7695 0H1.23047C0.551961 0 0 0.528684 0 1.17858V5.10718C0 5.75707 0.551961 6.28576 1.23047 6.28576H12.7695C13.448 6.28576 14 5.75707 14 5.10718V1.17858C14 0.528684 13.448 0 12.7695 0ZM10.3086 2.35716C10.5351 2.35716 10.7188 2.53306 10.7188 2.75002C10.7188 2.96698 10.5351 3.14288 10.3086 3.14288C10.0821 3.14288 9.89844 2.96698 9.89844 2.75002C9.89844 2.53306 10.0821 2.35716 10.3086 2.35716ZM11.9492 4.71432H2.05078C1.82407 4.71432 1.64062 4.5386 1.64062 4.32146C1.64062 4.10431 1.82407 3.9286 2.05078 3.9286H11.9492C12.1759 3.9286 12.3594 4.10431 12.3594 4.32146C12.3594 4.5386 12.1759 4.71432 11.9492 4.71432ZM11.9492 3.14288C11.7227 3.14288 11.5391 2.96698 11.5391 2.75002C11.5391 2.53306 11.7227 2.35716 11.9492 2.35716C12.1757 2.35716 12.3594 2.53306 12.3594 2.75002C12.3594 2.96698 12.1757 3.14288 11.9492 3.14288Z" fill="#B79347"/>
<path d="M3.7189 7.07129C3.4922 7.07129 3.30875 7.247 3.30875 7.46415V8.06457C3.30875 8.99837 2.76682 9.83781 1.89483 10.2556C1.69216 10.3527 1.61004 10.5886 1.71138 10.7827C1.81222 10.9753 2.05701 11.0558 2.26173 10.9585C3.41369 10.4068 4.12906 9.29802 4.12906 8.06457V7.46415C4.12906 7.247 3.94561 7.07129 3.7189 7.07129Z" fill="#B79347"/>
<path d="M10.2813 7.07129C10.0545 7.07129 9.87109 7.247 9.87109 7.46415V8.06457C9.87109 9.29802 10.5865 10.4068 11.7384 10.9585C11.943 11.0557 12.1878 10.9755 12.2888 10.7827C12.3901 10.5886 12.308 10.3527 12.1053 10.2556C11.2333 9.83781 10.6914 8.99837 10.6914 8.06457V7.46415C10.6914 7.247 10.508 7.07129 10.2813 7.07129Z" fill="#B79347"/>
<path d="M7.41016 10.607V7.46415C7.41016 7.247 7.22671 7.07129 7 7.07129C6.77329 7.07129 6.58984 7.247 6.58984 7.46415V10.607C6.58984 10.8242 6.77329 10.9999 7 10.9999C7.22671 10.9999 7.41016 10.8242 7.41016 10.607Z" fill="#B79347"/>
<path d="M9.05078 10.607V7.46415C9.05078 7.247 8.86733 7.07129 8.64062 7.07129C8.41392 7.07129 8.23047 7.247 8.23047 7.46415V10.607C8.23047 10.8242 8.41392 10.9999 8.64062 10.9999C8.86733 10.9999 9.05078 10.8242 9.05078 10.607Z" fill="#B79347"/>
<path d="M5.76953 10.607V7.46415C5.76953 7.247 5.58608 7.07129 5.35938 7.07129C5.13267 7.07129 4.94922 7.247 4.94922 7.46415V10.607C4.94922 10.8242 5.13267 10.9999 5.35938 10.9999C5.58608 10.9999 5.76953 10.8242 5.76953 10.607Z" fill="#B79347"/>
</svg>
