<svg width="15" height="15" viewBox="0 0 15 15" fill="none" xmlns="http://www.w3.org/2000/svg">
<path d="M0.586426 10.1277V11.3364C0.586426 12.7334 1.6131 13.8949 2.95153 14.1064V15.0001H3.83049V14.1409H11.1695V15.0001H12.0485V14.1064C13.3869 13.8949 14.4136 12.7334 14.4136 11.3364V10.1277H0.586426Z" fill="#B79347"/>
<path d="M1.46535 7.48943V2.41863C1.46535 1.56964 2.1561 0.878936 3.00511 0.878936C3.7914 0.878936 4.44145 1.47144 4.5333 2.23333C3.61804 2.43946 2.93216 3.25834 2.93216 4.23492V4.82098H7.03651V4.23492C7.03651 3.25131 6.34075 2.42754 5.41568 2.22879C5.31839 0.983643 4.27481 0 3.00511 0C1.67143 0 0.586391 1.08498 0.586391 2.41863V7.48943H0V9.24867H15V7.48943H1.46535Z" fill="#B79347"/>
</svg>
