<svg width="16" height="14" viewBox="0 0 16 14" fill="none" xmlns="http://www.w3.org/2000/svg">
<path d="M16 8.40005V13.3C16 13.6864 15.744 14 15.4286 14C15.1131 14 14.8571 13.6864 14.8571 13.3V12.6H1.14286V13.3C1.14286 13.6864 0.886857 14 0.571429 14C0.256 14 0 13.6864 0 13.3V8.40005C0 7.24225 0.769143 6.30005 1.71429 6.30005H14.2857C15.2309 6.30005 16 7.24225 16 8.40005Z" fill="#B79347"/>
<path d="M1.71436 4.9V0.7C1.71436 0.3136 1.97036 0 2.28578 0H13.7144C14.0298 0 14.2858 0.3136 14.2858 0.7V4.9H12.5715V4.2C12.5715 3.4279 12.0589 2.8 11.4286 2.8H9.71435C9.08407 2.8 8.5715 3.4279 8.5715 4.2V4.9H7.42864V4.2C7.42864 3.4279 6.91607 2.8 6.28578 2.8H4.5715C3.94121 2.8 3.42864 3.4279 3.42864 4.2V4.9H1.71436Z" fill="#B79347"/>
</svg>
