<svg width="20" height="20" viewBox="0 0 20 20" fill="none" xmlns="http://www.w3.org/2000/svg">
<path d="M0 7.09703V18.0702C0.000607298 18.5818 0.204122 19.0723 0.565903 19.4341C0.927684 19.7959 1.41819 19.9994 1.92982 20H12.9028C13.4144 19.9994 13.9049 19.7959 14.2667 19.4341C14.6285 19.0723 14.832 18.5818 14.8326 18.0702V7.09703C14.832 6.5854 14.6285 6.09489 14.2667 5.73311C13.9049 5.37133 13.4144 5.16781 12.9028 5.16721H1.92982C1.41819 5.16781 0.927684 5.37133 0.565903 5.73311C0.204122 6.09489 0.000607298 6.5854 0 7.09703ZM13.78 7.09703V18.0702C13.7797 18.3027 13.6873 18.5257 13.5228 18.6902C13.3583 18.8546 13.1354 18.9471 12.9028 18.9474H1.92982C1.69725 18.9471 1.47428 18.8546 1.30982 18.6902C1.14537 18.5257 1.05288 18.3027 1.05263 18.0702V7.09703C1.05288 6.86446 1.14537 6.64148 1.30982 6.47703C1.47428 6.31258 1.69725 6.22008 1.92982 6.21984H12.9028C13.1354 6.22008 13.3583 6.31258 13.5228 6.47703C13.6873 6.64148 13.7797 6.86446 13.78 7.09703Z" fill="#636363"/>
<path d="M6.21962 3.10992V2.24849C6.22005 1.9314 6.34622 1.62742 6.57047 1.40324C6.79472 1.17905 7.09874 1.05296 7.41583 1.05263H8.7078C8.84606 1.05061 8.97797 0.994267 9.07502 0.895782C9.17207 0.797296 9.22648 0.664576 9.22647 0.526305C9.22647 0.388034 9.17206 0.255317 9.07501 0.156835C8.97795 0.0583534 8.84604 0.00201665 8.70778 0H7.41584C6.81967 0.000628631 6.24808 0.237713 5.82649 0.65924C5.40489 1.08077 5.16772 1.65231 5.16699 2.24849V3.10992C5.16895 3.24822 5.22526 3.38019 5.32375 3.4773C5.42224 3.57441 5.555 3.62885 5.69331 3.62885C5.83162 3.62885 5.96437 3.57441 6.06287 3.4773C6.16136 3.38019 6.21767 3.24822 6.21962 3.10992Z" fill="#636363"/>
<path d="M19.4734 10.7655C19.3338 10.7655 19.1999 10.821 19.1012 10.9197C19.0025 11.0184 18.9471 11.1522 18.9471 11.2918V12.5836C18.9467 12.9008 18.8206 13.2048 18.5963 13.4291C18.3721 13.6533 18.068 13.7795 17.7509 13.7798H16.8896C16.75 13.7798 16.6161 13.8353 16.5174 13.934C16.4187 14.0327 16.3633 14.1666 16.3633 14.3061C16.3633 14.4457 16.4187 14.5796 16.5174 14.6783C16.6161 14.777 16.75 14.8325 16.8896 14.8325H17.7509C18.3471 14.8318 18.9187 14.5947 19.3403 14.1731C19.7619 13.7515 19.999 13.1798 19.9997 12.5836V11.2918C19.9997 11.1522 19.9442 11.0184 19.8455 10.9197C19.7468 10.821 19.613 10.7655 19.4734 10.7655Z" fill="#636363"/>
<path d="M17.7511 0H16.4593C16.321 0.00195865 16.1891 0.0582728 16.092 0.156765C15.9949 0.255258 15.9404 0.388014 15.9404 0.526326C15.9404 0.664639 15.9949 0.797392 16.092 0.895881C16.1891 0.99437 16.3211 1.05068 16.4594 1.05263H17.7511C18.0682 1.05296 18.3723 1.17905 18.5965 1.40324C18.8208 1.62742 18.9469 1.9314 18.9473 2.24849V3.54064C18.9473 3.68023 19.0028 3.8141 19.1015 3.9128C19.2002 4.0115 19.3341 4.06695 19.4737 4.06695C19.6133 4.06695 19.7471 4.0115 19.8458 3.9128C19.9445 3.8141 20 3.68023 20 3.54064V2.24849C19.9993 1.65232 19.7621 1.08077 19.3405 0.659246C18.9189 0.23772 18.3473 0.000633274 17.7511 0Z" fill="#636363"/>
<path d="M13.8759 1.05263C14.0141 1.05061 14.1461 0.994267 14.2431 0.895782C14.3402 0.797296 14.3946 0.664576 14.3946 0.526305C14.3946 0.388034 14.3402 0.255317 14.2431 0.156835C14.146 0.0583534 14.0141 0.00201665 13.8759 0H11.2921C11.1539 0.00202218 11.0219 0.0583642 10.9249 0.15685C10.8278 0.255336 10.7734 0.388055 10.7734 0.526326C10.7734 0.664597 10.8278 0.797315 10.9249 0.895796C11.022 0.994278 11.1539 1.05061 11.2921 1.05263H13.8759Z" fill="#636363"/>
<path d="M19.4736 5.59793C19.334 5.59794 19.2001 5.65339 19.1014 5.75209C19.0027 5.8508 18.9473 5.98466 18.9473 6.12425V8.70785C18.9493 8.84611 19.0056 8.97802 19.1041 9.07507C19.2026 9.17213 19.3353 9.22653 19.4736 9.22653C19.6119 9.22652 19.7446 9.17212 19.8431 9.07506C19.9415 8.978 19.9979 8.84609 19.9999 8.70783V6.12425C19.9999 5.98466 19.9444 5.8508 19.8457 5.75209C19.747 5.65339 19.6132 5.59794 19.4736 5.59793Z" fill="#636363"/>
<path d="M3.90736 13.1099H6.88981V16.0924C6.89183 16.2306 6.94818 16.3625 7.04666 16.4596C7.14515 16.5567 7.27787 16.6111 7.41614 16.6111C7.55441 16.6111 7.68713 16.5566 7.78561 16.4596C7.88409 16.3625 7.94043 16.2306 7.94244 16.0924V13.1099H10.9249C11.0645 13.1099 11.1984 13.0545 11.2971 12.9558C11.3958 12.8571 11.4512 12.7232 11.4512 12.5836C11.4512 12.444 11.3958 12.3102 11.2971 12.2114C11.1984 12.1127 11.0645 12.0573 10.9249 12.0573H7.94244V9.07484C7.94244 8.93525 7.88699 8.80138 7.78829 8.70268C7.68958 8.60397 7.55571 8.54852 7.41613 8.54852C7.27654 8.54852 7.14267 8.60397 7.04397 8.70268C6.94526 8.80138 6.88981 8.93525 6.88981 9.07484V12.0573H3.90736C3.7691 12.0593 3.63719 12.1157 3.54013 12.2141C3.44308 12.3126 3.38867 12.4453 3.38867 12.5836C3.38867 12.7219 3.44308 12.8546 3.54013 12.9531C3.63719 13.0516 3.7691 13.1079 3.90736 13.1099Z" fill="#636363"/>
</svg>
