<svg width="14" height="9" viewBox="0 0 14 9" fill="none" xmlns="http://www.w3.org/2000/svg">
<path d="M13.1247 0C12.6422 0 12.2497 0.378474 12.2497 0.843748V4.5H10.208C9.7255 4.5 9.33301 4.87847 9.33301 5.34375C9.33301 5.80902 9.7255 6.18749 10.208 6.18749H11.6664V8.43748H10.7913C10.6301 8.43748 10.4997 8.56328 10.4997 8.71874C10.4997 8.8742 10.6301 9 10.7913 9H13.1247C13.2859 9 13.4164 8.8742 13.4164 8.71874C13.4164 8.56328 13.2859 8.43748 13.1247 8.43748H12.2497V6.18749H13.1247C13.6072 6.18749 13.9997 5.80902 13.9997 5.34375V0.843748C13.9997 0.3785 13.6072 0 13.1247 0Z" fill="#B79347"/>
<path d="M3.79172 4.5H1.75002V0.843748C1.75002 0.378474 1.35752 0 0.87501 0C0.392497 0 0 0.378474 0 0.843748V5.34375C0 5.80902 0.392497 6.18749 0.87501 6.18749H1.75002V8.43748H0.87501C0.71379 8.43748 0.583331 8.56328 0.583331 8.71874C0.583331 8.8742 0.71379 9 0.87501 9H3.20836C3.36958 9 3.50004 8.8742 3.50004 8.71874C3.50004 8.56328 3.36958 8.43748 3.20836 8.43748H2.33335V6.18749H3.79169C4.27421 6.18749 4.6667 5.80902 4.6667 5.34375C4.6667 4.87847 4.27423 4.5 3.79172 4.5Z" fill="#B79347"/>
<path d="M7.79407 4.17701C8.04927 4.32835 8.33868 4.5 8.89552 4.5C9.45238 4.5 9.74176 4.32835 9.99697 4.17701C10.2228 4.04325 10.4011 3.93751 10.7931 3.93751C10.9543 3.93751 11.0848 3.81172 11.0848 3.65625V2.81251C11.0848 2.19206 10.5615 1.6875 9.91808 1.6875H4.08466C3.44122 1.6875 2.91797 2.19204 2.91797 2.81251V3.65625C2.91797 3.81172 3.04843 3.93751 3.20965 3.93751C3.60045 3.93751 3.77819 4.04325 4.00347 4.17701C4.2584 4.32835 4.54721 4.5 5.1035 4.5C5.65949 4.5 5.94859 4.32835 6.20352 4.17701C6.3639 4.08179 6.50332 4.00269 6.70966 3.96391V8.43749H5.54297C5.38175 8.43749 5.25129 8.56328 5.25129 8.71874C5.25129 8.8742 5.38175 9 5.54297 9H8.45968C8.6209 9 8.75136 8.8742 8.75136 8.71874C8.75136 8.56328 8.6209 8.43749 8.45968 8.43749H7.29299V3.96546C7.49613 4.00472 7.63501 4.08282 7.79407 4.17701Z" fill="#B79347"/>
</svg>
