<svg width="14" height="12" viewBox="0 0 14 12" fill="none" xmlns="http://www.w3.org/2000/svg">
<path d="M10.8809 6.95166V8.78882C10.8809 9.45611 10.506 10.0516 9.92545 10.3303C9.21998 10.6682 8.1517 11.0356 6.84961 11.0356C5.54752 11.0356 4.47923 10.6682 3.76973 10.3303C3.19327 10.0516 2.81836 9.45611 2.81836 8.78882V6.95166L5.68458 8.32425C6.05142 8.50163 6.44648 8.59032 6.84961 8.59032C7.25273 8.59032 7.6478 8.50163 8.01464 8.32425L10.8809 6.95166Z" fill="#B79347"/>
<path d="M12.4928 6.17871V8.92389C12.4928 9.15617 12.3114 9.34622 12.0896 9.34622C11.8679 9.34622 11.6865 9.15617 11.6865 8.92389V6.56726L12.4928 6.17871Z" fill="#B79347"/>
<path d="M6.01817 7.55728C6.28222 7.68355 6.56561 7.7469 6.84941 7.7469C7.13321 7.7469 7.41621 7.68398 7.68066 7.55728L12.829 5.09168C13.1192 4.95274 13.2994 4.65837 13.2994 4.32346C13.2994 3.98854 13.1192 3.69375 12.829 3.55481L7.68066 1.08964C7.15216 0.836658 6.54707 0.836658 6.01857 1.08964L0.869861 3.55438C0.579611 3.69375 0.399414 3.98812 0.399414 4.32303C0.399414 4.65795 0.579611 4.95231 0.869861 5.09168L6.01817 7.55728Z" fill="#B79347"/>
</svg>
