<svg width="25" height="25" viewBox="0 0 25 25" fill="none" xmlns="http://www.w3.org/2000/svg">
<path d="M9.16168 0H2.13417C0.957389 0 0 0.957373 0 2.13413V9.16152C0 10.3383 0.957389 11.2957 2.13417 11.2957H9.16168C10.3385 11.2957 11.2958 10.3383 11.2958 9.16152V2.13413C11.2958 0.957373 10.3385 0 9.16168 0Z" fill="#B79347"/>
<path d="M22.8658 0H15.8383C14.6615 0 13.7041 0.957373 13.7041 2.13413V9.16152C13.7041 10.3383 14.6615 11.2957 15.8383 11.2957H22.8658C24.0426 11.2957 24.9999 10.3383 24.9999 9.16152V2.13413C24.9999 0.957373 24.0426 0 22.8658 0Z" fill="#B79347"/>
<path d="M9.16168 13.7043H2.13417C0.957389 13.7043 0 14.6617 0 15.8385V22.8659C0 24.0426 0.957389 25 2.13417 25H9.16168C10.3385 25 11.2958 24.0426 11.2958 22.8659V15.8385C11.2958 14.6617 10.3385 13.7043 9.16168 13.7043Z" fill="#B79347"/>
<path d="M22.8658 13.7043H15.8383C14.6615 13.7043 13.7041 14.6617 13.7041 15.8385V22.8659C13.7041 24.0426 14.6615 25 15.8383 25H22.8658C24.0426 25 24.9999 24.0426 24.9999 22.8659V15.8385C24.9999 14.6617 24.0426 13.7043 22.8658 13.7043Z" fill="#B79347"/>
</svg>
