<svg width="15" height="15" viewBox="0 0 15 15" fill="none" xmlns="http://www.w3.org/2000/svg">
<path d="M3.75 9.64282H11.25V11.25H3.75V9.64282Z" fill="#B79347"/>
<path d="M11.25 8.5713H3.75V6.96411H11.25V8.5713Z" fill="#B79347"/>
<path d="M3.75 12.3213H11.25V13.9285H3.75V12.3213Z" fill="#B79347"/>
<path d="M15 4.28543V14.4643C15 14.76 14.7605 15 14.4643 15H12.3214V6.42834C12.3214 6.13262 12.082 5.89261 11.7857 5.89261H3.21429C2.91804 5.89261 2.67857 6.13262 2.67857 6.42834V15H0.535714C0.239464 15 0 14.76 0 14.4643V4.28543C0 4.08828 0.108214 3.9072 0.281786 3.81399L7.24607 0.0638856C7.40411 -0.0212952 7.59536 -0.0212952 7.75339 0.0638856L14.7177 3.81399C14.8918 3.9072 15 4.08828 15 4.28543Z" fill="#B79347"/>
</svg>
