<svg width="72" height="72" viewBox="0 0 72 72" fill="none" xmlns="http://www.w3.org/2000/svg">
<path d="M8.21118 21.6704V16.7268C8.21118 8.04085 15.252 1 23.9379 1H26.6182C35.3041 1 42.3464 8.04085 42.3464 16.7268V21.6704" stroke="white" stroke-width="2" stroke-miterlimit="10" stroke-linecap="round" stroke-linejoin="round"/>
<path d="M43.8564 71H9.23389" stroke="white" stroke-width="2" stroke-miterlimit="10" stroke-linecap="round" stroke-linejoin="round"/>
<path d="M4.30423 71H2.75352C1.78451 71 1 70.2155 1 69.2465V54.3915C1 49.7056 4.36761 45.6972 8.9831 44.8915L14.293 43.9634" stroke="white" stroke-width="2" stroke-miterlimit="10" stroke-linecap="round" stroke-linejoin="round"/>
<path d="M36.2634 43.9634L41.5733 44.8915C42.0733 44.9789 42.5592 45.1042 43.0268 45.2634" stroke="white" stroke-width="2" stroke-miterlimit="10" stroke-linecap="round" stroke-linejoin="round"/>
<path d="M31.2646 36.7803V41.6169C31.2646 41.831 31.3027 42.0366 31.3745 42.2282" stroke="white" stroke-width="2" stroke-miterlimit="10" stroke-linecap="round" stroke-linejoin="round"/>
<path d="M19.293 36.8057V41.6169C19.293 41.831 19.2535 42.0381 19.1831 42.2296" stroke="white" stroke-width="2" stroke-miterlimit="10" stroke-linecap="round" stroke-linejoin="round"/>
<path d="M37.8198 17.7607H38.4367C40.5959 17.7607 42.3466 19.51 42.3466 21.6706C42.3466 22.7495 41.9086 23.7269 41.2015 24.434C40.4931 25.141 39.5156 25.5791 38.4367 25.5791H37.8198" stroke="white" stroke-width="2" stroke-miterlimit="10" stroke-linecap="round" stroke-linejoin="round"/>
<path d="M12.7382 25.5791H12.1213C9.96072 25.5791 8.21143 23.8298 8.21143 21.6706C8.21143 20.5903 8.64805 19.6129 9.3565 18.9058C10.0635 18.1974 11.041 17.7607 12.1213 17.7607H12.7382" stroke="white" stroke-width="2" stroke-miterlimit="10" stroke-linecap="round" stroke-linejoin="round"/>
<path d="M12.5264 70.9997L12.5319 59.6714" stroke="white" stroke-width="2" stroke-miterlimit="10" stroke-linecap="round" stroke-linejoin="round"/>
<path d="M13.269 15.4012C16.9734 13.9132 18.8417 13.0915 19.8028 11.4776C20.1058 10.969 20.8241 10.9097 21.1897 11.3752C24.0713 15.045 29.5883 15.5277 37.0254 15.9803C37.4713 16.0074 37.8197 16.377 37.8197 16.8238V25.6259C37.8197 32.5415 32.2878 38.2734 25.3723 38.3236C18.4027 38.3743 12.738 32.741 12.738 25.7831V16.1856C12.738 15.8405 12.9487 15.53 13.269 15.4012Z" stroke="white" stroke-width="2" stroke-miterlimit="10" stroke-linecap="round" stroke-linejoin="round"/>
<path d="M38.03 59.6714L38.0244 70.9997" stroke="white" stroke-width="2" stroke-miterlimit="10" stroke-linecap="round" stroke-linejoin="round"/>
<path d="M31.1089 21.0361V22.3037" stroke="white" stroke-width="2" stroke-miterlimit="10" stroke-linecap="round" stroke-linejoin="round"/>
<path d="M19.4478 21.0361V22.3037" stroke="white" stroke-width="2" stroke-miterlimit="10" stroke-linecap="round" stroke-linejoin="round"/>
<path d="M22.8398 31.4497C24.2939 32.507 26.2628 32.507 27.7169 31.4497" stroke="white" stroke-width="2" stroke-miterlimit="10" stroke-linecap="round" stroke-linejoin="round"/>
<path d="M24.9263 27.6182H25.6305" stroke="white" stroke-width="2" stroke-miterlimit="10" stroke-linecap="round" stroke-linejoin="round"/>
<path d="M23.3974 54.5645L20.9312 70.9997" stroke="white" stroke-width="2" stroke-miterlimit="10" stroke-linecap="round" stroke-linejoin="round"/>
<path d="M29.6254 70.9997L27.1592 54.5645" stroke="white" stroke-width="2" stroke-miterlimit="10" stroke-linecap="round" stroke-linejoin="round"/>
<path d="M22.4324 51.6665L22.6774 53.5158C22.7704 54.2158 23.3676 54.7383 24.0732 54.7383H26.4831C27.1887 54.7383 27.7859 54.2158 27.8789 53.5158L28.1239 51.6665" stroke="white" stroke-width="2" stroke-miterlimit="10" stroke-linecap="round" stroke-linejoin="round"/>
<path d="M36.0823 43.0388L33.9209 40.8774C33.5909 40.5474 33.0558 40.5474 32.7258 40.8774L25.5258 48.0774C25.1958 48.4074 25.1958 48.9425 25.5258 49.2725L27.6872 51.4339C28.0172 51.7639 28.5523 51.7639 28.8823 51.4339L36.0823 44.2339C36.4123 43.9039 36.4123 43.3688 36.0823 43.0388Z" stroke="white" stroke-width="2" stroke-miterlimit="10" stroke-linecap="round" stroke-linejoin="round"/>
<path d="M14.4741 43.0388L16.6355 40.8774C16.9655 40.5474 17.5005 40.5474 17.8305 40.8774L25.0305 48.0774C25.3605 48.4074 25.3605 48.9425 25.0305 49.2725L22.8691 51.4339C22.5391 51.7639 22.0041 51.7639 21.6741 51.4339L14.4741 44.2339C14.1441 43.9039 14.1441 43.3688 14.4741 43.0388Z" stroke="white" stroke-width="2" stroke-miterlimit="10" stroke-linecap="round" stroke-linejoin="round"/>
<path d="M27.7581 58.5552L22.3254 61.706" stroke="white" stroke-width="2" stroke-miterlimit="10" stroke-linecap="round" stroke-linejoin="round"/>
<path d="M28.5739 63.9902L21.3545 68.1776" stroke="white" stroke-width="2" stroke-miterlimit="10" stroke-linecap="round" stroke-linejoin="round"/>
<path d="M44.9917 66.3523V48.3467" stroke="white" stroke-width="2" stroke-miterlimit="10" stroke-linecap="round" stroke-linejoin="round"/>
<path d="M69.021 66.3519V48.3477" stroke="white" stroke-width="2" stroke-miterlimit="10" stroke-linecap="round" stroke-linejoin="round"/>
<path d="M52.731 66.3524V55.865C52.731 55.2425 53.2352 54.7383 53.8577 54.7383H60.1535C60.776 54.7383 61.2803 55.2425 61.2803 55.865V66.3524" stroke="white" stroke-width="2" stroke-miterlimit="10" stroke-linecap="round" stroke-linejoin="round"/>
<path d="M70.155 71.0004H43.8568C43.39 71.0004 43.0117 70.6221 43.0117 70.1554V67.1976C43.0117 66.7308 43.39 66.3525 43.8568 66.3525H70.155C70.6217 66.3525 71 66.7308 71 67.1976V70.1554C71 70.6221 70.6217 71.0004 70.155 71.0004Z" stroke="white" stroke-width="2" stroke-miterlimit="10" stroke-linecap="round" stroke-linejoin="round"/>
<path d="M68.8422 43.738L70.7338 44.9126C70.9 45.0154 71 45.1971 71 45.3915V48.5633C71 49.0042 70.5141 49.2746 70.1394 49.0422L57.3028 41.0675C57.1211 40.9549 56.8901 40.9549 56.7084 41.0675L43.8718 49.0422C43.4971 49.2746 43.0112 49.0042 43.0112 48.5633V45.3915C43.0112 45.1971 43.1126 45.0154 43.2774 44.9126L56.7084 36.5703C56.8901 36.4577 57.1211 36.4577 57.3028 36.5703L64.6535 41.1351" stroke="white" stroke-width="2" stroke-miterlimit="10" stroke-linecap="round" stroke-linejoin="round"/>
<path d="M57.0058 50.9447C58.3671 50.9447 59.4706 49.8412 59.4706 48.4799C59.4706 47.1187 58.3671 46.0151 57.0058 46.0151C55.6445 46.0151 54.541 47.1187 54.541 48.4799C54.541 49.8412 55.6445 50.9447 57.0058 50.9447Z" stroke="white" stroke-width="2" stroke-miterlimit="10" stroke-linecap="round" stroke-linejoin="round"/>
</svg>
