<svg width="19" height="16" viewBox="0 0 19 16" fill="none" xmlns="http://www.w3.org/2000/svg">
<path d="M9.6217 5.64734C8.55134 5.64734 7.68359 6.48103 7.68359 7.50949C7.68359 8.5379 8.5513 9.37163 9.6217 9.37163C10.6921 9.37163 11.5598 8.53794 11.5598 7.50949C11.5598 6.48103 10.6921 5.64734 9.6217 5.64734ZM9.6217 8.48486C9.06102 8.48486 8.6065 8.04815 8.6065 7.50944C8.6065 6.97073 9.06102 6.53403 9.6217 6.53403C10.1824 6.53403 10.6369 6.97073 10.6369 7.50944C10.6369 8.04815 10.1824 8.48486 9.6217 8.48486Z" fill="white"/>
<path d="M17.3512 1.39096L4.7536 0.0165599C4.26468 -0.0502272 3.76931 0.0869112 3.39234 0.393436C3.01541 0.674247 2.7738 1.0905 2.72323 1.54617L2.49253 3.36398H1.77723C0.762027 3.36398 0.000623524 4.22852 0.000623524 5.20393V14.2707C-0.0249465 15.2009 0.739106 15.9749 1.70723 15.9994C1.73055 16 1.75391 16.0001 1.77723 15.9998H14.4441C15.4593 15.9998 16.3822 15.2461 16.3822 14.2707V13.916C16.6969 13.8576 16.9955 13.7368 17.2589 13.5614C17.6328 13.2589 17.8721 12.8307 17.928 12.3643L18.9894 3.36398C19.0976 2.38631 18.3673 1.50684 17.3512 1.39096ZM15.4593 14.2707C15.4593 14.7584 14.9517 15.1131 14.4441 15.1131H1.77723C1.31869 15.1261 0.93607 14.7794 0.922601 14.3388C0.921894 14.3161 0.922203 14.2934 0.923528 14.2707V12.6303L4.4998 10.1031C4.92941 9.78619 5.53452 9.81436 5.9303 10.1696L8.44522 12.2977C8.82713 12.6058 9.30788 12.7781 9.80652 12.7855C10.1964 12.79 10.5798 12.6903 10.914 12.4973L15.4593 9.97008V14.2707H15.4593ZM15.4593 8.92818L10.4294 11.7435C9.99752 11.9894 9.45084 11.9449 9.06813 11.6327L6.53016 9.48238C5.80276 8.88184 4.7396 8.84501 3.9691 9.39369L0.923528 11.5218V5.20393C0.923528 4.71622 1.26963 4.25071 1.77723 4.25071H14.4441C14.9864 4.27231 15.4243 4.68355 15.4593 5.20393V8.92818ZM18.0674 3.24428C18.067 3.2472 18.0668 3.25017 18.0664 3.2531L16.982 12.2534C16.9839 12.4868 16.8731 12.7078 16.6821 12.8519C16.5898 12.9406 16.3821 12.985 16.3821 13.0293V5.20393C16.3457 4.19402 15.4955 3.38685 14.444 3.36398H3.41539L3.62304 1.63485C3.66809 1.41094 3.78993 1.20803 3.96914 1.05846C4.17149 0.924041 4.41615 0.86137 4.66134 0.8811L17.2359 2.27769C17.7432 2.32398 18.1155 2.75674 18.0674 3.24428Z" fill="white"/>
</svg>
