<svg width="10" height="11" viewBox="0 0 10 11" fill="none" xmlns="http://www.w3.org/2000/svg">
<path d="M8.75 0H1.25C0.918479 0 0.600537 0.124171 0.366117 0.345196C0.131696 0.566221 0 0.865995 0 1.17857V9.82143C0 10.134 0.131696 10.4338 0.366117 10.6548C0.600537 10.8758 0.918479 11 1.25 11H8.75C9.08152 11 9.39946 10.8758 9.63388 10.6548C9.8683 10.4338 10 10.134 10 9.82143V1.17857C10 0.865995 9.8683 0.566221 9.63388 0.345196C9.39946 0.124171 9.08152 0 8.75 0ZM7.08333 1.17857C7.16574 1.17857 7.2463 1.20161 7.31482 1.24478C7.38334 1.28795 7.43675 1.3493 7.46828 1.42109C7.49982 1.49287 7.50807 1.57186 7.49199 1.64807C7.47592 1.72428 7.43623 1.79428 7.37796 1.84922C7.31969 1.90416 7.24545 1.94158 7.16462 1.95674C7.0838 1.9719 7.00002 1.96412 6.92388 1.93438C6.84775 1.90465 6.78267 1.85429 6.73689 1.78969C6.6911 1.72508 6.66667 1.64913 6.66667 1.57143C6.66667 1.46724 6.71057 1.36731 6.7887 1.29364C6.86685 1.21996 6.97283 1.17857 7.08333 1.17857ZM1.25 1.57143C1.25 1.46724 1.2939 1.36731 1.37204 1.29364C1.45018 1.21996 1.55616 1.17857 1.66667 1.17857H2.91667C3.02717 1.17857 3.13315 1.21996 3.21129 1.29364C3.28943 1.36731 3.33333 1.46724 3.33333 1.57143C3.33333 1.67562 3.28943 1.77555 3.21129 1.84922C3.13315 1.9229 3.02717 1.96429 2.91667 1.96429H1.66667C1.55616 1.96429 1.45018 1.9229 1.37204 1.84922C1.2939 1.77555 1.25 1.67562 1.25 1.57143ZM5 9.82143C4.34073 9.82143 3.69626 9.6371 3.1481 9.29176C2.59994 8.94642 2.17269 8.45557 1.9204 7.88129C1.66811 7.30701 1.6021 6.67509 1.73072 6.06543C1.85933 5.45578 2.1768 4.89577 2.64298 4.45624C3.10915 4.0167 3.7031 3.71737 4.3497 3.5961C4.9963 3.47484 5.66652 3.53707 6.27561 3.77495C6.8847 4.01283 7.40529 4.41565 7.77156 4.93249C8.13784 5.44933 8.33333 6.05697 8.33333 6.67857C8.33234 7.51182 7.98083 8.31068 7.35593 8.89987C6.73102 9.48907 5.88375 9.82049 5 9.82143ZM8.33333 1.96429C8.25092 1.96429 8.17037 1.94124 8.10185 1.89808C8.03333 1.85491 7.97992 1.79355 7.94838 1.72177C7.91685 1.64998 7.9086 1.57099 7.92467 1.49479C7.94075 1.41858 7.98043 1.34858 8.0387 1.29364C8.09698 1.23869 8.17122 1.20128 8.25204 1.18612C8.33287 1.17096 8.41665 1.17874 8.49278 1.20848C8.56892 1.23821 8.634 1.28856 8.67978 1.35317C8.72556 1.41777 8.75 1.49373 8.75 1.57143C8.75 1.67562 8.7061 1.77555 8.62796 1.84922C8.54982 1.9229 8.44384 1.96429 8.33333 1.96429Z" fill="#B79347"/>
<path d="M5.0125 6.67867C4.6226 6.49355 4.1919 6.39771 3.75535 6.39894C3.31881 6.40017 2.88872 6.49843 2.5 6.68574C2.50039 7.3109 2.76415 7.9103 3.23326 8.35209C3.46555 8.57085 3.74125 8.74432 4.04464 8.86261C4.34803 8.9809 4.67315 9.04169 5.00146 9.04151C5.32976 9.04133 5.65482 8.98018 5.95806 8.86156C6.2613 8.74293 6.53679 8.56916 6.7688 8.35015C7.00081 8.13114 7.1848 7.87119 7.31026 7.58514C7.43572 7.29909 7.50019 6.99254 7.5 6.68299C7.11363 6.86487 6.68756 6.95919 6.25571 6.95844C5.82386 6.95769 5.39816 6.86189 5.0125 6.67867Z" fill="#B79347"/>
</svg>
