<svg width="25" height="25" viewBox="0 0 25 25" fill="none" xmlns="http://www.w3.org/2000/svg">
<g>
<path d="M22.6994 0H2.30063C1.03208 0 0 0.980948 0 2.18824C0 3.39401 1.03208 4.375 2.30063 4.375H22.6994C23.9679 4.375 25 3.39401 25 2.18824C25 0.980948 23.9679 0 22.6994 0Z" fill="#636363"/>
<path d="M22.6994 20.625H2.30063C1.03208 20.625 0 21.6059 0 22.8132C0 24.019 1.03208 25 2.30063 25H22.6994C23.9679 25 25 24.019 25 22.8132C25 21.6059 23.9679 20.625 22.6994 20.625Z" fill="#636363"/>
<path d="M22.6994 10H2.30063C1.03208 10 0 10.9809 0 12.1882C0 13.394 1.03208 14.375 2.30063 14.375H22.6994C23.9679 14.375 25 13.394 25 12.1882C25 10.9809 23.9679 10 22.6994 10Z" fill="#636363"/>
</g>
</svg>
