<svg width="114" height="107" viewBox="0 0 114 107" fill="none" xmlns="http://www.w3.org/2000/svg">
<path fill-rule="evenodd" clip-rule="evenodd" d="M59.3709 100.846H7.8806C7.14598 100.846 6.54492 100.107 6.54492 99.2048V53.8282C6.54492 53.0897 6.87884 52.5153 7.41311 52.2692L58.8367 27.1603C59.7048 26.75 60.7066 27.5706 60.7066 28.7193V99.2048C60.7066 100.107 60.1056 100.846 59.3709 100.846ZM9.21628 97.5636H58.0353V31.0989L9.21628 54.8949V97.5636Z" fill="#B79347"/>
<path fill-rule="evenodd" clip-rule="evenodd" d="M50.2883 91.5736H16.9631C16.2285 91.5736 15.6274 90.753 15.6274 89.9324V56.7001C15.6274 56.0437 16.0281 55.3872 16.5624 55.141L50.4218 42.1763C51.29 41.8481 52.1582 42.6687 52.1582 43.8174L51.6239 89.9324C51.5571 90.8351 51.0229 91.5736 50.2883 91.5736ZM18.2988 88.2913H48.9526L49.4201 46.0329L18.2988 57.9309V88.2913Z" fill="#B79347"/>
<path fill-rule="evenodd" clip-rule="evenodd" d="M39.3357 91.5738C38.6011 91.5738 38 90.7533 38 89.9327V48.1666C38 46.0332 40.6714 46.0332 40.6714 48.1666V89.9327C40.6714 90.8353 40.0703 91.5738 39.3357 91.5738Z" fill="#B79347"/>
<path fill-rule="evenodd" clip-rule="evenodd" d="M27.9155 91.5736C27.1809 91.5736 26.5798 90.7531 26.5798 89.9325V52.5154C26.5798 50.3819 29.2512 50.3819 29.2512 52.5154V89.9325C29.2512 90.8351 28.6501 91.5736 27.9155 91.5736Z" fill="#B79347"/>
<path fill-rule="evenodd" clip-rule="evenodd" d="M94.3656 100.846H71.0581C70.3235 100.846 69.7224 100.107 69.7224 99.2049V68.1059C69.7224 67.2033 70.3235 66.4648 71.0581 66.4648H94.3656C95.1003 66.4648 95.7013 67.2033 95.7013 68.1059V99.2049C95.7013 100.107 95.1003 100.846 94.3656 100.846ZM72.3938 97.5638H93.03V69.7471H72.3938V97.5638Z" fill="#B79347"/>
<path fill-rule="evenodd" clip-rule="evenodd" d="M112.664 107H1.33568C0.601054 107 0 106.261 0 105.359V99.2047C0 98.3021 0.601054 97.5636 1.33568 97.5636H112.664C113.399 97.5636 114 98.3021 114 99.2047V105.359C114 106.261 113.399 107 112.664 107ZM2.67135 103.718H111.329V100.846H2.67135V103.718Z" fill="#B79347"/>
<path fill-rule="evenodd" clip-rule="evenodd" d="M107.522 100.846H59.3708C58.6362 100.846 58.0352 100.107 58.0352 99.2047V1.6411C58.0352 0.738497 58.6362 0 59.3708 0H107.522C108.257 0 108.858 0.738497 108.858 1.6411V99.2047C108.858 100.107 108.257 100.846 107.522 100.846ZM60.7065 97.5636H106.186V3.28221H60.7065V97.5636Z" fill="#B79347"/>
<path fill-rule="evenodd" clip-rule="evenodd" d="M73.7962 23.55H65.3147C64.5801 23.55 63.979 22.8115 63.979 21.9089V10.9956C63.979 10.093 64.5801 9.35449 65.3147 9.35449H73.7962C74.5308 9.35449 75.1319 10.093 75.1319 10.9956V21.9089C75.1319 22.8115 74.5308 23.55 73.7962 23.55ZM66.6504 20.2678H72.4606V12.6367H66.6504V20.2678Z" fill="#B79347"/>
<path fill-rule="evenodd" clip-rule="evenodd" d="M87.6871 23.55H79.2055C78.4709 23.55 77.8699 22.8115 77.8699 21.9089V10.9956C77.8699 10.093 78.4709 9.35449 79.2055 9.35449H87.6871C88.4217 9.35449 89.0228 10.093 89.0228 10.9956V21.9089C89.0228 22.8115 88.4217 23.55 87.6871 23.55ZM80.5412 20.2678H86.3514V12.6367H80.5412V20.2678Z" fill="#B79347"/>
<path fill-rule="evenodd" clip-rule="evenodd" d="M101.578 23.55H93.0967C92.362 23.55 91.761 22.8115 91.761 21.9089V10.9956C91.761 10.093 92.362 9.35449 93.0967 9.35449H101.578C102.313 9.35449 102.914 10.093 102.914 10.9956V21.9089C102.914 22.8115 102.313 23.55 101.578 23.55ZM94.4991 20.2678H100.243V12.6367H94.4991V20.2678Z" fill="#B79347"/>
<path fill-rule="evenodd" clip-rule="evenodd" d="M73.7962 41.9301H65.3147C64.5801 41.9301 63.979 41.1916 63.979 40.289V29.4578C63.979 28.5551 64.5801 27.8167 65.3147 27.8167H73.7962C74.5308 27.8167 75.1319 28.5551 75.1319 29.4578V40.289C75.1319 41.1916 74.5308 41.9301 73.7962 41.9301ZM66.6504 38.6479H72.4606V31.0989H66.6504V38.6479Z" fill="#B79347"/>
<path fill-rule="evenodd" clip-rule="evenodd" d="M87.6871 41.9301H79.2055C78.4709 41.9301 77.8699 41.1916 77.8699 40.289V29.4578C77.8699 28.5551 78.4709 27.8167 79.2055 27.8167H87.6871C88.4217 27.8167 89.0228 28.5551 89.0228 29.4578V40.289C89.0228 41.1916 88.4217 41.9301 87.6871 41.9301ZM80.5412 38.6479H86.3514V31.0989H80.5412V38.6479Z" fill="#B79347"/>
<path fill-rule="evenodd" clip-rule="evenodd" d="M101.578 41.9301H93.0967C92.362 41.9301 91.761 41.1916 91.761 40.289V29.4578C91.761 28.5551 92.362 27.8167 93.0967 27.8167H101.578C102.313 27.8167 102.914 28.5551 102.914 29.4578V40.289C102.914 41.1916 102.313 41.9301 101.578 41.9301ZM94.4991 38.6479H100.243V31.0989H94.4991V38.6479Z" fill="#B79347"/>
<path fill-rule="evenodd" clip-rule="evenodd" d="M73.7962 60.3924H65.3147C64.5801 60.3924 63.979 59.654 63.979 58.7513V47.838C63.979 46.9354 64.5801 46.1969 65.3147 46.1969H73.7962C74.5308 46.1969 75.1319 46.9354 75.1319 47.838V58.7513C75.1319 59.654 74.5308 60.3924 73.7962 60.3924ZM66.6504 57.1102H72.4606V49.4791H66.6504V57.1102Z" fill="#B79347"/>
<path fill-rule="evenodd" clip-rule="evenodd" d="M87.6871 60.3924H79.2055C78.4709 60.3924 77.8699 59.654 77.8699 58.7513V47.838C77.8699 46.9354 78.4709 46.1969 79.2055 46.1969H87.6871C88.4217 46.1969 89.0228 46.9354 89.0228 47.838V58.7513C89.0228 59.654 88.4217 60.3924 87.6871 60.3924ZM80.5412 57.1102H86.3514V49.4791H80.5412V57.1102Z" fill="#B79347"/>
<path fill-rule="evenodd" clip-rule="evenodd" d="M101.578 60.3924H93.0967C92.362 60.3924 91.761 59.654 91.761 58.7513V47.838C91.761 46.9354 92.362 46.1969 93.0967 46.1969H101.578C102.313 46.1969 102.914 46.9354 102.914 47.838V58.7513C102.914 59.654 102.313 60.3924 101.578 60.3924ZM94.4991 57.1102H100.243V49.4791H94.4991V57.1102Z" fill="#B79347"/>
<path fill-rule="evenodd" clip-rule="evenodd" d="M82.6784 85.2554H75.5325C73.7961 85.2554 73.7961 81.9731 75.5325 81.9731H82.6784C84.4148 81.9731 84.4148 85.2554 82.6784 85.2554Z" fill="#B79347"/>
</svg>
