<svg width="11" height="11" viewBox="0 0 11 11" fill="none" xmlns="http://www.w3.org/2000/svg">
<path d="M10.0332 4.5332H6.4668V0.966797C6.4668 0.432846 6.03395 0 5.5 0C4.96605 0 4.5332 0.432846 4.5332 0.966797V4.5332H0.966797C0.432846 4.5332 0 4.96605 0 5.5C0 6.03395 0.432846 6.4668 0.966797 6.4668H4.5332V10.0332C4.5332 10.5672 4.96605 11 5.5 11C6.03395 11 6.4668 10.5672 6.4668 10.0332V6.4668H10.0332C10.5672 6.4668 11 6.03395 11 5.5C11 4.96605 10.5672 4.5332 10.0332 4.5332Z" fill="#B79347"/>
</svg>
