<svg width="15" height="16" viewBox="0 0 15 16" fill="none" xmlns="http://www.w3.org/2000/svg">
<path d="M11.2371 6.92627V3.89832C11.2371 3.81165 11.1959 3.73157 11.1375 3.66821L7.63919 0.103394C7.5739 0.0367432 7.48106 0 7.38835 0H1.84187C0.817909 0 0 0.810303 0 1.80408V11.9817C0 12.9755 0.817909 13.7725 1.84187 13.7725H6.21999C7.04808 15.1063 8.55333 16 10.268 16C12.8728 16 15 13.9458 15 11.4148C15.0035 9.20386 13.3677 7.35645 11.2371 6.92627ZM7.73202 1.17053L10.0791 3.56812H8.55672C8.10311 3.56812 7.73202 3.20471 7.73202 2.76453V1.17053ZM1.84187 13.1055C1.19932 13.1055 0.687336 12.6052 0.687336 11.9817V1.80408C0.687336 1.17712 1.19932 0.666992 1.84187 0.666992H7.04469V2.76453C7.04469 3.57483 7.72171 4.23511 8.55672 4.23511H10.5498V6.83948C10.4468 6.83618 10.3643 6.82617 10.2749 6.82617C9.07562 6.82617 7.97254 7.27307 7.14092 7.97339H2.77664C2.58757 7.97339 2.43297 8.12341 2.43297 8.30676C2.43297 8.49023 2.58757 8.64026 2.77664 8.64026H6.50176C6.25772 8.97375 6.05494 9.30725 5.89695 9.67407H2.77664C2.58757 9.67407 2.43297 9.8241 2.43297 10.0076C2.43297 10.1909 2.58757 10.3411 2.77664 10.3411H5.67354C5.58762 10.6746 5.54296 11.0447 5.54296 11.4148C5.54296 12.015 5.66322 12.6086 5.87971 13.1089H1.84187V13.1055ZM10.2715 15.3364C8.04475 15.3364 6.2337 13.579 6.2337 11.4181C6.2337 9.2572 8.04122 7.49976 10.2715 7.49976C12.5017 7.49976 14.3093 9.2572 14.3093 11.4181C14.3093 13.579 12.4983 15.3364 10.2715 15.3364Z" fill="#636363"/>
<path d="M2.77726 6.9696H6.25835C6.44741 6.9696 6.60201 6.81946 6.60201 6.63611C6.60201 6.45264 6.44741 6.30261 6.25835 6.30261H2.77726C2.58819 6.30261 2.43359 6.45264 2.43359 6.63611C2.43359 6.81946 2.58819 6.9696 2.77726 6.9696Z" fill="#636363"/>
<path d="M12.0308 11.348L10.6185 12.8253V9.18384C10.6185 9.00037 10.4638 8.85034 10.2749 8.85034C10.0858 8.85034 9.9312 9.00037 9.9312 9.18384V12.8253L8.50847 11.348C8.3779 11.2147 8.15801 11.2047 8.02052 11.3314C7.88303 11.4581 7.87271 11.6682 8.00341 11.8016L10.0137 13.8992C10.079 13.9658 10.1683 14.0059 10.2646 14.0059C10.3608 14.0059 10.4501 13.9658 10.5154 13.8992L12.5292 11.8016C12.6598 11.6682 12.6529 11.4548 12.5154 11.3314C12.3745 11.2047 12.1615 11.2147 12.0308 11.348Z" fill="#636363"/>
</svg>
