<svg width="11" height="11" viewBox="0 0 11 11" fill="none" xmlns="http://www.w3.org/2000/svg">
<path d="M11 1.83333V1.375C11 1.01033 10.8551 0.660591 10.5973 0.402728C10.3394 0.144866 9.98967 0 9.625 0C9.26033 0 8.91059 0.144866 8.65273 0.402728C8.39487 0.660591 8.25 1.01033 8.25 1.375V2.75H5.95833V1.375C5.95833 1.25344 6.00662 1.13686 6.09258 1.05091C6.17853 0.964955 6.29511 0.916667 6.41667 0.916667C6.53822 0.916667 6.6548 0.964955 6.74076 1.05091C6.82671 1.13686 6.875 1.25344 6.875 1.375V1.83333H7.79167V1.375C7.79167 1.01033 7.6468 0.660591 7.38894 0.402728C7.13108 0.144866 6.78134 2.8976e-08 6.41667 2.8976e-08C6.05199 2.8976e-08 5.70226 0.144866 5.44439 0.402728C5.18653 0.660591 5.04167 1.01033 5.04167 1.375V6.48542C4.83148 6.43656 4.61612 6.41347 4.40034 6.41667C3.30034 6.41667 3.30034 6.875 2.20034 6.875C1.10034 6.875 1.1 6.41667 0 6.41667V8.25C1.1 8.25 1.1 8.70833 2.2 8.70833C3.3 8.70833 3.3 8.25 4.4 8.25C5.5 8.25 5.5 8.70833 6.6 8.70833C7.7 8.70833 7.7 8.25 8.8 8.25C9.9 8.25 9.9 8.70833 11 8.70833V6.875C10.0381 6.875 9.91719 6.52455 9.16667 6.43655V1.375C9.16667 1.25344 9.21496 1.13686 9.30091 1.05091C9.38686 0.964955 9.50344 0.916667 9.625 0.916667C9.74656 0.916667 9.86314 0.964955 9.94909 1.05091C10.035 1.13686 10.0833 1.25344 10.0833 1.375V1.83333H11ZM8.25 3.66667V4.58333H5.95833V3.66667H8.25ZM5.95833 6.80625V5.5H8.25V6.46554C7.65566 6.5835 7.47771 6.875 6.6 6.875C6.38411 6.87822 6.16864 6.85514 5.95833 6.80625Z" fill="#B79347"/>
<path d="M6.6 9.16659C5.5 9.16659 5.5 8.70825 4.4 8.70825C3.3 8.70825 3.3 9.16659 2.2 9.16659C1.1 9.16659 1.1 8.70825 0 8.70825V10.9999H11V9.16659C9.9 9.16659 9.9 8.70825 8.8 8.70825C7.7 8.70825 7.7 9.16659 6.6 9.16659Z" fill="#B79347"/>
</svg>
