<svg width="388" height="275" viewBox="0 0 388 275" fill="none" xmlns="http://www.w3.org/2000/svg">
<g opacity="0.06">
<path d="M155.875 -0.0665665C165.578 -4.13559 169.647 -15.7167 165.265 -25.1067L149.928 -57.346C145.546 -66.4199 134.904 -70.4921 125.514 -66.4199C98.9087 -55.1518 76.0595 -40.4407 57.9054 -22.5996C35.6822 -1.63158 20.6581 22.4696 12.5201 49.0748C4.38203 75.9961 0 112.614 0 159.252V255.343C0 265.672 8.45106 274.123 18.7801 274.123H141.79C152.119 274.123 160.57 265.672 160.57 255.343V132.333C160.57 122.001 152.119 113.553 141.79 113.553H82.9456C83.5716 81.9369 91.0836 56.5868 104.856 37.4906C116.124 22.1597 133.026 9.63963 155.875 -0.0665665Z" fill="#B79347"/>
<path d="M376.851 -0.0626068C386.554 -4.13164 390.62 -15.7127 386.241 -25.1028L370.904 -57.0259C366.522 -66.1029 355.88 -70.172 346.49 -66.1029C320.198 -54.8349 297.658 -40.1238 279.194 -22.5956C256.968 -1.31149 241.634 22.7897 233.493 49.3949C225.355 75.6839 221.289 112.308 221.289 159.259V255.35C221.289 265.679 229.74 274.13 240.069 274.13H363.079C373.408 274.13 381.859 265.679 381.859 255.35V132.34C381.859 122.008 373.408 113.56 363.079 113.56H303.921C304.547 81.944 312.063 56.5939 325.832 37.4977C337.1 22.1637 354.002 9.64359 376.851 -0.0626068Z" fill="#B79347"/>
</g>
</svg>
