<svg width="25" height="23" viewBox="0 0 25 23" fill="none" xmlns="http://www.w3.org/2000/svg">
<g opacity="0.3">
<path d="M10.0435 4.37716C10.6687 4.11498 10.9309 3.36877 10.6485 2.76374L9.66032 0.686472C9.37797 0.101811 8.69227 -0.160571 8.08724 0.101811C6.37298 0.827847 4.90074 1.77573 3.73102 2.92528C2.29911 4.27632 1.33107 5.82923 0.806707 7.54348C0.282347 9.2781 0 11.6375 0 14.6425V20.834C0 21.4995 0.544527 22.044 1.21006 22.044H9.13596C9.80149 22.044 10.346 21.4995 10.346 20.834V12.9081C10.346 12.2423 9.80149 11.698 9.13596 11.698H5.34443C5.38477 9.66088 5.86879 8.0275 6.75617 6.79707C7.48221 5.80926 8.57126 5.00256 10.0435 4.37716Z" fill="#B79347"/>
<path d="M24.2816 4.37741C24.9068 4.11523 25.1688 3.36902 24.8867 2.76399L23.8984 0.707091C23.6161 0.122228 22.9304 -0.139951 22.3254 0.122228C20.6313 0.848265 19.179 1.79615 17.9893 2.92553C16.5572 4.29694 15.5692 5.84985 15.0446 7.5641C14.5203 9.25798 14.2583 11.6178 14.2583 14.643V20.8344C14.2583 21.5 14.8028 22.0445 15.4684 22.0445H23.3943C24.0598 22.0445 24.6043 21.5 24.6043 20.8344V12.9085C24.6043 12.2428 24.0598 11.6985 23.3943 11.6985H19.5826C19.6229 9.66134 20.1071 8.02796 20.9943 6.79753C21.7203 5.80951 22.8094 5.0028 24.2816 4.37741Z" fill="#B79347"/>
</g>
</svg>
