<svg width="69" height="75" viewBox="0 0 69 75" fill="none" xmlns="http://www.w3.org/2000/svg">
<path d="M67.3998 39.045C63.8932 35.6509 59.8392 38.8276 59.8392 38.8276V20.9599C59.8392 20.3599 59.3391 19.8731 58.722 19.8731C58.1042 19.8731 57.6041 20.3599 57.6041 20.9599V40.3566C57.6041 40.3566 52.274 44.4418 49.983 45.4403V13.2689C49.983 11.7734 51.2341 10.5569 52.7723 10.5569H54.8147C56.3529 10.5569 57.6041 11.7734 57.6041 13.2689V16.5107C57.6041 17.1113 58.1042 17.5975 58.722 17.5975C59.3391 17.5975 59.8392 17.1113 59.8392 16.5107V13.2689C59.8392 10.575 57.5855 8.38379 54.8147 8.38379H52.7723C50.0016 8.38379 47.7473 10.575 47.7473 13.2689V46.3019C47.0806 46.4836 46.3965 46.607 45.7014 46.6721V23.7597C45.7014 21.0522 43.436 18.8497 40.6518 18.8497H38.6589C35.8748 18.8497 33.6094 21.0522 33.6094 23.7597V34.8329L31.5629 35.8892V32.2042C31.5629 29.7667 29.5234 27.7838 27.017 27.7838H24.0174C21.5104 27.7838 19.4715 29.7667 19.4715 32.2042V42.1295L15.8216 44.0127L5.57237 46.8606C3.78906 47.3559 2.29976 48.4914 1.37986 50.0571C0.459384 51.6234 0.209615 53.4473 0.676549 55.1924L1.82293 59.4809C1.97779 60.0617 2.58795 60.4098 3.18588 60.2592C3.78323 60.1081 4.14188 59.5149 3.98643 58.9335L2.84005 54.6456C2.17516 52.1583 3.64525 49.6564 6.18719 48.9505L15.5579 46.3466L22.6009 64.6224C23.0725 65.8462 22.998 69.3377 19.2724 70.6244L12.191 72.1884C9.72297 72.7329 7.29106 71.2946 6.65412 68.9126L5.21664 63.5345C5.06119 62.9537 4.45103 62.605 3.85368 62.7556C3.25575 62.9067 2.89769 63.4999 3.05256 64.0813L4.49062 69.46C5.29873 72.4816 8.05958 74.4781 11.1331 74.4781C13.3915 74.4781 19.7679 72.7437 19.7679 72.7437C21.7084 72.3157 23.363 71.0931 24.3068 69.3903C25.0858 67.9854 25.3169 66.3687 24.9827 64.8285L49.4822 58.9969C51.5083 58.5141 53.432 57.5784 55.0435 56.2906L66.9661 46.7661C70.6008 43.6318 68.4688 40.0792 67.3998 39.045ZM38.6589 21.0233H40.6518C42.2034 21.0233 43.4657 22.2511 43.4657 23.7597V46.7264L36.4122 46.7236C35.7642 46.7179 36.2125 46.3019 36.248 46.2736L38.2793 44.6739C40.1744 43.1812 41.4122 41.106 41.9577 38.505C42.3042 36.8549 41.6567 35.2031 40.2693 34.1944C38.9733 33.2525 37.3064 33.0714 35.8451 33.694V23.7597C35.8451 22.2511 37.1073 21.0233 38.6589 21.0233ZM21.7072 32.2042C21.7072 30.9656 22.7436 29.9575 24.0174 29.9575H27.017C28.2909 29.9575 29.3278 30.9656 29.3278 32.2042V37.0428L21.7066 40.9758V32.2042H21.7072ZM65.5472 45.0871L53.6241 54.6117C52.2699 55.694 50.6537 56.4802 48.9507 56.8855L24.2707 62.7607L17.6335 45.5394L36.5845 35.759C37.3548 35.3611 38.2322 35.4273 38.9302 35.9351C39.6283 36.4428 39.9415 37.241 39.7675 38.0708C39.3279 40.1647 38.3538 41.8181 36.8721 42.9848L34.8408 44.585C34.0082 45.2405 33.7014 46.2985 34.0589 47.2806C34.4163 48.2622 35.3397 48.8973 36.411 48.8973L44.5556 48.9007H44.5614C47.4608 48.9007 50.2473 48.0437 52.6192 46.4219L61.7215 40.1986C62.996 39.3269 64.7118 39.4809 65.8005 40.5643C66.4275 41.187 67.6548 43.0374 65.5472 45.0871Z" fill="white"/>
<path d="M18.3199 65.3194C18.3199 62.9583 16.3445 61.0371 13.9161 61.0371C11.4877 61.0371 9.51221 62.9583 9.51221 65.3194C9.51221 67.6798 11.4877 69.601 13.9161 69.601C16.3445 69.601 18.3199 67.6798 18.3199 65.3194ZM11.7479 65.3194C11.7479 64.1567 12.7202 63.2108 13.9161 63.2108C15.1113 63.2108 16.0842 64.1567 16.0842 65.3194C16.0842 66.4815 15.1119 67.4274 13.9161 67.4274C12.7202 67.4274 11.7479 66.4815 11.7479 65.3194Z" fill="white"/>
<path d="M5.8776 34.408L22.1271 18.4875L25.7823 20.3255C27.0917 20.9839 28.6852 20.7586 29.7471 19.7646L38.5921 11.4865C38.5921 11.4865 38.3488 15.7382 42.0312 15.7382C43.9269 15.7382 45.4698 14.2381 45.4698 12.3945V3.62733C45.4698 3.61714 45.4692 3.60639 45.4692 3.59563C45.457 1.30818 43.7365 0.28418 42.0312 0.28418H33.0925C31.1963 0.28418 29.654 1.78424 29.654 3.62733C29.654 7.30219 33.5007 6.97048 33.5007 6.97048L26.7528 13.2854L23.0447 11.4208C21.7039 10.7461 20.0882 10.9935 19.024 12.035L0.996336 29.6978C-0.339259 31.0065 -0.331108 33.1276 1.01497 34.4261C1.66355 35.0516 3.87829 36.3518 5.8776 34.408ZM2.58286 31.229L20.6105 13.5662C20.8434 13.3387 21.2172 12.9402 22.0177 13.3517L26.4373 15.574C26.8629 15.788 27.381 15.715 27.7263 15.3918L37.0487 6.66707C37.377 6.3597 37.4807 5.88874 37.3101 5.47778C37.1395 5.06626 36.7296 4.79738 36.2732 4.79738H33.0925C32.4294 4.79738 31.8897 4.27264 31.8897 3.62733C31.8897 2.98259 32.4294 2.45785 33.0925 2.45785H42.0312C42.3602 2.45785 43.2335 2.45785 43.2335 3.62054C43.2335 3.63016 43.2341 3.63978 43.2341 3.64997V12.3945C43.2341 13.0392 42.6944 13.564 42.0312 13.564C41.3675 13.564 40.8278 13.0392 40.8278 12.3945V8.93188C40.8278 8.49601 40.56 8.10204 40.1478 7.93165C39.7356 7.7607 39.2582 7.84674 38.935 8.14902L28.1967 18.1989C27.8253 18.5464 27.2675 18.6257 26.8099 18.3953L22.4258 16.1905C21.9921 15.9725 21.4628 16.0535 21.1188 16.3903L4.29108 32.8768C3.55749 33.59 2.81633 33.1021 2.58927 32.883C2.11884 32.4285 2.11593 31.6864 2.58286 31.229Z" fill="white"/>
</svg>
