<svg width="17" height="20" viewBox="0 0 17 20" fill="none" xmlns="http://www.w3.org/2000/svg">
<path d="M13.803 13.4529C12.8672 13.4529 12.024 13.8667 11.4388 14.525L6.17541 11.187C6.31593 10.8186 6.39387 10.4185 6.39387 10C6.39387 9.5813 6.31593 9.18121 6.17541 8.81302L11.4388 5.47485C12.024 6.13312 12.8672 6.54709 13.803 6.54709C15.5659 6.54709 17 5.07858 17 3.27347C17 1.46835 15.5659 0 13.803 0C12.0401 0 10.606 1.46851 10.606 3.27362C10.606 3.69217 10.6841 4.09225 10.8244 4.4606L5.56116 7.79861C4.97597 7.14035 4.13284 6.72638 3.19701 6.72638C1.43414 6.72638 0 8.19504 0 10C0 11.8051 1.43414 13.2736 3.19701 13.2736C4.13284 13.2736 4.97597 12.8598 5.56116 12.2014L10.8244 15.5394C10.6841 15.9077 10.606 16.3078 10.606 16.7265C10.606 18.5315 12.0401 20 13.803 20C15.5659 20 17 18.5315 17 16.7265C17 14.9214 15.5659 13.4529 13.803 13.4529ZM11.7717 3.27362C11.7717 2.12677 12.683 1.1937 13.803 1.1937C14.923 1.1937 15.8342 2.12677 15.8342 3.27362C15.8342 4.42047 14.923 5.35355 13.803 5.35355C12.683 5.35355 11.7717 4.42047 11.7717 3.27362ZM3.19701 12.0799C2.07685 12.0799 1.16561 11.1469 1.16561 10C1.16561 8.85315 2.07685 7.92007 3.19701 7.92007C4.31702 7.92007 5.22811 8.85315 5.22811 10C5.22811 11.1469 4.31702 12.0799 3.19701 12.0799ZM11.7717 16.7264C11.7717 15.5795 12.683 14.6465 13.803 14.6465C14.923 14.6465 15.8342 15.5795 15.8342 16.7264C15.8342 17.8732 14.923 18.8063 13.803 18.8063C12.683 18.8063 11.7717 17.8732 11.7717 16.7264Z" fill="#636363"/>
</svg>
