<svg width="79" height="79" viewBox="0 0 79 79" fill="none" xmlns="http://www.w3.org/2000/svg">
<path d="M77.2391 61.5851C77.5643 61.5851 77.8761 61.4559 78.106 61.226C78.336 60.996 78.4651 60.6842 78.4651 60.359V38.2907C78.4628 34.7147 77.0413 31.2857 74.5126 28.7571C71.9839 26.2284 68.555 24.8068 64.9789 24.8045H63.3361L46.5641 8.03261C46.5764 7.89775 46.5887 7.77515 46.5887 7.64028C46.5887 5.68932 45.8136 3.81827 44.4341 2.43873C43.0546 1.0592 41.1835 0.28418 39.2326 0.28418C37.2816 0.28418 35.4105 1.0592 34.031 2.43873C32.6515 3.81827 31.8765 5.68932 31.8765 7.64028C31.8765 7.77515 31.8887 7.89775 31.901 8.03261L15.1291 24.8045H13.4862C9.91013 24.8068 6.48118 26.2284 3.95253 28.7571C1.42387 31.2857 0.00227351 34.7147 0 38.2907L0 65.2631C0.00227351 68.8392 1.42387 72.2681 3.95253 74.7968C6.48118 77.3254 9.91013 78.747 13.4862 78.7493H64.9789C68.555 78.747 71.9839 77.3254 74.5126 74.7968C77.0413 72.2681 78.4628 68.8392 78.4651 65.2631C78.4651 64.9379 78.336 64.6261 78.106 64.3962C77.8761 64.1663 77.5643 64.0371 77.2391 64.0371C76.9139 64.0371 76.6021 64.1663 76.3722 64.3962C76.1423 64.6261 76.0131 64.9379 76.0131 65.2631C76.0085 68.1881 74.8446 70.9921 72.7762 73.0604C70.7079 75.1287 67.904 76.2927 64.9789 76.2973H13.4862C10.5611 76.2927 7.7572 75.1287 5.68888 73.0604C3.62056 70.9921 2.45657 68.1881 2.45203 65.2631V38.2907C2.45657 35.3657 3.62056 32.5617 5.68888 30.4934C7.7572 28.4251 10.5611 27.2611 13.4862 27.2566H64.9789C67.904 27.2611 70.7079 28.4251 72.7762 30.4934C74.8446 32.5617 76.0085 35.3657 76.0131 38.2907V60.359C76.0131 60.6842 76.1423 60.996 76.3722 61.226C76.6021 61.4559 76.9139 61.5851 77.2391 61.5851ZM39.2326 2.73621C40.2025 2.73621 41.1506 3.02383 41.9571 3.5627C42.7636 4.10157 43.3922 4.86748 43.7633 5.76358C44.1345 6.65968 44.2316 7.64572 44.0424 8.59702C43.8532 9.54832 43.3861 10.4221 42.7003 11.108C42.0144 11.7938 41.1406 12.2609 40.1893 12.4501C39.238 12.6393 38.252 12.5422 37.3559 12.1711C36.4598 11.7999 35.6938 11.1713 35.155 10.3648C34.6161 9.55837 34.3285 8.61022 34.3285 7.64028C34.3285 6.33964 34.8452 5.09228 35.7649 4.17258C36.6846 3.25289 37.9319 2.73621 39.2326 2.73621ZM18.5864 24.8045L32.5998 10.8034C32.9592 11.5582 33.4442 12.2464 34.0342 12.8386L22.0683 24.8045H18.5864ZM25.5257 24.8045L36.0694 14.273C37.0559 14.7491 38.1372 14.9964 39.2326 14.9964C40.3279 14.9964 41.4092 14.7491 42.3957 14.273L52.9394 24.8045H25.5257ZM56.3968 24.8045L44.4309 12.8386C45.0209 12.2464 45.506 11.5582 45.8653 10.8034L59.8787 24.8045H56.3968Z" fill="white"/>
<path d="M8.58246 41.9683C8.2573 41.9683 7.94546 42.0975 7.71554 42.3274C7.48561 42.5573 7.35645 42.8692 7.35645 43.1943V65.2626C7.35839 66.8878 8.00486 68.4459 9.15406 69.5951C10.3032 70.7443 11.8613 71.3908 13.4865 71.3927H64.9793C66.6045 71.3908 68.1625 70.7443 69.3117 69.5951C70.4609 68.4459 71.1074 66.8878 71.1094 65.2626V38.2902C71.1074 36.665 70.4609 35.107 69.3117 33.9578C68.1625 32.8086 66.6045 32.1621 64.9793 32.1602H13.4865C11.8613 32.1621 10.3032 32.8086 9.15406 33.9578C8.00486 35.107 7.35839 36.665 7.35645 38.2902C7.35645 38.6154 7.48561 38.9272 7.71554 39.1572C7.94546 39.3871 8.2573 39.5163 8.58246 39.5163C8.90762 39.5163 9.21946 39.3871 9.44939 39.1572C9.67931 38.9272 9.80848 38.6154 9.80848 38.2902C9.80848 37.3148 10.196 36.3792 10.8858 35.6895C11.5755 34.9997 12.5111 34.6122 13.4865 34.6122H64.9793C65.9547 34.6122 66.8903 34.9997 67.58 35.6895C68.2698 36.3792 68.6573 37.3148 68.6573 38.2902V65.2626C68.6573 66.2381 68.2698 67.1736 67.58 67.8634C66.8903 68.5532 65.9547 68.9407 64.9793 68.9407H13.4865C12.5111 68.9407 11.5755 68.5532 10.8858 67.8634C10.196 67.1736 9.80848 66.2381 9.80848 65.2626V43.1943C9.80848 42.8692 9.67931 42.5573 9.44939 42.3274C9.21946 42.0975 8.90762 41.9683 8.58246 41.9683Z" fill="white"/>
<path d="M23.2943 48.0992H20.8422C20.5171 48.0992 20.2052 48.2283 19.9753 48.4582C19.7454 48.6882 19.6162 49 19.6162 49.3252C19.6162 49.6503 19.7454 49.9622 19.9753 50.1921C20.2052 50.422 20.5171 50.5512 20.8422 50.5512H23.2943C24.2697 50.5512 25.2053 50.1637 25.895 49.4739C26.5848 48.7841 26.9723 47.8486 26.9723 46.8731C26.9723 45.8977 26.5848 44.9621 25.895 44.2724C25.2053 43.5826 24.2697 43.1951 23.2943 43.1951C22.9691 43.1951 22.6573 43.0659 22.4273 42.836C22.1974 42.6061 22.0682 42.2942 22.0682 41.9691C22.0682 41.6439 22.1974 41.3321 22.4273 41.1021C22.6573 40.8722 22.9691 40.7431 23.2943 40.7431H25.7463C26.0715 40.7431 26.3833 40.6139 26.6132 40.384C26.8431 40.154 26.9723 39.8422 26.9723 39.517C26.9723 39.1919 26.8431 38.88 26.6132 38.6501C26.3833 38.4202 26.0715 38.291 25.7463 38.291H23.2943C22.3188 38.291 21.3833 38.6785 20.6935 39.3683C20.0037 40.0581 19.6162 40.9936 19.6162 41.9691C19.6162 42.9445 20.0037 43.8801 20.6935 44.5698C21.3833 45.2596 22.3188 45.6471 23.2943 45.6471C23.6194 45.6471 23.9313 45.7763 24.1612 46.0062C24.3911 46.2361 24.5203 46.548 24.5203 46.8731C24.5203 47.1983 24.3911 47.5101 24.1612 47.7401C23.9313 47.97 23.6194 48.0992 23.2943 48.0992Z" fill="white"/>
<path d="M53.9447 38.291H51.4926C51.1675 38.291 50.8556 38.4202 50.6257 38.6501C50.3958 38.88 50.2666 39.1919 50.2666 39.517V49.3252C50.2666 49.6503 50.3958 49.9622 50.6257 50.1921C50.8556 50.422 51.1675 50.5512 51.4926 50.5512H53.9447C54.9192 50.5483 55.8531 50.1598 56.5422 49.4707C57.2314 48.7816 57.6198 47.8477 57.6227 46.8731V41.9691C57.6198 40.9945 57.2314 40.0606 56.5422 39.3715C55.8531 38.6824 54.9192 38.2939 53.9447 38.291ZM55.1707 46.8731C55.1707 47.1983 55.0415 47.5101 54.8116 47.7401C54.5817 47.97 54.2698 48.0992 53.9447 48.0992H52.7186V40.7431H53.9447C54.2698 40.7431 54.5817 40.8722 54.8116 41.1021C55.0415 41.3321 55.1707 41.6439 55.1707 41.9691V46.8731Z" fill="white"/>
<path d="M42.9106 38.291C42.5854 38.291 42.2736 38.4202 42.0437 38.6501C41.8137 38.88 41.6846 39.1919 41.6846 39.517V46.8731C41.6846 47.8486 42.0721 48.7841 42.7618 49.4739C43.4516 50.1637 44.3871 50.5512 45.3626 50.5512H47.8147C48.1398 50.5512 48.4517 50.422 48.6816 50.1921C48.9115 49.9622 49.0407 49.6503 49.0407 49.3252C49.0407 49 48.9115 48.6882 48.6816 48.4582C48.4517 48.2283 48.1398 48.0992 47.8147 48.0992H45.3626C45.0375 48.0992 44.7256 47.97 44.4957 47.7401C44.2658 47.5101 44.1366 47.1983 44.1366 46.8731V39.517C44.1366 39.1919 44.0074 38.88 43.7775 38.6501C43.5476 38.4202 43.2357 38.291 42.9106 38.291Z" fill="white"/>
<path d="M34.3289 38.291C31.6194 38.291 29.4248 41.0373 29.4248 44.4211C29.4248 47.8049 31.6194 50.5512 34.3289 50.5512C37.0384 50.5512 39.2329 47.8049 39.2329 44.4211C39.2329 41.0373 37.0384 38.291 34.3289 38.291ZM34.3289 48.0992C33.0048 48.0992 31.8768 46.4195 31.8768 44.4211C31.8768 42.4227 33.0048 40.7431 34.3289 40.7431C35.653 40.7431 36.7809 42.4227 36.7809 44.4211C36.7809 46.4195 35.653 48.0992 34.3289 48.0992Z" fill="white"/>
<path d="M26.9724 53.0029C24.2629 53.0029 22.0684 55.7492 22.0684 59.133C22.0684 62.5168 24.2629 65.2631 26.9724 65.2631C29.6819 65.2631 31.8765 62.5168 31.8765 59.133C31.8765 55.7492 29.6819 53.0029 26.9724 53.0029ZM26.9724 62.8111C25.6483 62.8111 24.5204 61.1314 24.5204 59.133C24.5204 57.1346 25.6483 55.455 26.9724 55.455C28.2965 55.455 29.4245 57.1346 29.4245 59.133C29.4245 61.1314 28.2965 62.8111 26.9724 62.8111Z" fill="white"/>
<path d="M41.6842 60.3586C41.6842 61.0089 41.4259 61.6326 40.966 62.0925C40.5062 62.5523 39.8825 62.8106 39.2322 62.8106C38.5819 62.8106 37.9582 62.5523 37.4983 62.0925C37.0385 61.6326 36.7802 61.0089 36.7802 60.3586V55.4545C36.7802 55.1294 36.651 54.8175 36.4211 54.5876C36.1911 54.3577 35.8793 54.2285 35.5541 54.2285C35.229 54.2285 34.9171 54.3577 34.6872 54.5876C34.4573 54.8175 34.3281 55.1294 34.3281 55.4545V60.3586C34.3281 61.6592 34.8448 62.9066 35.7645 63.8263C36.6842 64.746 37.9316 65.2627 39.2322 65.2627C40.5328 65.2627 41.7802 64.746 42.6999 63.8263C43.6196 62.9066 44.1363 61.6592 44.1363 60.3586V55.4545C44.1363 55.1294 44.0071 54.8175 43.7772 54.5876C43.5473 54.3577 43.2354 54.2285 42.9102 54.2285C42.5851 54.2285 42.2732 54.3577 42.0433 54.5876C41.8134 54.8175 41.6842 55.1294 41.6842 55.4545V60.3586Z" fill="white"/>
<path d="M46.5889 55.4545C46.5889 55.7797 46.718 56.0915 46.948 56.3215C47.1779 56.5514 47.4897 56.6806 47.8149 56.6806H50.2669V64.0367C50.2669 64.3618 50.3961 64.6737 50.626 64.9036C50.8559 65.1335 51.1678 65.2627 51.4929 65.2627C51.8181 65.2627 52.1299 65.1335 52.3599 64.9036C52.5898 64.6737 52.719 64.3618 52.719 64.0367V56.6806H55.171C55.4962 56.6806 55.808 56.5514 56.0379 56.3215C56.2678 56.0915 56.397 55.7797 56.397 55.4545C56.397 55.1294 56.2678 54.8175 56.0379 54.5876C55.808 54.3577 55.4962 54.2285 55.171 54.2285H47.8149C47.4897 54.2285 47.1779 54.3577 46.948 54.5876C46.718 54.8175 46.5889 55.1294 46.5889 55.4545Z" fill="white"/>
</svg>
