<svg width="45" height="45" viewBox="0 0 45 45" fill="none" xmlns="http://www.w3.org/2000/svg">
<path opacity="0.5" d="M38.41 6.59013C34.1602 2.34044 28.51 0 22.5 0C16.49 0 10.8398 2.34044 6.59004 6.59013C2.34044 10.8398 0 16.49 0 22.5C0 28.51 2.34044 34.1602 6.59004 38.4099C10.8398 42.6596 16.49 45 22.5 45C28.51 45 34.1602 42.6596 38.41 38.4099C42.6596 34.1602 45 28.51 45 22.5C45 16.49 42.6596 10.8398 38.41 6.59013ZM22.5 42.3633C16.6228 42.3633 11.3346 39.7967 7.69465 35.7266C9.95124 29.7441 15.7279 25.4883 22.5 25.4883C18.1313 25.4883 14.5898 21.9468 14.5898 17.5781C14.5898 13.2094 18.1313 9.66797 22.5 9.66797C26.8687 9.66797 30.4102 13.2094 30.4102 17.5781C30.4102 21.9468 26.8687 25.4883 22.5 25.4883C29.2721 25.4883 35.0488 29.7441 37.3054 35.7266C33.6654 39.7967 28.3772 42.3633 22.5 42.3633Z" fill="#636363"/>
</svg>
