<svg width="41" height="44" viewBox="0 0 41 44" fill="none" xmlns="http://www.w3.org/2000/svg">
<path d="M38.9217 10.7589C38.5559 7.24663 37.9732 4.51196 37.0513 3.43707C33.2506 -0.982548 6.62645 -1.30598 3.60358 3.43707C2.86413 4.59911 2.34553 7.3241 1.9975 10.7647C0.874522 10.8945 0 11.8231 0 12.96V17.2624C0 18.2192 0.617194 19.0258 1.4789 19.3406C1.27481 26.1172 1.44045 33.1872 1.74609 36.7034C1.74609 39.4177 3.6026 38.9674 3.6026 38.9674H5.34277V41.8977C5.34277 43.0597 6.56237 44 8.06493 44C9.56946 44 10.7891 43.0597 10.7891 41.8977V38.9674H31.0342V41.8977C31.0342 43.0597 32.2528 44 33.7573 44C35.2599 44 36.4795 43.0597 36.4795 41.8977V38.9674H37.0513C37.0513 38.9674 39.2362 39.2618 39.3762 37.9835C39.3762 34.4771 39.601 26.7059 39.4156 19.3706C40.3315 19.0888 41 18.2599 41 17.2624V12.96C41.001 11.796 40.0841 10.8519 38.9217 10.7589ZM10.1058 4.06748H30.5491V7.10525H10.1058V4.06748ZM10.3976 35.5074C8.79255 35.5074 7.4921 34.2292 7.4921 32.6527C7.4921 31.0772 8.79255 29.7999 10.3976 29.7999C12.0027 29.7999 13.3042 31.0772 13.3042 32.6527C13.3042 34.2292 12.0037 35.5074 10.3976 35.5074ZM30.4397 35.5074C28.8356 35.5074 27.5322 34.2292 27.5322 32.6527C27.5322 31.0772 28.8346 29.7999 30.4397 29.7999C32.0448 29.7999 33.3452 31.0772 33.3452 32.6527C33.3462 34.2292 32.0448 35.5074 30.4397 35.5074ZM34.134 23.0155H6.52096V8.7902H34.134V23.0155Z" fill="#B79347"/>
</svg>
