<svg width="102" height="107" viewBox="0 0 102 107" fill="none" xmlns="http://www.w3.org/2000/svg">
<path d="M56.7369 18.7491C56.7369 17.8838 55.9402 17.1818 54.9563 17.1818H47.0438C46.0598 17.1818 45.2632 17.8838 45.2632 18.7491V31.2874C45.2632 32.1527 46.0598 32.8548 47.0438 32.8548H54.9563C55.9402 32.8548 56.7369 32.1527 56.7369 31.2874V18.7491ZM53.1757 29.72H48.8244V20.3165H53.1757V29.72Z" fill="#B79347"/>
<path d="M56.7369 47.5408C56.7369 46.6754 55.9402 45.9734 54.9563 45.9734H47.0438C46.0598 45.9734 45.2632 46.6754 45.2632 47.5408V60.079C45.2632 60.9443 46.0598 61.6464 47.0438 61.6464H54.9563C55.9402 61.6464 56.7369 60.9443 56.7369 60.079V47.5408ZM53.1757 58.5116H48.8244V49.1082H53.1757V58.5116Z" fill="#B79347"/>
<path d="M54.9563 74.7642H47.0438C46.0598 74.7642 45.2632 75.4662 45.2632 76.3315V88.8698C45.2632 89.7359 46.0598 90.4372 47.0438 90.4372H54.9563C55.9402 90.4372 56.7369 89.7359 56.7369 88.8698V76.3315C56.7369 75.4662 55.9402 74.7642 54.9563 74.7642ZM53.1757 87.3024H48.8244V77.8989H53.1757V87.3024Z" fill="#B79347"/>
<path d="M99.5072 40.694C100.882 40.694 102 39.7095 102 38.4997V32.9281C102 31.7183 100.882 30.7338 99.5072 30.7338H97.5328V13.6175C97.5328 12.0615 96.0953 10.7962 94.3277 10.7962H69.993C69.0099 10.7962 68.2124 11.4982 68.2124 12.3635C68.2124 13.2289 69.0099 13.9309 69.993 13.9309H93.9716V30.7338H90.9214V24.2838C90.9214 22.9589 89.6963 21.8805 88.1912 21.8805H76.8417C75.3366 21.8805 74.1115 22.9589 74.1115 24.2838V30.7338H71.7773C70.4019 30.7338 69.2844 31.7183 69.2844 32.9281V38.4997C69.2844 39.7095 70.4019 40.694 71.7773 40.694H93.9716V58.1711H90.9214V51.7212C90.9214 50.3954 89.6963 49.3179 88.1912 49.3179H76.8417C75.3366 49.3179 74.1115 50.3954 74.1115 51.7212V58.1711H71.7773C70.4019 58.1711 69.2844 59.1548 69.2844 60.3655V65.9362C69.2844 67.1468 70.4019 68.1305 71.7773 68.1305H93.9716V85.6077H90.9214V79.1577C90.9214 77.8328 89.6963 76.7544 88.1912 76.7544H76.8417C75.3366 76.7544 74.1115 77.8328 74.1115 79.1577V85.6077H71.7773C70.4019 85.6077 69.2844 86.5922 69.2844 87.802V93.3736C69.2844 94.5834 70.4019 95.5679 71.7773 95.5679H93.9716V103.865H64.2543V88.8706C64.2543 88.0045 63.4576 87.3032 62.4737 87.3032C61.4906 87.3032 60.6931 88.0045 60.6931 88.8706V103.865H41.306V25.0006C41.306 24.1352 40.5094 23.4332 39.5254 23.4332C38.5424 23.4332 37.7448 24.1352 37.7448 25.0006V103.865H8.02842V95.5679H30.2227C31.5981 95.5679 32.7156 94.5834 32.7156 93.3736V87.802C32.7156 86.5922 31.5981 85.6077 30.2227 85.6077H27.8885V79.1577C27.8885 77.8328 26.6634 76.7544 25.1583 76.7544H13.8088C12.3028 76.7544 11.0786 77.8328 11.0786 79.1577V85.6077H8.02842V68.1314H30.2227C31.5981 68.1314 32.7156 67.1468 32.7156 65.937V60.3655C32.7156 59.1548 31.5981 58.1711 30.2227 58.1711H27.8885V51.7212C27.8885 50.3954 26.6634 49.3179 25.1583 49.3179H13.8088C12.3028 49.3179 11.0786 50.3954 11.0786 51.7212V58.1711H8.02842V40.694H30.2227C31.5981 40.694 32.7156 39.7095 32.7156 38.4997V32.9281C32.7156 31.7183 31.5981 30.7338 30.2227 30.7338H27.8885V24.2838C27.8885 22.9589 26.6634 21.8805 25.1583 21.8805H13.8088C12.3028 21.8805 11.0786 22.9589 11.0786 24.2838V30.7338H8.02842V13.9309H37.7448V18.731C37.7448 19.5972 38.5424 20.2984 39.5254 20.2984C40.5094 20.2984 41.306 19.5972 41.306 18.731V3.13477H60.6931V82.6011C60.6931 83.4664 61.4906 84.1685 62.4737 84.1685C63.4567 84.1685 64.2543 83.4664 64.2543 82.6011V2.40332C64.2543 1.07839 63.0292 0 61.524 0H40.475C38.9699 0 37.7448 1.07839 37.7448 2.40332V10.7962H7.6723C5.9047 10.7962 4.46724 12.0615 4.46724 13.6175V30.7338H2.49283C1.11843 30.7338 0 31.7183 0 32.9281V38.4997C0 39.7095 1.11843 40.694 2.49283 40.694H4.46724V58.1711H2.49283C1.11843 58.1711 0 59.1548 0 60.3655V65.9362C0 67.1468 1.11843 68.1305 2.49283 68.1305H4.46724V85.6077H2.49283C1.11843 85.6077 0 86.5922 0 87.802V93.3736C0 94.5834 1.11843 95.5679 2.49283 95.5679H4.46724V104.179C4.46724 105.735 5.9047 107 7.6723 107H94.3277C96.0953 107 97.5328 105.735 97.5328 104.179V95.5679H99.5072C100.882 95.5679 102 94.5834 102 93.3736V87.802C102 86.5922 100.882 85.6077 99.5072 85.6077H97.5328V68.1314H99.5072C100.882 68.1314 102 67.1468 102 65.937V60.3655C102 59.1548 100.882 58.1711 99.5072 58.1711H97.5328V40.694H99.5072ZM14.6398 25.0153H24.3273V30.7338H14.6398V25.0153ZM3.56118 33.8685H29.1544V37.5592C24.9134 37.5592 6.40085 37.5592 3.56118 37.5592V33.8685ZM14.6398 52.4526H24.3273V58.1711H14.6398V52.4526ZM3.56118 61.3059H29.1544V64.9958H3.56118V61.3059ZM14.6398 79.8892H24.3273V85.6077H14.6398V79.8892ZM3.56118 88.7424H29.1544V92.4331H3.56118V88.7424ZM77.6727 79.8892H87.3602V85.6077H77.6727V79.8892ZM98.4388 92.4331H72.8447V88.7424H98.4388V92.4331ZM77.6727 52.4526H87.3602V58.1711H77.6727V52.4526ZM98.4388 64.9958H72.8447V61.3059H98.4388V64.9958ZM77.6727 25.0153H87.3602V30.7338H77.6727V25.0153ZM72.8447 33.8685H98.4388V37.5592C95.1976 37.5592 78.1874 37.5592 72.8447 37.5592V33.8685Z" fill="#B79347"/>
</svg>
