<svg width="49" height="69" viewBox="0 0 49 69" fill="none" xmlns="http://www.w3.org/2000/svg">
<path opacity="0.3" d="M47.5968 18.561L33.2755 12.65V9.2C33.2755 6.76001 32.3368 4.41995 30.666 2.69462C28.9953 0.969283 26.7292 0 24.3664 0C22.0035 0 19.7375 0.969283 18.0667 2.69462C16.3959 4.41995 15.4573 6.76001 15.4573 9.2V12.765L19.9118 10.925V9.2C19.9118 7.98 20.3811 6.80998 21.2165 5.94731C22.0519 5.08464 23.1849 4.6 24.3664 4.6C25.5478 4.6 26.6808 5.08464 27.5162 5.94731C28.3516 6.80998 28.8209 7.98 28.8209 9.2V10.81L25.3241 9.361C24.7949 9.14336 24.2051 9.14336 23.6759 9.361L19.9118 10.925V23C19.9118 24.22 20.3811 25.39 21.2165 26.2527C22.0519 27.1154 23.1849 27.6 24.3664 27.6C24.9571 27.6 25.5236 27.8423 25.9413 28.2737C26.359 28.705 26.5936 29.29 26.5936 29.9C26.5936 30.51 26.359 31.095 25.9413 31.5263C25.5236 31.9577 24.9571 32.2 24.3664 32.2C22.0035 32.2 19.7375 31.2307 18.0667 29.5054C16.3959 27.78 15.4573 25.44 15.4573 23V12.765L1.40318 18.561C0.988765 18.7314 0.633453 19.0264 0.383272 19.4078C0.133092 19.7892 -0.000430784 20.2394 1.04413e-06 20.7V66.7C1.04413e-06 67.31 0.23466 67.895 0.652355 68.3263C1.07005 68.7577 1.63656 69 2.22727 69H46.7727C47.3634 69 47.93 68.7577 48.3476 68.3263C48.7653 67.895 49 67.31 49 66.7V20.7C49.0004 20.2394 48.8669 19.7892 48.6167 19.4078C48.3665 19.0264 48.0112 18.7314 47.5968 18.561ZM35.6364 59.8H13.3636C12.7729 59.8 12.2064 59.5577 11.7887 59.1263C11.371 58.695 11.1364 58.11 11.1364 57.5C11.1364 56.89 11.371 56.305 11.7887 55.8736C12.2064 55.4423 12.7729 55.2 13.3636 55.2H35.6364C36.2271 55.2 36.7936 55.4423 37.2113 55.8736C37.629 56.305 37.8636 56.89 37.8636 57.5C37.8636 58.11 37.629 58.695 37.2113 59.1263C36.7936 59.5577 36.2271 59.8 35.6364 59.8ZM35.6364 50.6H24.5C23.9093 50.6 23.3428 50.3577 22.9251 49.9263C22.5074 49.495 22.2727 48.91 22.2727 48.3C22.2727 47.69 22.5074 47.105 22.9251 46.6737C23.3428 46.2423 23.9093 46 24.5 46H35.6364C36.2271 46 36.7936 46.2423 37.2113 46.6737C37.629 47.105 37.8636 47.69 37.8636 48.3C37.8636 48.91 37.629 49.495 37.2113 49.9263C36.7936 50.3577 36.2271 50.6 35.6364 50.6Z" fill="#636363"/>
</svg>
