<svg width="9" height="11" viewBox="0 0 9 11" fill="none" xmlns="http://www.w3.org/2000/svg">
<path d="M2.29955 3.6326H1.84918V2.41427C1.84918 1.08089 2.93962 0 4.28486 0C5.63007 0 6.72054 1.08087 6.72054 2.41429V3.63263H6.27016V2.41429C6.27016 1.32728 5.3815 0.44642 4.28486 0.44642C3.18821 0.44642 2.29958 1.32728 2.29958 2.41429V3.6326H2.29955ZM8.13719 3.57524L7.72979 10.2158C7.72869 10.2337 7.73704 10.2496 7.75247 10.259C7.76787 10.2683 7.78597 10.2685 7.80156 10.2594L8.97647 9.57445C8.9935 9.56453 9.0023 9.54637 8.99948 9.52699L8.13719 3.57524ZM7.94686 2.54734C7.93751 2.53748 7.92578 2.53247 7.91211 2.53247H6.95897V3.75081C6.95897 3.81607 6.90558 3.86899 6.83974 3.86899H6.15091C6.08507 3.86899 6.03168 3.81607 6.03168 3.75081V2.53247H2.53801V3.75081C2.53801 3.81607 2.48462 3.86899 2.41878 3.86899H1.72995C1.66411 3.86899 1.61072 3.81607 1.61072 3.75081V2.53247H0.524565C0.499313 2.53247 0.478495 2.5519 0.476969 2.57688L0.000100608 10.3499C-0.000733995 10.3634 0.00362981 10.3753 0.0129774 10.3851C0.0223249 10.395 0.0340571 10.4 0.0476969 10.4H7.43525C7.4605 10.4 7.48132 10.3806 7.48284 10.3556L7.95971 2.5826C7.96054 2.56911 7.9562 2.55719 7.94686 2.54734Z" fill="#B79347"/>
</svg>
