<svg width="48" height="44" viewBox="0 0 48 44" fill="none" xmlns="http://www.w3.org/2000/svg">
<path d="M31 8.58542C33.2001 8.58542 35.0001 6.65372 35.0001 4.29271C35.0001 1.9317 33.2001 0 31 0C28.8 0 27 1.9317 27 4.29271C27 6.65372 28.8 8.58542 31 8.58542Z" fill="#B79347"/>
<path d="M10 22.5366C4.5 22.5366 0 27.3659 0 33.2683C0 39.1708 4.5 44.0001 10 44.0001C15.5001 44.0001 20.0001 39.1708 20.0001 33.2683C20.0001 27.3659 15.5 22.5366 10 22.5366ZM10 40.7806C6.10003 40.7806 3 37.4537 3 33.2683C3 29.083 6.10003 25.7561 10 25.7561C13.9 25.7561 17.0001 29.083 17.0001 33.2683C17.0001 37.4537 13.9 40.7806 10 40.7806Z" fill="#B79347"/>
<path d="M37.9001 20.2829V15.9902C34.9001 15.9902 32.4001 14.8097 30.6001 12.878L26.7001 8.80001C26.1001 8.04876 25.1 7.51221 24.0001 7.51221C22.9001 7.51221 21.9001 7.94151 21.2 8.80001L15.7 14.7025C15 15.4537 14.5 16.5268 14.5 17.7074C14.5 18.8879 15 19.961 15.7 20.8195L22 26.8293V37.561H26V24.1463L21.6001 19.4244L26.3 14.2732L27.8 15.8829C30.3001 18.6731 33.8 20.2829 37.9001 20.2829Z" fill="#B79347"/>
<path d="M38 22.5366C32.5 22.5366 28 27.3659 28 33.2683C28 39.1708 32.5 44.0001 38 44.0001C43.5001 44.0001 48.0001 39.1708 48.0001 33.2683C48.0001 27.3659 43.5001 22.5366 38 22.5366ZM38 40.7806C34.1 40.7806 31 37.4537 31 33.2683C31 29.083 34.1 25.7561 38 25.7561C41.9 25.7561 45.0001 29.083 45.0001 33.2683C45.0001 37.4537 41.9 40.7806 38 40.7806Z" fill="#B79347"/>
</svg>
