<svg width="97" height="107" viewBox="0 0 97 107" fill="none" xmlns="http://www.w3.org/2000/svg">
<path d="M96.6118 77.6977L78.5937 46.2374C78.5944 46.2123 78.5966 46.1872 78.5961 46.1618L78.0353 25.7019C78.0113 24.8343 77.2038 24.143 76.2249 24.1692C75.2488 24.1904 74.4769 24.9109 74.5007 25.7784L74.8839 39.7596L68.1693 28.0357C68.1693 28.0351 68.1695 28.0344 68.1695 28.0338L68.5347 14.9473H74.2039L74.317 19.0814C74.3406 19.936 75.1272 20.6145 76.0834 20.6145C76.0983 20.6145 76.1129 20.6145 76.1275 20.6141C77.1036 20.5929 77.8755 19.8726 77.8517 19.0049L77.7292 14.5341C77.6872 13.0035 76.3055 11.8044 74.5832 11.8044H68.1552C66.4324 11.8044 65.0506 13.0037 65.0092 14.5333L64.7965 22.1474L53.7513 2.86178C52.7405 1.09648 50.7281 0 48.4999 0C46.2718 0 44.2595 1.09648 43.2488 2.86157L0.388297 77.6979C-0.0421064 78.4493 -0.117533 79.3046 0.17616 80.1065C0.469381 80.9086 1.0966 81.5608 1.94185 81.9432L5.58849 83.5937V92.209C5.58849 93.9219 7.15595 95.3153 9.08263 95.3153H11.4159V104.848C11.4159 106.035 12.5016 107 13.8362 107H20.8061C22.1404 107 23.2263 106.035 23.2263 104.848V102.649L33.3219 96.3384V104.849C33.3219 106.035 34.4076 107 35.7422 107H41.8928C43.2271 107 44.313 106.035 44.313 104.849V95.3155H52.687V104.849C52.687 106.035 53.7727 107 55.1073 107H61.2581C62.5924 107 63.6784 106.035 63.6784 104.849V96.3382L73.774 102.649V104.848C73.774 106.034 74.8596 107 76.1942 107H83.1641C84.4985 107 85.5844 106.034 85.5844 104.848V95.3151H87.6819C89.6086 95.3151 91.1761 93.9217 91.1761 92.2088V83.7001L95.058 81.943C95.9037 81.5606 96.5309 80.9083 96.8241 80.1063C97.1173 79.3046 97.0422 78.4493 96.6118 77.6977ZM19.6907 103.857H14.9518V95.3153H19.6907V103.857ZM23.2263 95.3153H28.8119L23.2263 98.8069V95.3153ZM40.7774 103.857H36.8576V95.3153H40.7774V103.857ZM60.1425 103.857H56.2227V95.3153H60.1425V103.857ZM68.1882 95.3153H73.7737V98.8069L68.1882 95.3153ZM82.0483 103.857H77.3094V95.3153H82.0483V103.857ZM9.12412 92.1723V83.9195C9.88852 83.6297 10.5094 83.117 10.8908 82.4509L10.9007 82.4337H24.81V85.2848C24.81 86.5818 25.9971 87.637 27.4561 87.637H43.2035C44.6623 87.637 45.8496 86.5818 45.8496 85.2848V82.4337H50.9155V85.285C50.9155 86.5818 52.1025 87.637 53.5615 87.637H69.309C70.7678 87.637 71.955 86.5818 71.955 85.285V82.4337H86.1001L86.1098 82.4507C86.4511 83.0468 86.9852 83.5178 87.6407 83.8185V92.1723H9.12412ZM42.3135 65.7121V84.494H37.0973V65.7121H42.3135ZM33.5617 84.494H28.3454V65.7121H33.5617V84.494ZM54.4506 84.494V65.7121H59.6668V84.494H54.4506ZM89.26 81.0248L51.6648 15.3821C51.0552 14.3183 49.8427 13.6577 48.4999 13.6577C47.1571 13.6577 45.9446 14.3183 45.3351 15.3821L25.8941 49.327C25.4512 50.1004 25.7974 51.0466 26.6674 51.4403C27.5369 51.834 28.6016 51.5264 29.0448 50.7528L48.4851 16.8023C48.4912 16.7998 48.5082 16.7996 48.5141 16.808L84.2995 79.2908H71.9543V76.5011C71.9543 75.6332 71.163 74.9296 70.1865 74.9296C69.21 74.9296 68.4187 75.6332 68.4187 76.5011V84.494H63.2025V65.7121H68.4187V69.804C68.4187 70.6719 69.21 71.3755 70.1865 71.3755C71.163 71.3755 71.9543 70.6719 71.9543 69.804V64.9211C71.9543 63.6241 70.7673 62.5689 69.3082 62.5689H53.5608C52.102 62.5689 50.9147 63.6241 50.9147 64.9211V79.2908H45.8489V64.9211C45.8489 63.6241 44.6619 62.5689 43.2028 62.5689H27.4554C25.9966 62.5689 24.8093 63.6241 24.8093 64.9211V79.2908H12.7001L25.6213 56.7295C26.0642 55.9561 25.718 55.0099 24.848 54.6162C23.9787 54.2227 22.9138 54.5301 22.4706 55.3036L7.71906 81.0311L3.53925 79.1238L46.3995 4.28743C46.804 3.58152 47.6087 3.14297 48.4999 3.14297C49.3911 3.14297 50.1958 3.58152 50.6003 4.28763L93.4537 79.1424L89.26 81.0248Z" fill="#B79347"/>
<path d="M48.382 52.2303C53.7269 52.2303 58.075 48.3651 58.075 43.6137C58.075 38.8624 53.7269 34.9972 48.382 34.9972C43.0371 34.9972 38.689 38.8626 38.689 43.6137C38.689 48.3649 43.0373 52.2303 48.382 52.2303ZM48.382 38.1404C51.7771 38.1404 54.5394 40.5959 54.5394 43.614C54.5394 46.632 51.7771 49.0875 48.382 49.0875C44.9869 49.0875 42.2246 46.632 42.2246 43.614C42.2246 40.5959 44.9869 38.1404 48.382 38.1404Z" fill="#B79347"/>
</svg>
