<svg width="70" height="70" viewBox="0 0 70 70" fill="none" xmlns="http://www.w3.org/2000/svg">
<path d="M68.871 33.8709H64.3548V22.5806H65.4839C65.7071 22.5806 65.9254 22.5143 66.111 22.3903C66.2966 22.2662 66.4413 22.0899 66.5267 21.8836C66.6122 21.6773 66.6345 21.4504 66.591 21.2314C66.5474 21.0124 66.4399 20.8113 66.2821 20.6534L45.9595 0.330806C45.7478 0.119057 45.4607 6.39454e-05 45.1613 0H24.8387C24.5393 6.39454e-05 24.2522 0.119057 24.0405 0.330806L3.7179 20.6534C3.56005 20.8113 3.45256 21.0124 3.40902 21.2314C3.36547 21.4504 3.38783 21.6773 3.47327 21.8836C3.5587 22.0899 3.70337 22.2662 3.889 22.3903C4.07462 22.5143 4.29286 22.5806 4.51613 22.5806H10.1613V32.7419H1.12903C0.829594 32.7419 0.54242 32.8609 0.330686 33.0726C0.118951 33.2843 0 33.5715 0 33.8709V54.1935C0 54.4929 0.118951 54.7801 0.330686 54.9918C0.54242 55.2036 0.829594 55.3225 1.12903 55.3225H10.1613C10.4607 55.3225 10.7479 55.2036 10.9596 54.9918C11.1714 54.7801 11.2903 54.4929 11.2903 54.1935V53.0645H16.564L17.3544 53.6425L14.9032 56.9032C14.8129 57.0236 14.7476 57.1608 14.7111 57.3068C14.6746 57.4529 14.6676 57.6047 14.6907 57.7535C14.7137 57.9022 14.7663 58.0448 14.8452 58.173C14.9242 58.3011 15.028 58.4122 15.1505 58.4996L30.9569 69.7899C31.1969 69.9612 31.4944 70.0318 31.7857 69.9867C32.0771 69.9415 32.3392 69.7842 32.5161 69.5483L34.8013 66.4999L37.7176 68.6451C37.9566 68.8223 38.2559 68.8979 38.5504 68.8557C38.8449 68.8134 39.1108 68.6566 39.2903 68.4193L41.869 64.9814L42.2077 65.2467C42.3262 65.3391 42.4619 65.4069 42.6069 65.4462C42.7519 65.4854 42.9033 65.4954 43.0522 65.4754C43.2011 65.4554 43.3445 65.4059 43.474 65.3298C43.6035 65.2537 43.7165 65.1525 43.8064 65.0322L46.3852 61.5943L46.7239 61.8596C46.8423 61.952 46.978 62.0198 47.123 62.0591C47.268 62.0983 47.4194 62.1083 47.5683 62.0883C47.7172 62.0683 47.8606 62.0188 47.9901 61.9427C48.1196 61.8666 48.2327 61.7654 48.3226 61.6451L50.9013 58.2072L51.24 58.4725C51.3585 58.5649 51.4942 58.6327 51.6392 58.672C51.7842 58.7112 51.9355 58.7212 52.0844 58.7012C52.2333 58.6812 52.3767 58.6317 52.5062 58.5556C52.6358 58.4795 52.7488 58.3783 52.8387 58.258L55.8871 54.1935H58.7097V55.3225C58.7097 55.622 58.8286 55.9091 59.0404 56.1209C59.2521 56.3326 59.5393 56.4516 59.8387 56.4516H68.871C69.1704 56.4516 69.4576 56.3326 69.6693 56.1209C69.8811 55.9091 70 55.622 70 55.3225V35C70 34.7005 69.8811 34.4133 69.6693 34.2016C69.4576 33.9899 69.1704 33.8709 68.871 33.8709ZM9.03226 53.0645H2.25806V35H9.03226V53.0645ZM62.7584 20.3226H45.6287L27.5642 2.25806H44.6939L62.7584 20.3226ZM24.8387 2.72548L42.4358 20.3226H38.8545L25.6369 7.10499C25.4252 6.89333 25.1381 6.77443 24.8387 6.77443C24.5393 6.77443 24.2522 6.89333 24.0405 7.10499L10.8229 20.3226H7.24161L24.8387 2.72548ZM24.8387 33.8709V35H21.4516V29.3548C21.4516 28.4565 21.8085 27.595 22.4437 26.9598C23.0789 26.3246 23.9404 25.9677 24.8387 25.9677C25.737 25.9677 26.5985 26.3246 27.2337 26.9598C27.869 27.595 28.2258 28.4565 28.2258 29.3548V32.7419H25.9677C25.6683 32.7419 25.3811 32.8609 25.1694 33.0726C24.9577 33.2843 24.8387 33.5715 24.8387 33.8709ZM24.8387 23.7097C23.3421 23.7114 21.9072 24.3068 20.849 25.3651C19.7907 26.4233 19.1953 27.8582 19.1935 29.3548V35H12.4194V21.919L24.8387 9.49967L37.2581 21.919V32.7419H30.4839V29.3548C30.4821 27.8582 29.8867 26.4233 28.8285 25.3651C27.7702 24.3068 26.3354 23.7114 24.8387 23.7097ZM19.1665 54.9838L21.166 56.4516L19.4194 58.7774L17.3973 57.3333L19.1665 54.9838ZM28.989 62.2175L27.3282 64.4225L25.3061 62.9785L26.9839 60.7419L28.989 62.2175ZM23.4737 61.6677L21.2687 60.087L22.9894 57.7917L25.1718 59.3995L23.4737 61.6677ZM31.3769 67.3128L29.1719 65.7322L30.8068 63.552L32.9892 65.1586L31.3769 67.3128ZM51.7221 55.9841L42.464 48.7854L41.0776 50.5693L49.1152 56.8207L47.2026 59.3712L37.9445 52.1725L36.5581 53.9564L44.5956 60.2078L42.6831 62.7583L33.425 55.5596L32.0385 57.3435L40.0761 63.5949L38.1455 66.1691L17.605 51.0322C17.4117 50.8872 17.1771 50.8081 16.9355 50.8064H11.2903V37.258H24.8387V38.3871C24.8387 38.6865 24.9577 38.9737 25.1694 39.1854C25.3811 39.3971 25.6683 39.5161 25.9677 39.5161H35.7463L53.7476 53.2812L51.7221 55.9841ZM55.7053 51.9354L36.8144 37.4906C36.6179 37.3395 36.3769 37.2577 36.129 37.258H27.0968V35H38.2042L48.1916 38.3295C48.3067 38.3677 48.4271 38.3871 48.5484 38.3871H58.7097V51.9354H55.7053ZM58.7097 35V36.129H48.7313L44.0323 34.563V27.0967H57.5806V31.6129H59.8387V25.9677C59.8387 25.6683 59.7198 25.3811 59.508 25.1694C59.2963 24.9576 59.0091 24.8387 58.7097 24.8387H42.9032C42.6038 24.8387 42.3166 24.9576 42.1049 25.1694C41.8931 25.3811 41.7742 25.6683 41.7742 25.9677V33.81L39.5161 33.0569V22.5806H62.0968V33.8709H59.8387C59.5393 33.8709 59.2521 33.9899 59.0404 34.2016C58.8286 34.4133 58.7097 34.7005 58.7097 35ZM67.7419 54.1935H60.9677V36.129H67.7419V54.1935Z" fill="white"/>
<path d="M24.8389 13.5483C23.9457 13.5483 23.0725 13.8132 22.3299 14.3094C21.5872 14.8057 21.0083 15.511 20.6665 16.3362C20.3247 17.1614 20.2353 18.0695 20.4095 18.9455C20.5838 19.8216 21.0139 20.6263 21.6455 21.2578C22.2771 21.8894 23.0818 22.3196 23.9578 22.4938C24.8339 22.6681 25.7419 22.5786 26.5671 22.2368C27.3923 21.895 28.0977 21.3162 28.5939 20.5735C29.0901 19.8308 29.355 18.9577 29.355 18.0645C29.355 16.8667 28.8792 15.718 28.0323 14.8711C27.1853 14.0241 26.0366 13.5483 24.8389 13.5483ZM24.8389 20.3225C24.3923 20.3225 23.9557 20.1901 23.5844 19.942C23.213 19.6939 22.9236 19.3412 22.7527 18.9286C22.5818 18.516 22.5371 18.062 22.6242 17.6239C22.7113 17.1859 22.9264 16.7836 23.2422 16.4678C23.558 16.152 23.9603 15.9369 24.3984 15.8498C24.8364 15.7627 25.2904 15.8074 25.703 15.9783C26.1156 16.1492 26.4683 16.4386 26.7164 16.81C26.9645 17.1813 27.097 17.6179 27.097 18.0645C27.097 18.6633 26.859 19.2377 26.4356 19.6612C26.0121 20.0846 25.4378 20.3225 24.8389 20.3225Z" fill="white"/>
</svg>
