<svg width="24" height="24" viewBox="0 0 24 24" fill="none" xmlns="http://www.w3.org/2000/svg">
<path d="M24 7.96075V21.317C23.9993 22.0283 23.7181 22.7104 23.2182 23.2134C22.7182 23.7164 22.0404 23.9993 21.3333 24H16.8889C16.4174 24 15.9652 23.8115 15.6318 23.4761C15.2984 23.1407 15.1111 22.6857 15.1111 22.2113V17.2924C15.1111 17.0552 15.0175 16.8277 14.8508 16.66C14.6841 16.4923 14.458 16.398 14.2222 16.398H9.77778C9.54203 16.398 9.31594 16.4923 9.14924 16.66C8.98254 16.8277 8.88889 17.0552 8.88889 17.2924V22.2113C8.88889 22.6857 8.70159 23.1407 8.36819 23.4761C8.03479 23.8115 7.58261 24 7.11111 24H2.66667C1.95964 23.9993 1.28177 23.7164 0.781828 23.2134C0.281884 22.7104 0.000705969 22.0283 0 21.317V7.96075C0.000665148 7.65188 0.0804379 7.34839 0.231621 7.07957C0.382805 6.81075 0.600296 6.58567 0.863111 6.42605L11.0853 0.255041C11.3617 0.0881572 11.6779 0 12.0002 0C12.3225 0 12.6388 0.0881572 12.9151 0.255041L23.1373 6.42605C23.4001 6.58573 23.6175 6.81083 23.7686 7.07965C23.9197 7.34846 23.9994 7.65192 24 7.96075Z" fill="#B79347"/>
</svg>
