<svg width="43" height="34" viewBox="0 0 43 34" fill="none" xmlns="http://www.w3.org/2000/svg">
<path d="M34.9375 20.1724V26.2962C34.9375 28.5205 33.6878 30.5055 31.7528 31.4346C29.4012 32.5609 25.8403 33.7856 21.5 33.7856C17.1597 33.7856 13.5987 32.5609 11.2337 31.4346C9.31219 30.5055 8.0625 28.5205 8.0625 26.2962V20.1724L17.6166 24.7477C18.8394 25.3389 20.1562 25.6346 21.5 25.6346C22.8438 25.6346 24.1606 25.3389 25.3834 24.7477L34.9375 20.1724Z" fill="#B79347"/>
<path d="M40.3125 17.5962V26.7468C40.3125 27.5211 39.7078 28.1546 38.9688 28.1546C38.2297 28.1546 37.625 27.5211 37.625 26.7468V18.8914L40.3125 17.5962Z" fill="#B79347"/>
<path d="M18.7292 22.1912C19.6093 22.6122 20.554 22.8233 21.5 22.8233C22.446 22.8233 23.3893 22.6136 24.2708 22.1912L41.4318 13.9726C42.3993 13.5094 43 12.5282 43 11.4118C43 10.2955 42.3993 9.31284 41.4318 8.84968L24.2708 0.632447C22.5092 -0.210816 20.4922 -0.210816 18.7305 0.632447L1.56816 8.84827C0.600656 9.31284 0 10.2941 0 11.4104C0 12.5268 0.600656 13.508 1.56816 13.9726L18.7292 22.1912Z" fill="#B79347"/>
</svg>
