<svg width="10" height="13" viewBox="0 0 10 13" fill="none" xmlns="http://www.w3.org/2000/svg">
<path d="M3.43066 7.66138H6.06979V8.58981H3.43066V7.66138Z" fill="#B79347"/>
<path d="M2.11035 3.71541C2.11035 4.99738 3.2918 6.03658 4.74914 6.03658C6.20659 6.03658 7.38804 4.99738 7.38804 3.71541V0.131896C6.51179 0.0458166 5.63092 0.00178506 4.74914 0C3.86748 0.00178506 2.9866 0.0458166 2.11035 0.131896V3.71541ZM4.74914 1.85845C5.91515 1.85845 6.86029 2.68989 6.86029 3.71541C6.86029 4.74092 5.91515 5.57236 4.74914 5.57236C3.58325 5.57236 2.63811 4.74092 2.63811 3.71541C2.63946 2.69038 3.58381 1.85964 4.74914 1.85845Z" fill="#B79347"/>
<path d="M0.212081 0.376083C0.0879495 0.397702 -0.00100611 0.493996 8.59288e-06 0.605265V11.4683C-0.00100611 11.5795 0.0879495 11.6757 0.211969 11.6974C0.930942 11.817 1.6524 11.904 2.37498 11.9661V12.536C2.37498 12.7924 2.61129 13.0002 2.90273 13.0002C3.19429 13.0002 3.43049 12.7924 3.43049 12.536V12.0373C3.51764 12.0415 3.60468 12.048 3.69183 12.0514L3.69443 12.0509L3.69781 12.0515C4.39908 12.0782 5.10058 12.0782 5.80219 12.0515L5.80557 12.0509L5.80817 12.0514C5.8952 12.048 5.98236 12.0414 6.0694 12.0372V12.536C6.0694 12.7924 6.30571 13.0002 6.59715 13.0002C6.88871 13.0002 7.12491 12.7924 7.12491 12.536V11.9662C7.84749 11.9041 8.56906 11.8171 9.28781 11.6975H9.28803C9.41205 11.6758 9.50101 11.5795 9.49999 11.4683V0.605265C9.50101 0.494096 9.41205 0.397901 9.28803 0.376182C8.83187 0.300218 8.37446 0.239724 7.9166 0.186867V3.71563C7.9166 5.25396 6.49884 6.50102 4.74994 6.50102C3.00105 6.50102 1.58328 5.25396 1.58328 3.71563V0.186768C1.12554 0.239625 0.668247 0.300119 0.212081 0.376083ZM6.86109 10.9112H6.33333C6.18755 10.9112 6.0694 10.8073 6.0694 10.6791C6.0694 10.5509 6.18755 10.447 6.33333 10.447H6.86109C7.00687 10.447 7.12491 10.5509 7.12491 10.6791C7.12491 10.8073 7.00687 10.9112 6.86109 10.9112ZM7.12491 9.75063C7.12491 9.87885 7.00687 9.98268 6.86109 9.98268H6.33333C6.18755 9.98268 6.0694 9.87885 6.0694 9.75063C6.0694 9.6224 6.18755 9.51847 6.33333 9.51847H6.86109C7.00687 9.51847 7.12491 9.6224 7.12491 9.75063ZM2.90273 7.66161C2.90307 7.40535 3.13916 7.19759 3.43049 7.19739H6.0694C6.36073 7.19759 6.59693 7.40535 6.59715 7.66161V8.59004C6.59693 8.84629 6.36073 9.05406 6.0694 9.05425H3.43049C3.13916 9.05406 2.90307 8.84629 2.90273 8.59004V7.66161ZM2.63891 9.51847H3.16667C3.31245 9.51847 3.43049 9.6224 3.43049 9.75063C3.43049 9.87885 3.31245 9.98268 3.16667 9.98268H2.63891C2.49313 9.98268 2.37498 9.87885 2.37498 9.75063C2.37498 9.6224 2.49313 9.51847 2.63891 9.51847ZM2.63891 10.447H3.16667C3.31245 10.447 3.43049 10.5509 3.43049 10.6791C3.43049 10.8073 3.31245 10.9112 3.16667 10.9112H2.63891C2.49313 10.9112 2.37498 10.8073 2.37498 10.6791C2.37498 10.5509 2.49313 10.447 2.63891 10.447ZM1.05552 10.9112C1.05552 11.0393 0.937368 11.1433 0.791702 11.1433C0.645923 11.1433 0.527767 11.0393 0.527767 10.9112V8.12582C0.527767 7.9976 0.645923 7.89367 0.791702 7.89367C0.937368 7.89367 1.05552 7.9976 1.05552 8.12582V10.9112ZM1.05552 7.19739C1.05552 7.32552 0.937368 7.42945 0.791702 7.42945C0.645923 7.42945 0.527767 7.32552 0.527767 7.19739V6.96524C0.527767 6.83701 0.645923 6.73308 0.791702 6.73308C0.937368 6.73308 1.05552 6.83701 1.05552 6.96524V7.19739Z" fill="#B79347"/>
<path d="M4.75124 5.10804C5.62569 5.10804 6.33463 4.48456 6.33463 3.7154C6.33463 2.94624 5.62569 2.32275 4.75124 2.32275C3.87679 2.32275 3.16797 2.94624 3.16797 3.7154C3.16887 4.48426 3.87725 5.10725 4.75124 5.10804ZM4.53173 3.58668L5.05949 2.8903C5.11135 2.82049 5.20188 2.78052 5.29659 2.78558C5.39129 2.79074 5.47552 2.84012 5.51734 2.9151C5.55906 2.98997 5.55196 3.07883 5.49863 3.14785L4.97087 3.84412C4.91889 3.91404 4.82847 3.954 4.73377 3.94884C4.63906 3.94369 4.55484 3.8943 4.51301 3.81943C4.4713 3.74455 4.4784 3.6556 4.53173 3.58668Z" fill="#B79347"/>
</svg>
