<svg width="107" height="107" viewBox="0 0 107 107" fill="none" xmlns="http://www.w3.org/2000/svg">
<path d="M105.433 34.1689C105.848 34.1689 106.247 34.0038 106.541 33.7099C106.835 33.4159 107 33.0173 107 32.6016V22.1523C107 21.7366 106.835 21.338 106.541 21.044C106.247 20.7501 105.848 20.585 105.433 20.585H78.3691V1.56738C78.3691 1.15169 78.204 0.753017 77.9101 0.459076C77.6161 0.165134 77.2175 0 76.8018 0L5.74707 0C4.22353 0.00221124 2.76303 0.608414 1.68572 1.68572C0.608414 2.76303 0.00221124 4.22353 0 5.74707L0 51.7236C0.00221124 53.2472 0.608414 54.7077 1.68572 55.785C2.76303 56.8623 4.22353 57.4685 5.74707 57.4707H6.26953V97.5957H1.56738C1.15169 97.5957 0.753017 97.7608 0.459076 98.0548C0.165134 98.3487 0 98.7474 0 99.1631L0 105.433C0 105.848 0.165134 106.247 0.459076 106.541C0.753017 106.835 1.15169 107 1.56738 107H105.433C105.848 107 106.247 106.835 106.541 106.541C106.835 106.247 107 105.848 107 105.433V99.1631C107 98.7474 106.835 98.3487 106.541 98.0548C106.247 97.7608 105.848 97.5957 105.433 97.5957H98.9541V72.0996H105.433C105.848 72.0996 106.247 71.9345 106.541 71.6405C106.835 71.3466 107 70.9479 107 70.5322V47.5439C107 47.1283 106.835 46.7296 106.541 46.4356C106.247 46.1417 105.848 45.9766 105.433 45.9766H98.9541V34.1689H105.433ZM103.865 23.7197V31.0342H78.3691V23.7197H103.865ZM72.0996 62.6953V57.4707H76.8018C77.2175 57.4707 77.6161 57.3056 77.9101 57.0116C78.204 56.7177 78.3691 56.319 78.3691 55.9033V49.1113H86.576V62.6953H72.0996ZM95.8193 89.5498H89.7065V80.1455H95.8193V89.5498ZM86.5718 89.5498H81.3472V80.1455H86.5718V89.5498ZM78.2124 89.5498H72.0996V80.1455H78.2124V89.5498ZM42.8418 84.3252V70.7412H49.1113V84.3252H42.8418ZM52.2461 70.7412H59.5605V84.3252H52.2461V70.7412ZM62.6953 70.7412H68.9648V84.3252H62.6953V70.7412ZM75.2344 39.707H61.6504V11.4941H75.2344V39.707ZM58.5156 39.707H44.9316V11.4941H58.5156V39.707ZM41.7969 39.707H28.2129V11.4941H41.7969V39.707ZM25.0781 39.707H11.4941V11.4941H25.0781V39.707ZM11.4941 42.8418H75.2344V45.9766H11.4941V42.8418ZM3.13477 51.7236V5.74707C3.13587 5.05458 3.41145 4.39078 3.90111 3.90111C4.39078 3.41145 5.05458 3.13587 5.74707 3.13477H75.2344V8.35938H9.92676C9.51106 8.35938 9.11239 8.52451 8.81845 8.81845C8.52451 9.11239 8.35938 9.51106 8.35938 9.92676V47.5439C8.35938 47.9596 8.52451 48.3583 8.81845 48.6523C9.11239 48.9462 9.51106 49.1113 9.92676 49.1113H75.2344V54.3359H5.74707C5.05458 54.3348 4.39078 54.0593 3.90111 53.5696C3.41145 53.0799 3.13587 52.4161 3.13477 51.7236ZM9.4043 57.4707H68.9648V67.6064H41.2744C40.8587 67.6064 40.46 67.7716 40.1661 68.0655C39.8722 68.3595 39.707 68.7581 39.707 69.1738V85.8926C39.707 86.3083 39.8722 86.7069 40.1661 87.0009C40.46 87.2948 40.8587 87.46 41.2744 87.46H68.9648V97.5957H34.4824V65.7256C34.4824 65.3099 34.3173 64.9112 34.0233 64.6173C33.7294 64.3233 33.3307 64.1582 32.915 64.1582H16.1963C15.7806 64.1582 15.3819 64.3233 15.088 64.6173C14.794 64.9112 14.6289 65.3099 14.6289 65.7256V97.5957H9.4043V57.4707ZM31.3477 97.5957H17.7637V67.293H31.3477V97.5957ZM103.865 103.865H3.13477V100.73H103.865V103.865ZM72.0996 97.5957V92.6846H95.8193V97.5957H72.0996ZM95.8193 77.0107H72.0996V72.0996H95.8193V77.0107ZM103.865 68.9648H72.0996V65.8301H103.865V68.9648ZM103.865 62.6953H89.7107V49.1113H103.865V62.6953ZM95.8193 45.9766H78.3691V34.1689H95.8193V45.9766Z" fill="#B79347"/>
<path d="M28.7354 87.1465C29.151 87.1465 29.5497 86.9814 29.8437 86.6874C30.1376 86.3935 30.3027 85.9948 30.3027 85.5791V79.3096C30.3027 78.8939 30.1376 78.4952 29.8437 78.2013C29.5497 77.9073 29.151 77.7422 28.7354 77.7422C28.3197 77.7422 27.921 77.9073 27.627 78.2013C27.3331 78.4952 27.168 78.8939 27.168 79.3096V85.5791C27.168 85.9948 27.3331 86.3935 27.627 86.6874C27.921 86.9814 28.3197 87.1465 28.7354 87.1465Z" fill="#B79347"/>
</svg>
