<svg width="40" height="44" viewBox="0 0 40 44" fill="none" xmlns="http://www.w3.org/2000/svg">
<path d="M22.5343 5.03447C22.5284 4.04289 22.8498 3.07208 23.4577 2.24505C24.0657 1.41802 24.9328 0.772008 25.9492 0.388889C26.9656 0.00577112 28.0855 -0.097209 29.167 0.0930004C30.2485 0.28321 31.2429 0.758046 32.0242 1.45733C32.8055 2.15662 33.3384 3.04887 33.5556 4.02101C33.7727 4.99315 33.6643 6.00142 33.2439 6.91804C32.8236 7.83465 32.1103 8.61834 31.1945 9.1698C30.2786 9.72125 29.2015 10.0156 28.0995 10.0157C26.6294 10.0133 25.2198 9.48865 24.1776 8.55575C23.1353 7.62286 22.5447 6.35728 22.5343 5.03447Z" fill="#B79347"/>
<path d="M39.7045 23.9825C39.4895 24.3758 39.1566 24.7072 38.7434 24.9394C38.3302 25.1716 37.8531 25.2953 37.3659 25.2966C36.9769 25.2911 36.5948 25.2029 36.2509 25.0391L29.8666 22.2067C29.4178 22.0104 29.041 21.7022 28.7812 21.3188L26.3834 17.6606L23.0581 24.5952L27.7155 31.0592C28.0519 31.524 28.2303 32.0671 28.2286 32.6219V41.0926C28.2293 41.5131 28.1282 41.9288 27.9322 42.3106C27.7362 42.6924 27.4502 43.0313 27.0939 43.3035C26.507 43.7447 25.7667 43.9867 25.002 43.9872C24.8216 44.0043 24.6397 44.0043 24.4593 43.9872C23.7012 43.8502 23.0206 43.4785 22.5356 42.9366C22.0506 42.3948 21.7921 41.7171 21.8049 41.0215V33.492L18.0553 28.2889C17.6093 28.3331 17.1592 28.3331 16.7133 28.2889L14.5424 32.4177C14.3327 32.8072 14.0293 33.1499 13.6544 33.421L5.26698 39.6364C4.68787 40.0552 3.96738 40.2838 3.22441 40.2846C2.74234 40.2803 2.26754 40.1783 1.83532 39.9862C1.4031 39.794 1.02459 39.5166 0.727935 39.1747C0.458801 38.8829 0.25729 38.5456 0.135273 38.1827C0.0132565 37.8198 -0.0267961 37.4385 0.0174753 37.0614C0.104271 36.2931 0.526645 35.5873 1.19171 35.0992L9.0857 29.3455L11.967 23.8848C11.8289 22.9658 11.9687 22.0303 12.3716 21.1767L16.1311 13.3275L13.6149 14.2155L10.1218 21.3188C9.8345 21.8755 9.31514 22.3081 8.6761 22.5229C8.03705 22.7377 7.32971 22.7174 6.70714 22.4665C6.08457 22.2156 5.59683 21.7542 5.34947 21.1821C5.1021 20.61 5.11501 19.9733 5.38539 19.4097L9.33239 11.4185C9.47338 11.1163 9.6859 10.8453 9.95516 10.6245C10.2244 10.4036 10.5439 10.2383 10.8915 10.1399L17.6606 7.87576C18.3258 7.65568 19.0358 7.56714 19.7425 7.61617C20.4491 7.6652 21.1357 7.85065 21.7556 8.15989C21.8485 8.20794 21.929 8.27313 21.9919 8.35117C22.0549 8.42921 22.0987 8.51835 22.1207 8.61273C22.31 9.47234 22.8243 10.2464 23.5763 10.8033C24.3283 11.3601 25.2714 11.6654 26.2453 11.6671C26.6325 11.6706 27.0182 11.6227 27.3899 11.5251C27.5044 11.494 27.6257 11.4892 27.7429 11.5109C27.86 11.5326 27.9693 11.5802 28.0609 11.6494C28.7354 12.1471 29.3067 12.7483 29.7482 13.4252L32.9058 18.291L38.6191 20.8215C39.226 21.1138 39.6802 21.6096 39.8834 22.2014C40.0867 22.7931 40.0224 23.4331 39.7045 23.9825Z" fill="#B79347"/>
</svg>
