<svg width="70" height="70" viewBox="0 0 70 70" fill="none" xmlns="http://www.w3.org/2000/svg">
<path d="M32.667 54.8333C32.667 54.6801 32.6369 54.5284 32.5783 54.3868C32.5197 54.2452 32.4338 54.1165 32.3254 54.0082C32.2171 53.8998 32.0884 53.8139 31.9469 53.7553C31.8053 53.6967 31.6535 53.6666 31.5003 53.6667H5.83383V51.3333H36.1669C36.4763 51.3333 36.7731 51.2104 36.9919 50.9916C37.2107 50.7728 37.3336 50.4761 37.3336 50.1667C37.3336 49.8572 37.2107 49.5605 36.9919 49.3417C36.7731 49.1229 36.4763 49 36.1669 49H26.8337V29.1667C26.8337 29.0134 26.8036 28.8617 26.7449 28.7202C26.6863 28.5786 26.6004 28.45 26.4921 28.3416C26.3837 28.2333 26.2551 28.1473 26.1135 28.0887C25.972 28.0301 25.8202 28 25.667 28H14.0004C13.8472 28 13.6955 28.0301 13.5539 28.0887C13.4124 28.1473 13.2837 28.2333 13.1754 28.3416C13.0671 28.45 12.9811 28.5786 12.9225 28.7202C12.8639 28.8617 12.8337 29.0134 12.8338 29.1667V49H9.33381V23.9995L29.167 8.48112L49.0002 23.9995V28.4318C49.0002 28.7412 49.1231 29.0379 49.3419 29.2567C49.5607 29.4755 49.8574 29.5984 50.1668 29.5984C50.4762 29.5984 50.773 29.4755 50.9918 29.2567C51.2106 29.0379 51.3335 28.7412 51.3335 28.4318V25.8253L53.1701 27.2623C53.4136 27.4528 53.7228 27.5389 54.0298 27.5016C54.3367 27.4643 54.6164 27.3067 54.8072 27.0635L58.0851 22.8867C58.1798 22.7661 58.2498 22.628 58.291 22.4803C58.3323 22.3325 58.344 22.1781 58.3254 22.0259C58.3069 21.8736 58.2585 21.7265 58.1831 21.593C58.1076 21.4595 58.0065 21.3422 57.8857 21.2478L51.3335 16.1199V1.16667C51.3335 1.01345 51.3034 0.86172 51.2448 0.720156C51.1861 0.578591 51.1002 0.449963 50.9919 0.34162C50.8835 0.233277 50.7549 0.147343 50.6133 0.0887262C50.4718 0.0301098 50.32 -3.98133e-05 50.1668 3.94573e-08H40.8336C40.6803 -3.98133e-05 40.5286 0.0301098 40.3871 0.0887262C40.2455 0.147343 40.1169 0.233277 40.0085 0.34162C39.9002 0.449963 39.8142 0.578591 39.7556 0.720156C39.697 0.86172 39.6669 1.01345 39.6669 1.16667V6.9895L31.972 0.967283C31.1631 0.360142 30.179 0.0318626 29.1677 0.0317595C28.1563 0.0316564 27.1721 0.359735 26.3631 0.966712L0.448297 21.2478C0.327421 21.3422 0.226357 21.4595 0.150894 21.593C0.0754318 21.7265 0.0270542 21.8736 0.00853285 22.0259C-0.00998846 22.1781 0.0017105 22.3325 0.0429595 22.4803C0.0842086 22.628 0.154197 22.7661 0.248915 22.8867L3.52672 27.0635C3.71786 27.3064 3.99744 27.4637 4.30427 27.5009C4.6111 27.5382 4.9202 27.4524 5.16392 27.2623L7.00049 25.8253V49H4.66718C4.51394 48.9999 4.3622 49.03 4.22061 49.0886C4.07903 49.1472 3.95038 49.2332 3.84203 49.3415C3.73368 49.4499 3.64775 49.5785 3.58915 49.7201C3.53055 49.8617 3.50043 50.0134 3.50052 50.1667V54.8333C3.50043 54.9866 3.53055 55.1383 3.58915 55.2799C3.64775 55.4215 3.73368 55.5501 3.84203 55.6585C3.95038 55.7668 4.07903 55.8528 4.22061 55.9114C4.3622 55.97 4.51394 56.0001 4.66718 56H31.5003C31.6535 56.0001 31.8053 55.97 31.9469 55.9114C32.0884 55.8528 32.2171 55.7668 32.3254 55.6585C32.4338 55.5501 32.5197 55.4215 32.5783 55.2799C32.6369 55.1383 32.667 54.9866 32.667 54.8333ZM15.1671 30.3333H24.5004V49H15.1671V30.3333ZM42.0002 2.33333H49.0002V14.2939L42.0002 8.81558V2.33333ZM4.64325 24.7068L2.80667 22.3655L27.8021 2.80387C28.1959 2.50807 28.6751 2.34818 29.1677 2.34828C29.6602 2.34839 30.1393 2.50847 30.533 2.80445L55.5273 22.3655L53.6907 24.7068L29.8859 6.08113C29.6807 5.92057 29.4276 5.83333 29.167 5.83333C28.9064 5.83333 28.6533 5.92057 28.4481 6.08113L4.64325 24.7068ZM57.1668 30.3333C53.7644 30.3372 50.5024 31.6905 48.0965 34.0964C45.6907 36.5023 44.3374 39.7642 44.3335 43.1667C44.3348 44.4013 44.5163 45.6292 44.8724 46.8113L30.6755 61.0085C30.5671 61.1168 30.4811 61.2454 30.4225 61.3869C30.3638 61.5284 30.3336 61.6801 30.3336 61.8333V68.8333C30.3336 68.9866 30.3637 69.1383 30.4223 69.2799C30.4809 69.4215 30.5668 69.5501 30.6752 69.6585C30.7835 69.7668 30.9121 69.8528 31.0537 69.9114C31.1953 69.97 31.3471 70.0001 31.5003 70H38.5002C38.6535 70.0001 38.8052 69.97 38.9468 69.9114C39.0884 69.8528 39.217 69.7668 39.3254 69.6585C39.4337 69.5501 39.5197 69.4215 39.5783 69.2799C39.6369 69.1383 39.667 68.9866 39.6669 68.8333V65.3333H43.1669C43.3201 65.3334 43.4719 65.3033 43.6134 65.2447C43.755 65.1861 43.8837 65.1002 43.992 64.9918C44.1004 64.8835 44.1863 64.7548 44.2449 64.6132C44.3035 64.4716 44.3336 64.3199 44.3335 64.1667V60.6667H47.8335C47.9867 60.6667 48.1384 60.6365 48.2799 60.5778C48.4215 60.5192 48.5501 60.4332 48.6583 60.3248L53.5221 55.4611C54.7043 55.8172 55.9321 55.9988 57.1668 56C60.5704 56 63.8345 54.6479 66.2412 52.2412C68.6479 49.8345 70 46.5703 70 43.1667C70 39.7631 68.6479 36.4988 66.2412 34.0921C63.8345 31.6854 60.5704 30.3333 57.1668 30.3333ZM57.1668 53.6667C55.9509 53.664 54.7448 53.4489 53.603 53.0309C53.3944 52.9552 53.1686 52.9406 52.952 52.9888C52.7355 53.0371 52.5372 53.1461 52.3805 53.3032L47.3504 58.3333H43.1669C43.0136 58.3332 42.8619 58.3634 42.7203 58.422C42.5787 58.4806 42.4501 58.5665 42.3417 58.6748C42.2334 58.7832 42.1474 58.9118 42.0889 59.0534C42.0303 59.195 42.0001 59.3468 42.0002 59.5V63H38.5002C38.347 62.9999 38.1953 63.03 38.0537 63.0886C37.9121 63.1472 37.7835 63.2332 37.6751 63.3415C37.5667 63.4499 37.4808 63.5785 37.4222 63.7201C37.3636 63.8617 37.3335 64.0134 37.3336 64.1667V67.6667H32.667V62.3164L47.0303 47.953C47.1871 47.7961 47.296 47.5978 47.3442 47.3813C47.3924 47.1648 47.378 46.9391 47.3026 46.7305C46.5466 44.6322 46.4789 42.3475 47.1093 40.2082C47.7397 38.0688 49.0355 36.1859 50.8084 34.8328C52.5814 33.4797 54.7394 32.7268 56.9693 32.6833C59.1992 32.6398 61.385 33.3079 63.2094 34.5908C65.0339 35.8737 66.402 37.7045 67.1154 39.8177C67.8288 41.9309 67.8503 44.2164 67.1768 46.3426C66.5033 48.4688 65.1698 50.3251 63.3698 51.6421C61.5699 52.959 59.3971 53.6682 57.1668 53.6667ZM59.5001 36.1667C58.5771 36.1667 57.6749 36.4404 56.9074 36.9531C56.14 37.4659 55.5419 38.1948 55.1887 39.0475C54.8355 39.9002 54.7431 40.8385 54.9231 41.7438C55.1032 42.649 55.5476 43.4805 56.2003 44.1332C56.8529 44.7858 57.6844 45.2303 58.5897 45.4103C59.4949 45.5904 60.4332 45.498 61.2859 45.1448C62.1386 44.7916 62.8675 44.1934 63.3802 43.426C63.893 42.6586 64.1667 41.7563 64.1667 40.8333C64.1655 39.596 63.6734 38.4098 62.7985 37.5349C61.9236 36.66 60.7374 36.1679 59.5001 36.1667ZM59.5001 43.1667C59.0386 43.1667 58.5875 43.0298 58.2038 42.7734C57.82 42.517 57.521 42.1526 57.3444 41.7263C57.1678 41.2999 57.1216 40.8307 57.2116 40.3781C57.3016 39.9255 57.5239 39.5097 57.8502 39.1834C58.1765 38.8571 58.5923 38.6349 59.0449 38.5448C59.4975 38.4548 59.9666 38.501 60.393 38.6776C60.8194 38.8542 61.1838 39.1533 61.4402 39.537C61.6966 39.9207 61.8334 40.3718 61.8334 40.8333C61.8326 41.4519 61.5865 42.0449 61.1491 42.4824C60.7117 42.9198 60.1187 43.1659 59.5001 43.1667ZM43.1669 32.6667V30.3333H32.667V38.5H40.8336C41.143 38.5 41.4397 38.6229 41.6585 38.8417C41.8773 39.0605 42.0002 39.3572 42.0002 39.6667C42.0002 39.9761 41.8773 40.2728 41.6585 40.4916C41.4397 40.7104 41.143 40.8333 40.8336 40.8333H31.5003C31.3471 40.8334 31.1953 40.8033 31.0537 40.7447C30.9121 40.6861 30.7835 40.6002 30.6752 40.4918C30.5668 40.3835 30.4809 40.2548 30.4223 40.1132C30.3637 39.9716 30.3336 39.8199 30.3336 39.6667V29.1667C30.3336 29.0134 30.3638 28.8617 30.4224 28.7202C30.481 28.5786 30.5669 28.45 30.6753 28.3416C30.7836 28.2333 30.9122 28.1473 31.0538 28.0887C31.1954 28.0301 31.3471 28 31.5003 28H44.3335C44.4868 28 44.6385 28.0301 44.78 28.0887C44.9216 28.1473 45.0502 28.2333 45.1586 28.3416C45.2669 28.45 45.3529 28.5786 45.4115 28.7202C45.4701 28.8617 45.5002 29.0134 45.5002 29.1667V32.6667C45.5002 32.9761 45.3773 33.2728 45.1585 33.4916C44.9397 33.7104 44.643 33.8333 44.3335 33.8333C44.0241 33.8333 43.7274 33.7104 43.5086 33.4916C43.2898 33.2728 43.1669 32.9761 43.1669 32.6667Z" fill="white"/>
</svg>
