<svg width="13" height="11" viewBox="0 0 13 11" fill="none" xmlns="http://www.w3.org/2000/svg">
<path d="M9.57981 9.91124C9.8505 5.93437 11.4941 2.79262 11.4941 2.79262C8.23987 4.46975 7.64651 8.58764 7.54142 10.268C7.69313 4.29342 9.64681 0 9.64681 0C5.8143 2.99019 5.50852 8.84572 5.50299 10.534C5.44388 9.07207 4.979 4.56673 1.53654 2.79262C1.53654 2.79262 3.29758 6.15875 3.47415 10.3329C3.37627 9.20975 2.81818 6.9869 0 6.20349C0 6.20349 1.46316 7.80233 1.46316 11H11.5368C11.5368 7.80233 13 6.20349 13 6.20349C10.5019 6.89792 9.77983 8.72322 9.57981 9.91124Z" fill="#B79347"/>
</svg>
