<svg width="107" height="107" viewBox="0 0 107 107" fill="none" xmlns="http://www.w3.org/2000/svg">
<circle cx="53.5" cy="53.5" r="52" stroke="#B79347" stroke-width="3"/>
<path d="M76.4497 51.9499H56.0501V31.5498C56.0501 30.1425 54.9075 29 53.4998 29C52.0925 29 50.9499 30.1425 50.9499 31.5498V51.9499H30.5498C29.1425 51.9499 28 53.0925 28 54.4998C28 55.9075 29.1425 57.0501 30.5498 57.0501H50.9499V77.4497C50.9499 78.8575 52.0925 80 53.4998 80C54.9075 80 56.0501 78.8575 56.0501 77.4497V57.0501H76.4497C77.8575 57.0501 79 55.9075 79 54.4998C79 53.0925 77.8575 51.9499 76.4497 51.9499Z" fill="#B79347"/>
</svg>
