<svg width="107" height="107" viewBox="0 0 107 107" fill="none" xmlns="http://www.w3.org/2000/svg">
<path d="M79.4859 107H27.5144C27.109 107 26.7202 106.839 26.4335 106.552C26.1469 106.266 25.9858 105.877 25.9858 105.471V1.52906C25.9858 1.29493 26.0395 1.06391 26.1428 0.85383C26.2462 0.643746 26.3964 0.460211 26.5819 0.317382C26.7674 0.174553 26.9833 0.0762484 27.2128 0.0300514C27.4423 -0.0161455 27.6794 -0.00900014 27.9057 0.0509367L79.8772 13.808C80.2033 13.8944 80.4916 14.0862 80.6973 14.3535C80.903 14.6209 81.0145 14.9488 81.0144 15.2861V105.471C81.0144 105.877 80.8534 106.266 80.5667 106.552C80.2801 106.839 79.8913 107 79.4859 107ZM29.043 103.943H77.9573V16.4631L29.043 3.51619V103.943Z" fill="#B79347"/>
<path d="M105.471 107H79.4856C79.0802 107 78.6914 106.839 78.4047 106.552C78.1181 106.266 77.957 105.877 77.957 105.472V32.1005C77.957 31.6951 78.1181 31.3063 78.4047 31.0196C78.6914 30.7329 79.0802 30.5719 79.4856 30.5719H105.471C105.877 30.5719 106.266 30.7329 106.552 31.0196C106.839 31.3063 107 31.6951 107 32.1005V105.472C107 105.877 106.839 106.266 106.552 106.552C106.266 106.839 105.877 107 105.471 107ZM81.0142 103.943H103.943V33.629H81.0142V103.943Z" fill="#B79347"/>
<path d="M1.52857 60.333C1.12317 60.333 0.734371 60.172 0.447708 59.8853C0.161045 59.5986 0 59.2098 0 58.8044V54.3563C0 53.9509 0.161045 53.5621 0.447708 53.2755C0.734371 52.9888 1.12317 52.8278 1.52857 52.8278C1.93397 52.8278 2.32277 52.9888 2.60944 53.2755C2.8961 53.5621 3.05714 53.9509 3.05714 54.3563V58.8044C3.05714 59.2098 2.8961 59.5986 2.60944 59.8853C2.32277 60.172 1.93397 60.333 1.52857 60.333Z" fill="#B79347"/>
<path d="M27.5143 107H1.52857C1.12317 107 0.734371 106.839 0.447708 106.552C0.161045 106.266 0 105.877 0 105.471V84.7441C0 84.3387 0.161045 83.9499 0.447708 83.6632C0.734371 83.3766 1.12317 83.2155 1.52857 83.2155C1.93397 83.2155 2.32277 83.3766 2.60944 83.6632C2.8961 83.9499 3.05714 84.3387 3.05714 84.7441V103.943H25.9857V18.3433H3.05714V43.6563C3.05714 44.0617 2.8961 44.4505 2.60944 44.7371C2.32277 45.0238 1.93397 45.1849 1.52857 45.1849C1.12317 45.1849 0.734371 45.0238 0.447708 44.7371C0.161045 44.4505 0 44.0617 0 43.6563V16.8147C0 16.4093 0.161045 16.0205 0.447708 15.7338C0.734371 15.4472 1.12317 15.2861 1.52857 15.2861H27.5143C27.9197 15.2861 28.3085 15.4472 28.5952 15.7338C28.8818 16.0205 29.0429 16.4093 29.0429 16.8147V105.471C29.0429 105.877 28.8818 106.266 28.5952 106.552C28.3085 106.839 27.9197 107 27.5143 107Z" fill="#B79347"/>
<path d="M1.52857 75.5725C1.12317 75.5725 0.734371 75.4115 0.447708 75.1248C0.161045 74.8382 0 74.4494 0 74.044V69.5042C0 69.0987 0.161045 68.71 0.447708 68.4233C0.734371 68.1366 1.12317 67.9756 1.52857 67.9756C1.93397 67.9756 2.32277 68.1366 2.60944 68.4233C2.8961 68.71 3.05714 69.0987 3.05714 69.5042V74.044C3.05714 74.4494 2.8961 74.8382 2.60944 75.1248C2.32277 75.4115 1.93397 75.5725 1.52857 75.5725Z" fill="#B79347"/>
<path d="M27.5143 37.7056H12.7376C12.3322 37.7056 11.9434 37.5446 11.6567 37.2579C11.37 36.9712 11.209 36.5824 11.209 36.177V28.0237C11.209 27.6183 11.37 27.2295 11.6567 26.9428C11.9434 26.6562 12.3322 26.4951 12.7376 26.4951H27.5143C27.9197 26.4951 28.3085 26.6562 28.5951 26.9428C28.8818 27.2295 29.0428 27.6183 29.0428 28.0237V36.177C29.0428 36.5824 28.8818 36.9712 28.5951 37.2579C28.3085 37.5446 27.9197 37.7056 27.5143 37.7056ZM14.2661 34.6485H25.9857V29.5522H14.2661V34.6485Z" fill="#B79347"/>
<path d="M27.5143 57.0663H12.7376C12.3322 57.0663 11.9434 56.9052 11.6567 56.6186C11.37 56.3319 11.209 55.9431 11.209 55.5377V47.3859C11.209 46.9805 11.37 46.5917 11.6567 46.305C11.9434 46.0183 12.3322 45.8573 12.7376 45.8573H27.5143C27.9197 45.8573 28.3085 46.0183 28.5951 46.305C28.8818 46.5917 29.0428 46.9805 29.0428 47.3859V55.5377C29.0428 55.9431 28.8818 56.3319 28.5951 56.6186C28.3085 56.9052 27.9197 57.0663 27.5143 57.0663ZM14.2661 54.0091H25.9857V48.9144H14.2661V54.0091Z" fill="#B79347"/>
<path d="M27.5143 76.4288H12.7376C12.3322 76.4288 11.9434 76.2678 11.6567 75.9811C11.37 75.6944 11.209 75.3056 11.209 74.9002V66.7484C11.209 66.343 11.37 65.9542 11.6567 65.6676C11.9434 65.3809 12.3322 65.2198 12.7376 65.2198H27.5143C27.9197 65.2198 28.3085 65.3809 28.5951 65.6676C28.8818 65.9542 29.0428 66.343 29.0428 66.7484V74.9002C29.0428 75.3056 28.8818 75.6944 28.5951 75.9811C28.3085 76.2678 27.9197 76.4288 27.5143 76.4288ZM14.2661 73.3717H25.9857V68.277H14.2661V73.3717Z" fill="#B79347"/>
<path d="M27.5143 95.7911H12.7376C12.3322 95.7911 11.9434 95.63 11.6567 95.3434C11.37 95.0567 11.209 94.6679 11.209 94.2625V86.1091C11.209 85.7037 11.37 85.3149 11.6567 85.0283C11.9434 84.7416 12.3322 84.5806 12.7376 84.5806H27.5143C27.9197 84.5806 28.3085 84.7416 28.5951 85.0283C28.8818 85.3149 29.0428 85.7037 29.0428 86.1091V94.2625C29.0428 94.6679 28.8818 95.0567 28.5951 95.3434C28.3085 95.63 27.9197 95.7911 27.5143 95.7911ZM14.2661 92.7339H25.9857V87.6377H14.2661V92.7339Z" fill="#B79347"/>
<path d="M69.3588 36.0166H60.2837C59.8783 36.0166 59.4895 35.8556 59.2028 35.5689C58.9162 35.2822 58.7551 34.8935 58.7551 34.4881V25.413C58.7551 25.0076 58.9162 24.6188 59.2028 24.3321C59.4895 24.0454 59.8783 23.8844 60.2837 23.8844H69.3588C69.7642 23.8844 70.153 24.0454 70.4397 24.3321C70.7264 24.6188 70.8874 25.0076 70.8874 25.413V34.4881C70.8874 34.8935 70.7264 35.2822 70.4397 35.5689C70.153 35.8556 69.7642 36.0166 69.3588 36.0166ZM61.8123 32.9595H67.8303V26.9415H61.8123V32.9595Z" fill="#B79347"/>
<path d="M46.716 36.0166H37.6409C37.2355 36.0166 36.8467 35.8556 36.56 35.5689C36.2733 35.2822 36.1123 34.8935 36.1123 34.4881V25.413C36.1123 25.0076 36.2733 24.6188 36.56 24.3321C36.8467 24.0454 37.2355 23.8844 37.6409 23.8844H46.716C47.1214 23.8844 47.5102 24.0454 47.7969 24.3321C48.0835 24.6188 48.2446 25.0076 48.2446 25.413V34.4881C48.2446 34.8935 48.0835 35.2822 47.7969 35.5689C47.5102 35.8556 47.1214 36.0166 46.716 36.0166ZM39.1694 32.9595H45.1874V26.9415H39.1694V32.9595Z" fill="#B79347"/>
<path d="M69.3588 54.9814H60.2837C59.8783 54.9814 59.4895 54.8204 59.2028 54.5337C58.9162 54.247 58.7551 53.8582 58.7551 53.4528V44.3762C58.7551 43.9708 58.9162 43.582 59.2028 43.2954C59.4895 43.0087 59.8783 42.8477 60.2837 42.8477H69.3588C69.7642 42.8477 70.153 43.0087 70.4397 43.2954C70.7264 43.582 70.8874 43.9708 70.8874 44.3762V53.4528C70.8874 53.8582 70.7264 54.247 70.4397 54.5337C70.153 54.8204 69.7642 54.9814 69.3588 54.9814ZM61.8123 51.9243H67.8303V45.9048H61.8123V51.9243Z" fill="#B79347"/>
<path d="M46.716 54.9814H37.6409C37.2355 54.9814 36.8467 54.8204 36.56 54.5337C36.2733 54.247 36.1123 53.8582 36.1123 53.4528V44.3762C36.1123 43.9708 36.2733 43.582 36.56 43.2954C36.8467 43.0087 37.2355 42.8477 37.6409 42.8477H46.716C47.1214 42.8477 47.5102 43.0087 47.7969 43.2954C48.0835 43.582 48.2446 43.9708 48.2446 44.3762V53.4528C48.2446 53.8582 48.0835 54.247 47.7969 54.5337C47.5102 54.8204 47.1214 54.9814 46.716 54.9814ZM39.1694 51.9243H45.1874V45.9048H39.1694V51.9243Z" fill="#B79347"/>
<path d="M69.3588 73.9447H60.2837C59.8783 73.9447 59.4895 73.7837 59.2028 73.497C58.9162 73.2103 58.7551 72.8216 58.7551 72.4162V63.3411C58.7551 62.9357 58.9162 62.5469 59.2028 62.2602C59.4895 61.9735 59.8783 61.8125 60.2837 61.8125H69.3588C69.7642 61.8125 70.153 61.9735 70.4397 62.2602C70.7264 62.5469 70.8874 62.9357 70.8874 63.3411V72.4162C70.8874 72.8216 70.7264 73.2103 70.4397 73.497C70.153 73.7837 69.7642 73.9447 69.3588 73.9447ZM61.8123 70.8876H67.8303V64.8696H61.8123V70.8876Z" fill="#B79347"/>
<path d="M46.716 73.9447H37.6409C37.2355 73.9447 36.8467 73.7837 36.56 73.497C36.2733 73.2103 36.1123 72.8216 36.1123 72.4162V63.3411C36.1123 62.9357 36.2733 62.5469 36.56 62.2602C36.8467 61.9735 37.2355 61.8125 37.6409 61.8125H46.716C47.1214 61.8125 47.5102 61.9735 47.7969 62.2602C48.0835 62.5469 48.2446 62.9357 48.2446 63.3411V72.4162C48.2446 72.8216 48.0835 73.2103 47.7969 73.497C47.5102 73.7837 47.1214 73.9447 46.716 73.9447ZM39.1694 70.8876H45.1874V64.8696H39.1694V70.8876Z" fill="#B79347"/>
<path d="M69.3588 92.9081H60.2837C59.8783 92.9081 59.4895 92.747 59.2028 92.4604C58.9162 92.1737 58.7551 91.7849 58.7551 91.3795V82.3044C58.7551 81.899 58.9162 81.5102 59.2028 81.2236C59.4895 80.9369 59.8783 80.7759 60.2837 80.7759H69.3588C69.7642 80.7759 70.153 80.9369 70.4397 81.2236C70.7264 81.5102 70.8874 81.899 70.8874 82.3044V91.3795C70.8874 91.7849 70.7264 92.1737 70.4397 92.4604C70.153 92.747 69.7642 92.9081 69.3588 92.9081ZM61.8123 89.851H67.8303V83.833H61.8123V89.851Z" fill="#B79347"/>
<path d="M46.716 92.9081H37.6409C37.2355 92.9081 36.8467 92.747 36.56 92.4604C36.2733 92.1737 36.1123 91.7849 36.1123 91.3795V82.3044C36.1123 81.899 36.2733 81.5102 36.56 81.2236C36.8467 80.9369 37.2355 80.7759 37.6409 80.7759H46.716C47.1214 80.7759 47.5102 80.9369 47.7969 81.2236C48.0835 81.5102 48.2446 81.899 48.2446 82.3044V91.3795C48.2446 91.7849 48.0835 92.1737 47.7969 92.4604C47.5102 92.747 47.1214 92.9081 46.716 92.9081ZM39.1694 89.851H45.1874V83.833H39.1694V89.851Z" fill="#B79347"/>
<path d="M98.657 50.9522H86.3001C85.8947 50.9522 85.5059 50.7912 85.2192 50.5045C84.9325 50.2179 84.7715 49.8291 84.7715 49.4237V42.2914C84.7715 41.886 84.9325 41.4972 85.2192 41.2105C85.5059 40.9239 85.8947 40.7628 86.3001 40.7628H98.657C99.0624 40.7628 99.4512 40.9239 99.7379 41.2105C100.025 41.4972 100.186 41.886 100.186 42.2914V49.4237C100.186 49.8291 100.025 50.2179 99.7379 50.5045C99.4512 50.7912 99.0624 50.9522 98.657 50.9522ZM87.8286 47.8951H97.1285V43.8199H87.8286V47.8951Z" fill="#B79347"/>
<path d="M98.657 66.2376H86.3001C85.8947 66.2376 85.5059 66.0766 85.2192 65.7899C84.9325 65.5033 84.7715 65.1145 84.7715 64.7091V57.5768C84.7715 57.1714 84.9325 56.7826 85.2192 56.4959C85.5059 56.2093 85.8947 56.0482 86.3001 56.0482H98.657C99.0624 56.0482 99.4512 56.2093 99.7379 56.4959C100.025 56.7826 100.186 57.1714 100.186 57.5768V64.7091C100.186 65.1145 100.025 65.5033 99.7379 65.7899C99.4512 66.0766 99.0624 66.2376 98.657 66.2376ZM87.8286 63.1805H97.1285V59.1053H87.8286V63.1805Z" fill="#B79347"/>
<path d="M98.657 81.5235H86.3001C85.8947 81.5235 85.5059 81.3625 85.2192 81.0758C84.9325 80.7892 84.7715 80.4004 84.7715 79.995V72.8627C84.7715 72.4573 84.9325 72.0685 85.2192 71.7818C85.5059 71.4952 85.8947 71.3341 86.3001 71.3341H98.657C99.0624 71.3341 99.4512 71.4952 99.7379 71.7818C100.025 72.0685 100.186 72.4573 100.186 72.8627V79.995C100.186 80.4004 100.025 80.7892 99.7379 81.0758C99.4512 81.3625 99.0624 81.5235 98.657 81.5235ZM87.8286 78.4664H97.1285V74.3912H87.8286V78.4664Z" fill="#B79347"/>
<path d="M98.657 96.809H86.3001C85.8947 96.809 85.5059 96.648 85.2192 96.3613C84.9325 96.0747 84.7715 95.6859 84.7715 95.2805V88.1482C84.7715 87.7428 84.9325 87.354 85.2192 87.0673C85.5059 86.7807 85.8947 86.6196 86.3001 86.6196H98.657C99.0624 86.6196 99.4512 86.7807 99.7379 87.0673C100.025 87.354 100.186 87.7428 100.186 88.1482V95.2805C100.186 95.6859 100.025 96.0747 99.7379 96.3613C99.4512 96.648 99.0624 96.809 98.657 96.809ZM87.8286 93.7519H97.1285V89.6768H87.8286V93.7519Z" fill="#B79347"/>
</svg>
