<svg width="63" height="79" viewBox="0 0 63 79" fill="none" xmlns="http://www.w3.org/2000/svg">
<path d="M51.0069 7.41867L18.1374 0.0357654C17.9354 -0.00876429 17.7248 -0.0117525 17.5214 0.0270236C17.3179 0.0657997 17.1268 0.14534 16.9623 0.259713C16.7982 0.374714 16.6654 0.521807 16.5741 0.689819C16.4827 0.857831 16.4352 1.04234 16.4351 1.22933V77.5193C16.4351 77.7064 16.4825 77.891 16.5738 78.0591C16.6652 78.2271 16.7979 78.3743 16.962 78.4894C17.1262 78.6044 17.3173 78.6844 17.521 78.7231C17.7247 78.7619 17.9355 78.7584 18.1374 78.7129L51.0069 71.33C51.3031 71.2634 51.5659 71.1097 51.7538 70.8934C51.9416 70.6772 52.0437 70.4108 52.0437 70.1364V8.61224C52.0437 8.33793 51.9416 8.07149 51.7538 7.85524C51.5659 7.63898 51.3031 7.48533 51.0069 7.41867ZM49.3045 69.1754L19.1742 75.9431V2.80558L49.3045 9.57325V69.1754Z" fill="white"/>
<path d="M12.3261 9.8428C12.6893 9.8428 13.0376 9.71316 13.2945 9.4824C13.5513 9.25164 13.6956 8.93866 13.6956 8.61232C13.6956 8.28598 13.5513 7.973 13.2945 7.74224C13.0376 7.51148 12.6893 7.38184 12.3261 7.38184H1.36956C1.00633 7.38184 0.657978 7.51148 0.401136 7.74224C0.144293 7.973 0 8.28598 0 8.61232V70.1365C0 70.4629 0.144293 70.7758 0.401136 71.0066C0.657978 71.2374 1.00633 71.367 1.36956 71.367H6.84781C7.21104 71.367 7.55939 71.2374 7.81623 71.0066C8.07308 70.7758 8.21737 70.4629 8.21737 70.1365V14.7647H12.3261C12.6893 14.7647 13.0376 14.6351 13.2945 14.4043C13.5513 14.1736 13.6956 13.8606 13.6956 13.5343C13.6956 13.2079 13.5513 12.8949 13.2945 12.6642C13.0376 12.4334 12.6893 12.3038 12.3261 12.3038H6.84781C6.48458 12.3038 6.13622 12.4334 5.87938 12.6642C5.62254 12.8949 5.47825 13.2079 5.47825 13.5343V68.906H2.73912V9.8428H12.3261Z" fill="white"/>
<path d="M61.6305 7.38184H56.1523C55.789 7.38184 55.4407 7.51148 55.1838 7.74224C54.927 7.973 54.7827 8.28598 54.7827 8.61232C54.7827 8.93866 54.927 9.25164 55.1838 9.4824C55.4407 9.71316 55.789 9.8428 56.1523 9.8428H60.261V68.906H57.5218V13.5343C57.5218 13.2079 57.3775 12.8949 57.1207 12.6642C56.8639 12.4334 56.5155 12.3038 56.1523 12.3038C55.789 12.3038 55.4407 12.4334 55.1838 12.6642C54.927 12.8949 54.7827 13.2079 54.7827 13.5343V70.1365C54.7827 70.4629 54.927 70.7758 55.1838 71.0066C55.4407 71.2374 55.789 71.367 56.1523 71.367H61.6305C61.9938 71.367 62.3421 71.2374 62.5989 71.0066C62.8558 70.7758 63.0001 70.4629 63.0001 70.1365V8.61232C63.0001 8.28598 62.8558 7.973 62.5989 7.74224C62.3421 7.51148 61.9938 7.38184 61.6305 7.38184Z" fill="white"/>
<path d="M26.0213 43.0655C26.8339 43.0655 27.6283 42.849 28.3039 42.4434C28.9796 42.0378 29.5062 41.4613 29.8172 40.7867C30.1282 40.1122 30.2096 39.37 30.051 38.6539C29.8925 37.9378 29.5012 37.2801 28.9266 36.7638C28.352 36.2476 27.6199 35.896 26.8228 35.7535C26.0258 35.6111 25.1997 35.6842 24.449 35.9636C23.6982 36.243 23.0565 36.7162 22.605 37.3232C22.1536 37.9303 21.9126 38.644 21.9126 39.3741C21.9126 40.3531 22.3455 41.292 23.116 41.9843C23.8865 42.6766 24.9316 43.0655 26.0213 43.0655ZM26.0213 38.1436C26.2922 38.1436 26.5569 38.2158 26.7822 38.351C27.0074 38.4862 27.1829 38.6783 27.2866 38.9032C27.3903 39.128 27.4174 39.3754 27.3645 39.6141C27.3117 39.8528 27.1812 40.0721 26.9897 40.2442C26.7982 40.4162 26.5541 40.5334 26.2885 40.5809C26.0228 40.6284 25.7474 40.604 25.4972 40.5109C25.2469 40.4178 25.033 40.26 24.8825 40.0577C24.732 39.8553 24.6517 39.6174 24.6517 39.3741C24.6517 39.0477 24.796 38.7347 25.0529 38.504C25.3097 38.2732 25.6581 38.1436 26.0213 38.1436Z" fill="white"/>
</svg>
