<svg width="63" height="63" viewBox="0 0 63 63" fill="none" xmlns="http://www.w3.org/2000/svg">
<path d="M31.5 0C14.1298 0 0 14.1312 0 31.5C0 48.8688 14.1298 63 31.5 63C48.8702 63 63 48.8688 63 31.5C63 14.1312 48.8702 0 31.5 0ZM44.0226 32.6036L25.6476 44.4161C25.4323 44.5558 25.1836 44.625 24.9375 44.625C24.7222 44.625 24.5043 44.5711 24.3095 44.4648C23.8865 44.2341 23.625 43.7931 23.625 43.3125V19.6875C23.625 19.2069 23.8865 18.7659 24.3095 18.5352C24.7248 18.307 25.2452 18.3211 25.6476 18.5839L44.0226 30.3964C44.3969 30.6373 44.625 31.054 44.625 31.5C44.625 31.946 44.3969 32.3626 44.0226 32.6036Z" fill="white"/>
</svg>
