<svg width="62" height="78" viewBox="0 0 62 78" fill="none" xmlns="http://www.w3.org/2000/svg">
<path d="M45.7371 27.4098C46.4178 27.4949 47.0366 26.9935 47.1188 26.2902C48.3065 16.1349 40.6167 7.23438 30.786 7.23438C21.714 7.23438 14.3335 14.8592 14.3335 24.2311C14.3335 33.603 21.714 41.2277 30.786 41.2277C36.1725 41.2277 41.2261 38.4964 44.3042 33.9214C44.6957 33.3397 44.5564 32.5404 43.9933 32.136C43.4305 31.7317 42.6565 31.8754 42.265 32.4571C39.6508 36.3425 35.3596 38.6622 30.786 38.6622C23.0834 38.6622 16.8169 32.1884 16.8169 24.2311C16.8169 16.2737 23.0834 9.79991 30.786 9.79991C39.1122 9.79991 45.6657 17.3363 44.6535 25.9824C44.5712 26.6856 45.0564 27.3248 45.7371 27.4098Z" fill="white"/>
<path d="M38.301 59.503H38.036V46.7554C47.0726 43.6435 53.7573 34.8352 53.7573 24.2312C53.7573 11.1459 43.4523 0.5 30.7859 0.5C18.1195 0.5 7.81445 11.1459 7.81445 24.2312C7.81445 37.0905 17.708 47.5786 30.104 47.9522C30.7912 47.9741 31.3616 47.4155 31.3814 46.7074C31.4015 45.9992 30.8619 45.4084 30.1765 45.3878C19.0298 45.0517 10.298 35.7587 10.298 24.2312C10.298 12.5604 19.4889 3.06554 30.786 3.06554C42.0832 3.06554 51.2741 12.5604 51.2741 24.2312C51.2741 33.6222 45.1789 41.9889 36.4518 44.5775C35.9195 44.7355 35.5528 45.2385 35.5528 45.8104V60.7858C35.5528 61.4942 36.1087 62.0686 36.7945 62.0686H38.3011C38.87 62.0686 39.2058 62.7252 38.885 63.2107L31.3701 74.582C31.0899 75.0059 30.4835 75.0074 30.2024 74.582L22.6875 63.2107C22.3669 62.7253 22.7023 62.0686 23.2714 62.0686H24.7781C25.4638 62.0686 26.0198 61.4942 26.0198 60.7858V52.7986C26.0198 52.0902 25.4638 51.5159 24.7781 51.5159C24.0923 51.5159 23.5364 52.0902 23.5364 52.7986V59.503H23.2714C20.7109 59.503 19.1918 62.4712 20.6365 64.6574L28.1515 76.0286C29.4152 77.9409 32.1533 77.947 33.4211 76.0286L40.936 64.6574C42.3796 62.4726 40.8634 59.503 38.301 59.503Z" fill="white"/>
<path d="M13.823 53.876V46.0455C13.823 45.3371 13.2671 44.7627 12.5813 44.7627C11.8956 44.7627 11.3396 45.3371 11.3396 46.0455V55.0389C11.3396 55.7474 11.8956 56.3217 12.5813 56.3217H12.9796C13.4791 56.3217 13.7741 56.8983 13.4923 57.3247L8.5556 64.7946C8.30866 65.1682 7.77737 65.1687 7.53011 64.7946L2.59343 57.3247C2.31187 56.8986 2.60631 56.3217 3.1061 56.3217H3.50437C4.1901 56.3217 4.74607 55.7474 4.74607 55.0389V33.8521C4.74607 33.1437 4.1901 32.5693 3.50437 32.5693C2.81864 32.5693 2.26267 33.1437 2.26267 33.8521V53.876C0.237151 54.4643 -0.661218 56.9501 0.542454 58.7713L5.47914 66.2412C6.70857 68.1017 9.37295 68.1078 10.6066 66.2412L15.5433 58.7713C16.7465 56.9508 15.8495 54.4644 13.823 53.876Z" fill="white"/>
<path d="M59.3093 53.876V33.8521C59.3093 33.1437 58.7533 32.5693 58.0676 32.5693C57.3819 32.5693 56.8259 33.1437 56.8259 33.8521V55.0389C56.8259 55.7474 57.3819 56.3217 58.0676 56.3217H58.4659C58.9652 56.3217 59.2604 56.8983 58.9785 57.3247L54.0418 64.7946C53.7949 65.1682 53.2636 65.1687 53.0164 64.7946L48.0797 57.3247C47.798 56.8985 48.0926 56.3217 48.5923 56.3217H48.9906C49.6763 56.3217 50.2323 55.7474 50.2323 55.0389V46.0455C50.2323 45.3371 49.6763 44.7627 48.9906 44.7627C48.3049 44.7627 47.7489 45.3371 47.7489 46.0455V53.876C45.7183 54.4657 44.8275 56.9538 46.0287 58.7713L50.9654 66.2412C52.195 68.102 54.8593 68.1076 56.0928 66.2412L61.0295 58.7713C62.2352 56.9469 61.3319 54.4633 59.3093 53.876Z" fill="white"/>
<path d="M30.7867 36.4176C31.4724 36.4176 32.0284 35.8432 32.0284 35.1348V33.4175C34.766 32.9323 36.8279 30.8842 36.8279 28.4381C36.8279 24.5901 33.4753 23.8878 31.0274 23.3748C28.1215 22.766 27.2168 22.3352 27.2168 20.826C27.2168 19.4582 28.8489 18.3026 30.7806 18.3026C32.0995 18.3026 33.3104 18.8306 33.9412 19.6806C34.3584 20.243 35.1376 20.3494 35.6821 19.9183C36.2263 19.4873 36.3293 18.6822 35.9121 18.1198C35.0286 16.9293 33.628 16.1232 32.0284 15.8455V14.1294C32.0284 13.421 31.4724 12.8467 30.7867 12.8467C30.101 12.8467 29.545 13.421 29.545 14.1294V15.8443C26.8011 16.3257 24.7334 18.3764 24.7334 20.826C24.7334 24.674 28.086 25.3763 30.5338 25.8892C33.4397 26.4981 34.3445 26.9289 34.3445 28.4381C34.3445 29.8058 32.7124 30.9615 30.7806 30.9615C29.4618 30.9615 28.2508 30.4334 27.62 29.5834C27.2028 29.0211 26.4237 28.9146 25.8792 29.3458C25.335 29.7768 25.2319 30.5819 25.6492 31.1443C26.5348 32.3379 27.9402 33.1451 29.545 33.421V35.1348C29.545 35.8432 30.1008 36.4176 30.7867 36.4176Z" fill="white"/>
</svg>
