<svg width="20" height="20" viewBox="0 0 20 20" fill="none" xmlns="http://www.w3.org/2000/svg">
<path d="M17.9167 15H15.4167C15.1867 15 15 14.8133 15 14.5833C15 14.3533 15.1867 14.1667 15.4167 14.1667H17.9167C18.6058 14.1667 19.1667 13.6058 19.1667 12.9167V7.08333C19.1667 6.39417 18.6058 5.83333 17.9167 5.83333H2.08333C1.39417 5.83333 0.833333 6.39417 0.833333 7.08333V12.9167C0.833333 13.6058 1.39417 14.1667 2.08333 14.1667H4.58333C4.81333 14.1667 5 14.3533 5 14.5833C5 14.8133 4.81333 15 4.58333 15H2.08333C0.934167 15 0 14.065 0 12.9167V7.08333C0 5.935 0.934167 5 2.08333 5H17.9167C19.0658 5 20 5.935 20 7.08333V12.9167C20 14.065 19.0658 15 17.9167 15Z" fill="#636363"/>
<path d="M12.0837 17.5H7.08366C6.85366 17.5 6.66699 17.3133 6.66699 17.0833C6.66699 16.8533 6.85366 16.6667 7.08366 16.6667H12.0837C12.3137 16.6667 12.5003 16.8533 12.5003 17.0833C12.5003 17.3133 12.3137 17.5 12.0837 17.5Z" fill="#636363"/>
<path d="M12.0837 15.8333H7.08366C6.85366 15.8333 6.66699 15.6467 6.66699 15.4167C6.66699 15.1867 6.85366 15 7.08366 15H12.0837C12.3137 15 12.5003 15.1867 12.5003 15.4167C12.5003 15.6467 12.3137 15.8333 12.0837 15.8333Z" fill="#636363"/>
<path d="M8.75033 14.1667H7.08366C6.85366 14.1667 6.66699 13.98 6.66699 13.75C6.66699 13.52 6.85366 13.3333 7.08366 13.3333H8.75033C8.98033 13.3333 9.16699 13.52 9.16699 13.75C9.16699 13.98 8.98033 14.1667 8.75033 14.1667Z" fill="#636363"/>
<path d="M15.417 5.83333C15.187 5.83333 15.0003 5.64667 15.0003 5.41667V2.08333C15.0003 1.39417 14.4395 0.833333 13.7503 0.833333H6.25033C5.56116 0.833333 5.00033 1.39417 5.00033 2.08333V5.41667C5.00033 5.64667 4.81366 5.83333 4.58366 5.83333C4.35366 5.83333 4.16699 5.64667 4.16699 5.41667V2.08333C4.16699 0.935 5.10116 0 6.25033 0H13.7503C14.8995 0 15.8337 0.935 15.8337 2.08333V5.41667C15.8337 5.64667 15.647 5.83333 15.417 5.83333Z" fill="#636363"/>
<path d="M13.7503 20H6.25033C5.10116 20 4.16699 19.065 4.16699 17.9167V11.25C4.16699 11.02 4.35366 10.8333 4.58366 10.8333H15.417C15.647 10.8333 15.8337 11.02 15.8337 11.25V17.9167C15.8337 19.065 14.8995 20 13.7503 20ZM5.00033 11.6667V17.9167C5.00033 18.6058 5.56116 19.1667 6.25033 19.1667H13.7503C14.4395 19.1667 15.0003 18.6058 15.0003 17.9167V11.6667H5.00033Z" fill="#636363"/>
</svg>
