<svg width="70" height="70" viewBox="0 0 70 70" fill="none" xmlns="http://www.w3.org/2000/svg">
<path d="M54.67 31.5882C49.1659 26.0828 40.5398 25.2327 34.0672 29.5576C27.5945 33.8826 25.0778 42.178 28.0563 49.3708C31.0349 56.5636 38.679 60.6507 46.3139 59.1323C53.9488 57.6139 59.4481 50.9132 59.4486 43.1279C59.4611 38.7974 57.7404 34.6419 54.67 31.5882ZM53.0209 53.0185C48.3026 57.737 40.9087 58.4651 35.361 54.7574C29.8133 51.0497 27.6569 43.9391 30.2106 37.774C32.7642 31.609 39.3168 28.1064 45.8608 29.4086C52.4049 30.7108 57.1179 36.4548 57.1176 43.128C57.1278 46.8397 55.6527 50.4013 53.0209 53.0185Z" fill="white"/>
<path fill-rule="evenodd" clip-rule="evenodd" d="M43.1315 31.4722C40.0387 31.4632 37.0711 32.6932 34.8915 34.8876C34.5885 35.1803 34.467 35.6136 34.5737 36.0211C34.6804 36.4287 34.9985 36.7469 35.406 36.8536C35.8135 36.9603 36.2469 36.8388 36.5395 36.5357C38.2833 34.7803 40.6573 33.7962 43.1315 33.8035C43.7752 33.8035 44.297 33.2816 44.297 32.6378C44.297 31.994 43.7752 31.4722 43.1315 31.4722Z" fill="white"/>
<path d="M64.7307 58.137C64.1412 57.5515 63.284 57.3254 62.4825 57.5437L60.2192 55.2731C66.1628 46.9375 65.21 35.5262 57.9663 28.292C57.5002 27.8258 57.0036 27.3805 56.4978 26.9608C56.8102 26.7223 57.0916 26.4459 57.3358 26.1379C58.884 24.0842 58.4889 21.1664 56.45 19.5987L31.9743 0.948558C30.3014 -0.316186 27.9922 -0.316186 26.3193 0.948558L18.6562 6.78718V4.66233C18.6562 3.37485 17.6126 2.33108 16.3253 2.33108H9.33223C8.0449 2.33108 7.00126 3.37485 7.00126 4.66233V15.6694L1.8404 19.6011C0.246431 20.8133 -0.395426 22.9082 0.245731 24.8054C0.886889 26.7026 2.66776 27.9785 4.67029 27.9751V57.116C4.67029 58.4034 5.71393 59.4472 7.00126 59.4472H29.9522C37.26 65.3644 47.6169 65.6801 55.2714 60.2188L57.5406 62.4953C57.3289 63.2935 57.5565 64.1441 58.1385 64.7299L61.9846 68.5764C63.1551 69.7885 64.8885 70.2746 66.5185 69.8479C68.1485 69.4213 69.4213 68.1481 69.8479 66.5181C70.2746 64.8879 69.7886 63.1543 68.5766 61.9837L64.7307 58.137ZM9.33223 4.66233H16.3253V8.56372L9.33223 13.893V4.66233ZM2.81362 24.731C2.0378 23.7024 2.23485 22.2408 3.2554 21.4544L27.7308 2.80428C28.5654 2.16129 29.7283 2.16129 30.5631 2.80428L55.0385 21.4544C56.0558 22.2385 56.255 23.6941 55.4861 24.7229C55.2248 25.0657 54.8727 25.3285 54.4697 25.4816C52.9437 24.4964 51.2947 23.7162 49.5653 23.1609L29.8521 8.12994C29.4349 7.81206 28.8567 7.81206 28.4395 8.12994L6.08867 25.1693C5.061 25.944 3.60158 25.7487 2.81362 24.731ZM7.00126 27.3398C7.17359 27.2455 7.33985 27.1403 7.49889 27.0251L29.1457 10.5219L44.4767 22.2121C44.0292 22.1842 43.5839 22.1468 43.1318 22.1468C37.5648 22.1316 32.223 24.3443 28.2974 28.292C27.3249 29.2649 26.4489 30.3299 25.682 31.4718H20.9872C19.0562 31.4718 17.4907 33.0374 17.4907 34.9687V57.1159H7.00126V27.3398ZM19.8217 34.9688C19.8217 34.325 20.3435 33.8032 20.9872 33.8032H24.3497C20.5155 41.4885 21.7766 50.7378 27.528 57.116H19.8217V34.9688ZM29.9464 56.3151C23.656 50.0232 22.6856 40.1634 27.6288 32.7657C32.572 25.368 42.0519 22.4927 50.2709 25.8983C58.4899 29.3038 63.159 38.0417 61.4227 46.7682C59.6863 55.4946 52.0282 61.7792 43.1317 61.7784C38.1834 61.7921 33.4353 59.8248 29.9464 56.3151ZM57.9661 57.9645C58.2423 57.6871 58.4894 57.3899 58.7492 57.0996L60.6071 58.9647L58.9568 60.613L57.099 58.7479C57.3892 58.4902 57.6875 58.2419 57.9661 57.9645ZM66.9241 66.9236C66.0019 67.8046 64.5502 67.8046 63.6281 66.9236L59.7819 63.077L63.078 59.7806L66.9241 63.6272C67.8341 64.5376 67.8341 66.0133 66.9241 66.9236Z" fill="white"/>
</svg>
