<svg width="113" height="111" viewBox="0 0 113 111" fill="none" xmlns="http://www.w3.org/2000/svg">
<path d="M8.57959 97.931V28.2227L29.2501 10.3485L49.9206 28.2212V97.931" stroke="#B79347" stroke-width="3" stroke-miterlimit="10" stroke-linecap="round" stroke-linejoin="round"/>
<path d="M2 67.21V97.931H111V24.5926L85.7585 2.76754C84.5748 1.74403 82.9249 1.74428 81.7413 2.76754L56.5 24.5943" stroke="#B79347" stroke-width="3" stroke-miterlimit="10" stroke-linecap="round" stroke-linejoin="round"/>
<path d="M56.5 59.8307V24.5926L31.2585 2.76754C30.0748 1.74403 28.4249 1.74428 27.2413 2.76754L2 24.5943V59.831" stroke="#B79347" stroke-width="3" stroke-miterlimit="10" stroke-linecap="round" stroke-linejoin="round"/>
<path d="M56.5 97.931V67.21" stroke="#B79347" stroke-width="3" stroke-miterlimit="10" stroke-linecap="round" stroke-linejoin="round"/>
<path d="M43.3411 52.4514V31.9124L15.159 31.9124L15.159 52.4514L43.3411 52.4514Z" stroke="#B79347" stroke-width="3" stroke-miterlimit="10" stroke-linecap="round" stroke-linejoin="round"/>
<path d="M49.9206 59.8304H8.57959" stroke="#B79347" stroke-width="3" stroke-miterlimit="10" stroke-linecap="round" stroke-linejoin="round"/>
<path d="M76.2384 97.931V67.21H91.2616V97.931L97.841 109H69.6589L76.2384 97.931Z" stroke="#B79347" stroke-width="3" stroke-miterlimit="10" stroke-linecap="round" stroke-linejoin="round"/>
<path d="M21.7384 97.931V67.21H36.7616V97.931L43.341 109H15.1589L21.7384 97.931Z" stroke="#B79347" stroke-width="3" stroke-miterlimit="10" stroke-linecap="round" stroke-linejoin="round"/>
<path d="M21.7385 90.5518H36.7617" stroke="#B79347" stroke-width="3" stroke-miterlimit="10" stroke-linecap="round" stroke-linejoin="round"/>
<path d="M63.0796 97.931V28.2227L83.7501 10.3485L104.421 28.2212V97.931" stroke="#B79347" stroke-width="3" stroke-miterlimit="10" stroke-linecap="round" stroke-linejoin="round"/>
<path d="M97.8411 52.4514V31.9124L69.659 31.9124V52.4514L97.8411 52.4514Z" stroke="#B79347" stroke-width="3" stroke-miterlimit="10" stroke-linecap="round" stroke-linejoin="round"/>
<path d="M104.421 59.8304H63.0796" stroke="#B79347" stroke-width="3" stroke-miterlimit="10" stroke-linecap="round" stroke-linejoin="round"/>
<path d="M76.2385 90.5518H91.2617" stroke="#B79347" stroke-width="3" stroke-miterlimit="10" stroke-linecap="round" stroke-linejoin="round"/>
</svg>
