<svg width="66" height="60" viewBox="0 0 66 60" fill="none" xmlns="http://www.w3.org/2000/svg">
<path d="M24.75 28.5716C17.1682 28.5716 11 22.163 11 14.2858C11 6.40861 17.1682 0 24.75 0C32.3317 0 38.5 6.40861 38.5 14.2858C38.5 22.163 32.3317 28.5716 24.75 28.5716ZM24.75 2.85716C18.6835 2.85716 13.75 7.9829 13.75 14.2858C13.75 20.5887 18.6835 25.7144 24.75 25.7144C30.8165 25.7144 35.75 20.5887 35.75 14.2858C35.75 7.9829 30.8165 2.85716 24.75 2.85716Z" fill="white"/>
<path d="M48.125 60.0001H1.375C0.616 60.0001 0 59.3601 0 58.5715V47.1429C0 40.0542 5.55225 34.2856 12.375 34.2856H37.125C43.9478 34.2856 49.5 40.0542 49.5 47.1429V58.5715C49.5 59.3601 48.884 60.0001 48.125 60.0001ZM2.75 57.1429H46.75V47.1429C46.75 41.6285 42.4325 37.1428 37.125 37.1428H12.375C7.0675 37.1428 2.75 41.6285 2.75 47.1429V57.1429Z" fill="white"/>
<path d="M64.625 28.5715H42.625C41.866 28.5715 41.25 27.9315 41.25 27.1429C41.25 26.3544 41.866 25.7144 42.625 25.7144H64.625C65.384 25.7144 66 26.3544 66 27.1429C66 27.9315 65.384 28.5715 64.625 28.5715Z" fill="white"/>
<path d="M53.6247 40.0004C53.2727 40.0004 52.9207 39.8604 52.6512 39.5833C52.115 39.0261 52.115 38.1204 52.6512 37.5633L62.6777 27.1461L52.6512 16.7289C52.115 16.1717 52.115 15.266 52.6512 14.7089C53.1875 14.1517 54.0592 14.1517 54.5955 14.7089L65.5955 26.1375C66.1317 26.6947 66.1317 27.6004 65.5955 28.1575L54.5955 39.5861C54.3287 39.8604 53.9767 40.0004 53.6247 40.0004Z" fill="white"/>
</svg>
