<svg width="125" height="107" viewBox="0 0 125 107" fill="none" xmlns="http://www.w3.org/2000/svg">
<path d="M53.2213 72.1139H46.2986C44.6153 72.1139 43.2468 73.4263 43.2468 75.0406V92.3666C43.2468 93.9809 44.6153 95.2933 46.2986 95.2933H53.2213C54.9045 95.2933 56.2731 93.9809 56.2731 92.3666V75.0406C56.2731 73.4263 54.9045 72.1139 53.2213 72.1139ZM52.611 91.7813H46.9089V75.6259H52.611V91.7813Z" fill="#B79347"/>
<path d="M81.0547 87.2466C80.0428 87.2466 79.2236 88.0331 79.2236 89.0026V92.8411C79.2236 93.8115 80.0428 94.5972 81.0547 94.5972C82.0665 94.5972 82.8857 93.8115 82.8857 92.8411V89.0026C82.8857 88.0331 82.0665 87.2466 81.0547 87.2466Z" fill="#B79347"/>
<path d="M96.9916 56.8008H95.893V42.4957C95.893 40.8814 94.5235 39.569 92.8412 39.569H78.5542C76.8719 39.569 75.5024 40.8814 75.5024 42.4957V56.8008H74.4038C72.7215 56.8008 71.3521 58.1132 71.3521 59.7275V62.8655C71.3521 64.4797 72.7215 65.7922 74.4038 65.7922H96.9916C98.6748 65.7922 100.043 64.4797 100.043 62.8655V59.7275C100.043 58.1132 98.6739 56.8008 96.9916 56.8008ZM79.1655 43.081H92.2308V56.8008H79.1655V43.081ZM96.3812 62.2801H75.0142V60.3128H96.3812V62.2801Z" fill="#B79347"/>
<path d="M123.169 103.488H116.112V95.5786H122.416C123.392 95.5786 124.241 95.1386 124.683 94.4024C125.127 93.6662 125.1 92.7415 124.611 91.9303L120.703 85.4385C121.177 85.2391 121.572 84.9163 121.827 84.491C122.271 83.7547 122.244 82.8301 121.755 82.0188L118.493 76.5999C118.861 76.3987 119.168 76.117 119.381 75.7639C119.824 75.0268 119.797 74.103 119.308 73.2918L113.796 64.1349C113.773 64.0974 113.747 64.0645 113.723 64.0288V47.0677H121.269C122.334 47.0677 123.193 46.5802 123.565 45.7626C123.938 44.9458 123.728 44.0102 123.005 43.2593L87.8716 6.84115C87.3089 6.25764 86.5164 5.9229 85.6991 5.9229C84.8808 5.9229 84.0883 6.25764 83.5257 6.84115L75.5682 15.0899H48.2178V10.5306C49.8438 10.4684 51.1475 9.18342 51.1475 7.60941V2.9267C51.1475 1.31244 49.7789 0 48.0957 0H28.5645C26.8812 0 25.5127 1.31244 25.5127 2.9267V7.60941C25.5127 9.18342 26.8164 10.4684 28.4424 10.5306V15.0899H23.9964C22.7652 15.0899 21.3623 15.7301 20.5851 16.6465L11.3611 27.5283C10.705 28.3021 10.5486 29.2377 10.9425 30.0325C11.3363 30.8263 12.1927 31.301 13.2322 31.301H17.4017V49.816H13.8159C12.5847 49.816 11.1818 50.4553 10.4046 51.3727L1.18065 62.2545C0.524521 63.0273 0.368118 63.9639 0.761986 64.7586C1.15585 65.5525 2.01225 66.0272 3.05176 66.0272H8.30078V91.6266C7.08199 93.0698 6.34956 94.9063 6.34956 96.9038C6.34956 97.2596 6.37436 97.6108 6.41918 97.9547H6.11687C4.43459 97.9547 3.06511 99.268 3.06511 100.881V103.488H1.83105C0.819206 103.488 0 104.275 0 105.244C0 106.213 0.819206 107 1.83105 107H123.169C124.181 107 125 106.213 125 105.244C125 104.275 124.181 103.488 123.169 103.488ZM120.464 92.0665H102.736L106.589 85.6662H116.611L120.464 92.0665ZM105.592 82.1542L108.731 76.9392H114.469L117.608 82.1542H105.592ZM115.162 73.4271H108.039L111.6 67.5116L115.162 73.4271ZM29.1748 3.51204H47.4854V7.02407H29.1748V3.51204ZM44.5557 10.5361V18.7309H32.1045V10.5361H44.5557ZM15.8606 27.7881L23.4213 18.868C23.5252 18.761 23.8523 18.611 23.9964 18.6019H28.4424V19.3162C28.4424 20.9304 29.8109 22.2429 31.4941 22.2429H45.166C46.8493 22.2429 48.2178 20.9304 48.2178 19.3162V18.6019H72.1798L63.3173 27.7881H15.8606ZM47.8315 45.7635C48.2044 46.5802 49.0627 47.0677 50.128 47.0677H57.6744V49.816H21.0638V47.0613H42.4805C44.1637 47.0613 45.5322 45.7488 45.5322 44.1346V36.4081C45.5322 34.7938 44.1637 33.4814 42.4805 33.4814H21.0638V31.301H59.9289L48.3923 43.2602C47.6685 44.0102 47.4596 44.9458 47.8315 45.7635ZM21.0638 43.5492V36.9934H33.7257V43.5492H21.0638ZM37.3888 43.5492V36.9934H41.8701V43.5492H37.3888ZM40.2946 103.488H6.72722V101.467H40.2946V103.488ZM14.7915 97.9547H10.1347C10.0555 97.6163 10.0117 97.2651 10.0117 96.9038C10.0117 94.2076 12.2986 92.0153 15.1091 92.0153C15.8682 92.0153 16.6025 92.1827 17.2682 92.4836C15.7471 93.6561 14.7705 95.4533 14.7705 97.4663C14.7705 97.6309 14.7781 97.7937 14.7915 97.9547ZM34.6832 94.9301C34.7948 95.67 35.3823 96.2618 36.1471 96.4035C36.9778 96.5581 37.612 97.1819 37.7779 97.9547H18.4803C18.4517 97.7955 18.4326 97.6337 18.4326 97.4672C18.4326 95.8795 19.7783 94.5881 21.4319 94.5881C21.8792 94.5881 22.3103 94.6804 22.7127 94.8624C23.1724 95.0719 23.7026 95.0874 24.1747 94.9063C24.6477 94.7253 25.0206 94.3631 25.2037 93.9085C25.9333 92.0967 27.7824 90.8794 29.8042 90.8794C32.2399 90.8794 34.337 92.6208 34.6832 94.9301ZM32.5766 87.8137V75.6258H38.2786V91.7812H37.4088C36.3846 89.9273 34.647 88.4987 32.5766 87.8137ZM23.8905 89.6456C23.3917 90.0983 22.9464 90.6078 22.5697 91.1684C22.1968 91.1062 21.8172 91.0751 21.4319 91.0751C21.4214 91.0751 21.4119 91.076 21.4014 91.076C20.5002 90.1852 19.3996 89.491 18.1885 89.0493V75.6258H23.8905V89.6456ZM57.6744 62.5142H41.5039C40.4921 62.5142 39.6729 63.3008 39.6729 64.2702C39.6729 65.2397 40.4921 66.0263 41.5039 66.0263H57.6744V103.488H43.9568V100.881C43.9568 99.4537 42.8839 98.2629 41.4705 98.0068C41.3961 96.8773 40.9603 95.8283 40.266 94.9749C41.2588 94.4911 41.9407 93.5052 41.9407 92.3665V75.0405C41.9407 73.4262 40.5722 72.1138 38.8889 72.1138H31.9662C30.283 72.1138 28.9145 73.4262 28.9145 75.0405V87.4158C28.451 87.4634 27.9961 87.5448 27.5526 87.6619V75.0405C27.5526 73.4262 26.1841 72.1138 24.5008 72.1138H17.5781C15.8949 72.1138 14.5264 73.4262 14.5264 75.0405V88.5243C13.628 88.581 12.7678 88.7676 11.9629 89.0658V66.0263H32.7148C33.7267 66.0263 34.5459 65.2397 34.5459 64.2702C34.5459 63.3008 33.7267 62.5142 32.7148 62.5142H5.67913L13.2408 53.5942C13.3448 53.4863 13.6719 53.3372 13.8159 53.3281L57.6744 53.3271V62.5142ZM97.1146 103.488V90.7276C97.1146 89.7581 96.2954 88.9716 95.2835 88.9716C94.2726 88.9716 93.4525 89.7581 93.4525 90.7276V103.488H77.9457V75.7658H93.4525V82.5328C93.4525 83.5023 94.2726 84.2888 95.2835 84.2888C96.2954 84.2888 97.1146 83.5023 97.1146 82.5328V75.1804C97.1146 73.5662 95.746 72.2537 94.0628 72.2537H77.3354C75.6521 72.2537 74.2836 73.5662 74.2836 75.1804V103.488H61.3365V45.7516L85.6991 20.4978L94.2936 29.4069C94.6541 29.781 95.1452 29.9703 95.6373 29.9703C96.0827 29.9703 96.5281 29.8157 96.8809 29.5029C97.6229 28.8444 97.6686 27.7332 96.981 27.0216L87.0428 16.7197C86.6966 16.3602 86.2093 16.1563 85.6991 16.1563C85.1879 16.1563 84.7015 16.3602 84.3544 16.7197L58.466 43.5556H53.0958L85.6991 9.75962L118.301 43.5556H112.932L102.853 33.1082C102.166 32.3958 101.007 32.3528 100.266 33.0113C99.5235 33.6707 99.4778 34.781 100.165 35.4935L110.062 45.7516V63.3849C109.807 63.5861 109.583 63.8386 109.405 64.1349L103.892 73.2918C103.403 74.103 103.376 75.0277 103.82 75.7639C104.032 76.117 104.34 76.3996 104.708 76.5999L101.445 82.0188C100.957 82.8301 100.93 83.7547 101.373 84.491C101.629 84.9163 102.024 85.2391 102.497 85.4385L98.5889 91.9303C98.1007 92.7424 98.074 93.6662 98.5165 94.4024C98.9599 95.1396 99.8077 95.5786 100.785 95.5786H107.088V103.488H97.1146ZM112.45 103.488H110.75V95.5786H112.45V103.488Z" fill="#B79347"/>
</svg>
