<svg width="88" height="127" viewBox="0 0 88 127" fill="none" xmlns="http://www.w3.org/2000/svg">
<circle cx="3" cy="3" r="3" transform="matrix(1 0 0 -1 0 126.863)" fill="white"/>
<circle cx="3" cy="3" r="3" transform="matrix(1 0 0 -1 54.5833 126.863)" fill="white"/>
<circle cx="3" cy="3" r="3" transform="matrix(1 0 0 -1 27.2917 126.863)" fill="white"/>
<circle cx="3" cy="3" r="3" transform="matrix(1 0 0 -1 81.875 126.863)" fill="white"/>
<circle cx="3" cy="3" r="3" transform="matrix(1 0 0 -1 0 102.691)" fill="white"/>
<circle cx="3" cy="3" r="3" transform="matrix(1 0 0 -1 54.5833 102.691)" fill="white"/>
<circle cx="3" cy="3" r="3" transform="matrix(1 0 0 -1 27.2917 102.691)" fill="white"/>
<circle cx="3" cy="3" r="3" transform="matrix(1 0 0 -1 81.875 102.691)" fill="white"/>
<circle cx="3" cy="3" r="3" transform="matrix(1 0 0 -1 0 78.5186)" fill="white"/>
<circle cx="3" cy="3" r="3" transform="matrix(1 0 0 -1 54.5833 78.5186)" fill="white"/>
<circle cx="3" cy="3" r="3" transform="matrix(1 0 0 -1 27.2917 78.5186)" fill="white"/>
<circle cx="3" cy="3" r="3" transform="matrix(1 0 0 -1 81.875 78.5186)" fill="white"/>
<circle cx="3" cy="3" r="3" transform="matrix(1 0 0 -1 0 54.3452)" fill="white"/>
<circle cx="3" cy="3" r="3" transform="matrix(1 0 0 -1 54.5833 54.3452)" fill="white"/>
<circle cx="3" cy="3" r="3" transform="matrix(1 0 0 -1 27.2917 54.3452)" fill="white"/>
<circle cx="3" cy="3" r="3" transform="matrix(1 0 0 -1 81.875 54.3452)" fill="white"/>
<circle cx="3" cy="3" r="3" transform="matrix(1 0 0 -1 0 30.1729)" fill="white"/>
<circle cx="3" cy="3" r="3" transform="matrix(1 0 0 -1 54.5833 30.1729)" fill="white"/>
<circle cx="3" cy="3" r="3" transform="matrix(1 0 0 -1 27.2917 30.1729)" fill="white"/>
<circle cx="3" cy="3" r="3" transform="matrix(1 0 0 -1 81.875 30.1729)" fill="white"/>
<circle cx="3" cy="3" r="3" transform="matrix(1 0 0 -1 0 6.00024)" fill="white"/>
<circle cx="3" cy="3" r="3" transform="matrix(1 0 0 -1 54.5833 6.00049)" fill="white"/>
<circle cx="3" cy="3" r="3" transform="matrix(1 0 0 -1 27.2917 6.00049)" fill="white"/>
<circle cx="3" cy="3" r="3" transform="matrix(1 0 0 -1 81.875 6.00049)" fill="white"/>
</svg>
