<svg width="91" height="24" viewBox="0 0 91 24" fill="none" xmlns="http://www.w3.org/2000/svg">
<path d="M90.0607 13.0607C90.6464 12.4749 90.6464 11.5251 90.0607 10.9393L80.5147 1.3934C79.9289 0.807611 78.9792 0.807611 78.3934 1.3934C77.8076 1.97919 77.8076 2.92893 78.3934 3.51472L86.8787 12L78.3934 20.4853C77.8076 21.0711 77.8076 22.0208 78.3934 22.6066C78.9792 23.1924 79.9289 23.1924 80.5147 22.6066L90.0607 13.0607ZM0 13.5H3.17857V10.5H0V13.5ZM9.53571 13.5H15.8929V10.5H9.53571V13.5ZM22.25 13.5H28.6071V10.5H22.25V13.5ZM34.9643 13.5H41.3214V10.5H34.9643V13.5ZM47.6786 13.5H54.0357V10.5H47.6786V13.5ZM60.3929 13.5H66.75V10.5H60.3929V13.5ZM73.1071 13.5H79.4643V10.5H73.1071V13.5ZM85.8214 13.5H89V10.5H85.8214V13.5Z" fill="#19CF79"/>
</svg>
