<svg width="217" height="50" viewBox="0 0 217 50" fill="none" xmlns="http://www.w3.org/2000/svg">
<path d="M62.4506 37V16H70.4006C72.5006 16 74.3006 16.38 75.8006 17.14C77.3006 17.9 78.4506 19.03 79.2506 20.53C80.0506 22.01 80.4506 23.85 80.4506 26.05V26.65C80.4506 28.89 80.0406 30.78 79.2206 32.32C78.4006 33.86 77.2106 35.03 75.6506 35.83C74.1106 36.61 72.2606 37 70.1006 37H62.4506ZM67.8506 32.56H69.8006C70.7206 32.56 71.5506 32.37 72.2906 31.99C73.0506 31.61 73.6706 30.99 74.1506 30.13C74.6306 29.25 74.8706 28.09 74.8706 26.65V26.05C74.8706 24.69 74.6506 23.6 74.2106 22.78C73.7906 21.96 73.2206 21.37 72.5006 21.01C71.7806 20.63 70.9806 20.44 70.1006 20.44H67.8506V32.56ZM83.2959 37V21.1H87.5559V23.26C87.7159 22.9 87.9859 22.52 88.3659 22.12C88.7459 21.72 89.2059 21.39 89.7459 21.13C90.2859 20.85 90.8859 20.71 91.5459 20.71C91.8859 20.71 92.1559 20.73 92.3559 20.77C92.5559 20.81 92.7359 20.85 92.8959 20.89V24.88C92.7959 24.82 92.5659 24.75 92.2059 24.67C91.8459 24.59 91.4259 24.55 90.9459 24.55C90.2459 24.55 89.6659 24.69 89.2059 24.97C88.7659 25.25 88.4359 25.63 88.2159 26.11C88.0159 26.59 87.9159 27.13 87.9159 27.73V37H83.2959ZM102.196 37.39C100.636 37.39 99.2359 37.1 97.9959 36.52C96.7559 35.92 95.7659 35.01 95.0259 33.79C94.3059 32.57 93.9459 31.04 93.9459 29.2V28.6C93.9459 26.84 94.2959 25.38 94.9959 24.22C95.6959 23.06 96.6459 22.19 97.8459 21.61C99.0659 21.01 100.416 20.71 101.896 20.71C104.516 20.71 106.496 21.39 107.836 22.75C109.176 24.09 109.846 26.04 109.846 28.6V30.28H98.6859C98.7259 31.06 98.9059 31.71 99.2259 32.23C99.5659 32.75 99.9959 33.13 100.516 33.37C101.036 33.59 101.596 33.7 102.196 33.7C103.076 33.7 103.766 33.57 104.266 33.31C104.786 33.03 105.126 32.66 105.286 32.2H109.546C109.226 33.94 108.436 35.24 107.176 36.1C105.916 36.96 104.256 37.39 102.196 37.39ZM102.046 24.4C101.486 24.4 100.956 24.49 100.456 24.67C99.9559 24.85 99.5459 25.15 99.2259 25.57C98.9259 25.97 98.7559 26.52 98.7159 27.22H105.316C105.316 26.48 105.166 25.91 104.866 25.51C104.566 25.09 104.166 24.8 103.666 24.64C103.186 24.48 102.646 24.4 102.046 24.4ZM117.191 37.39C116.051 37.39 115.071 37.17 114.251 36.73C113.451 36.29 112.841 35.69 112.421 34.93C112.001 34.15 111.791 33.29 111.791 32.35C111.791 30.77 112.271 29.56 113.231 28.72C114.211 27.88 115.681 27.46 117.641 27.46H122.141V26.8C122.141 25.84 121.911 25.18 121.451 24.82C121.011 24.46 120.391 24.28 119.591 24.28C118.831 24.28 118.271 24.4 117.911 24.64C117.551 24.86 117.351 25.23 117.311 25.75H112.691C112.751 24.79 113.051 23.93 113.591 23.17C114.151 22.41 114.941 21.81 115.961 21.37C117.001 20.93 118.261 20.71 119.741 20.71C121.141 20.71 122.371 20.92 123.431 21.34C124.491 21.76 125.311 22.44 125.891 23.38C126.491 24.3 126.791 25.54 126.791 27.1V32.95C126.791 33.79 126.811 34.53 126.851 35.17C126.891 35.79 126.951 36.4 127.031 37H122.621C122.601 36.66 122.571 36.36 122.531 36.1C122.511 35.84 122.501 35.52 122.501 35.14C122.021 35.78 121.351 36.32 120.491 36.76C119.651 37.18 118.551 37.39 117.191 37.39ZM118.691 34.12C119.351 34.12 119.941 34 120.461 33.76C120.981 33.52 121.391 33.16 121.691 32.68C121.991 32.18 122.141 31.62 122.141 31V30.34H118.541C117.861 30.34 117.351 30.52 117.011 30.88C116.691 31.24 116.531 31.65 116.531 32.11C116.531 32.71 116.691 33.2 117.011 33.58C117.351 33.94 117.911 34.12 118.691 34.12ZM129.644 37V21.1H133.994V23.38C134.354 22.68 134.914 22.06 135.674 21.52C136.434 20.98 137.374 20.71 138.494 20.71C139.754 20.71 140.724 20.95 141.404 21.43C142.104 21.91 142.614 22.56 142.934 23.38C143.334 22.62 143.954 21.99 144.794 21.49C145.634 20.97 146.624 20.71 147.764 20.71C149.484 20.71 150.794 21.2 151.694 22.18C152.594 23.14 153.044 24.58 153.044 26.5V37H148.424V27.64C148.424 26.52 148.244 25.73 147.884 25.27C147.544 24.79 146.984 24.55 146.204 24.55C145.744 24.55 145.314 24.68 144.914 24.94C144.534 25.18 144.224 25.53 143.984 25.99C143.764 26.45 143.654 27 143.654 27.64V37H139.034V27.64C139.034 26.52 138.854 25.73 138.494 25.27C138.154 24.79 137.584 24.55 136.784 24.55C136.324 24.55 135.904 24.68 135.524 24.94C135.144 25.18 134.834 25.53 134.594 25.99C134.374 26.45 134.264 27 134.264 27.64V37H129.644ZM158.841 37L154.401 21.1H159.381L161.601 30.88L164.391 21.1H168.711L171.711 30.79L174.201 21.1H178.701L174.261 37H169.641L166.521 26.68L163.461 37H158.841ZM188.006 37.39C186.446 37.39 185.046 37.1 183.806 36.52C182.566 35.92 181.576 35.01 180.836 33.79C180.116 32.57 179.756 31.04 179.756 29.2V28.6C179.756 26.84 180.106 25.38 180.806 24.22C181.506 23.06 182.456 22.19 183.656 21.61C184.876 21.01 186.226 20.71 187.706 20.71C190.326 20.71 192.306 21.39 193.646 22.75C194.986 24.09 195.656 26.04 195.656 28.6V30.28H184.496C184.536 31.06 184.716 31.71 185.036 32.23C185.376 32.75 185.806 33.13 186.326 33.37C186.846 33.59 187.406 33.7 188.006 33.7C188.886 33.7 189.576 33.57 190.076 33.31C190.596 33.03 190.936 32.66 191.096 32.2H195.356C195.036 33.94 194.246 35.24 192.986 36.1C191.726 36.96 190.066 37.39 188.006 37.39ZM187.856 24.4C187.296 24.4 186.766 24.49 186.266 24.67C185.766 24.85 185.356 25.15 185.036 25.57C184.736 25.97 184.566 26.52 184.526 27.22H191.126C191.126 26.48 190.976 25.91 190.676 25.51C190.376 25.09 189.976 24.8 189.476 24.64C188.996 24.48 188.456 24.4 187.856 24.4ZM203.752 37.18C202.472 37.18 201.422 37.03 200.602 36.73C199.782 36.41 199.172 35.84 198.772 35.02C198.392 34.18 198.202 32.97 198.202 31.39V16H202.822V30.7C202.822 31.68 202.952 32.37 203.212 32.77C203.492 33.15 204.062 33.34 204.922 33.34C205.162 33.34 205.362 33.34 205.522 33.34C205.682 33.32 205.842 33.3 206.002 33.28V37.09C205.802 37.11 205.582 37.12 205.342 37.12C205.122 37.14 204.872 37.15 204.592 37.15C204.332 37.17 204.052 37.18 203.752 37.18ZM213.801 37.18C212.521 37.18 211.471 37.03 210.651 36.73C209.831 36.41 209.221 35.84 208.821 35.02C208.441 34.18 208.251 32.97 208.251 31.39V16H212.871V30.7C212.871 31.68 213.001 32.37 213.261 32.77C213.541 33.15 214.111 33.34 214.971 33.34C215.211 33.34 215.411 33.34 215.571 33.34C215.731 33.32 215.891 33.3 216.051 33.28V37.09C215.851 37.11 215.631 37.12 215.391 37.12C215.171 37.14 214.921 37.15 214.641 37.15C214.381 37.17 214.101 37.18 213.801 37.18Z" fill="#19CF79"/>
<circle opacity="0.2" cx="25" cy="25" r="25" fill="#19CF79"/>
<path d="M37 20.9607V34.317C36.9993 35.0283 36.7181 35.7104 36.2182 36.2134C35.7182 36.7164 35.0404 36.9993 34.3333 37H29.8889C29.4174 37 28.9652 36.8115 28.6318 36.4761C28.2984 36.1407 28.1111 35.6857 28.1111 35.2113V30.2924C28.1111 30.0552 28.0175 29.8277 27.8508 29.66C27.6841 29.4923 27.458 29.398 27.2222 29.398H22.7778C22.542 29.398 22.3159 29.4923 22.1492 29.66C21.9825 29.8277 21.8889 30.0552 21.8889 30.2924V35.2113C21.8889 35.6857 21.7016 36.1407 21.3682 36.4761C21.0348 36.8115 20.5826 37 20.1111 37H15.6667C14.9596 36.9993 14.2818 36.7164 13.7818 36.2134C13.2819 35.7104 13.0007 35.0283 13 34.317V20.9607C13.0007 20.6519 13.0804 20.3484 13.2316 20.0796C13.3828 19.8108 13.6003 19.5857 13.8631 19.426L24.0853 13.255C24.3617 13.0882 24.6779 13 25.0002 13C25.3225 13 25.6388 13.0882 25.9151 13.255L36.1373 19.426C36.4001 19.5857 36.6175 19.8108 36.7686 20.0796C36.9197 20.3485 36.9994 20.6519 37 20.9607Z" fill="#19CF79"/>
</svg>
